<?xml version="1.0" encoding="UTF-8" standalone="no"?>
<!DOCTYPE svg PUBLIC "-//W3C//DTD SVG 1.1//EN" "http://www.w3.org/Graphics/SVG/1.1/DTD/svg11.dtd">
<svg width="100%" height="100%" viewBox="0 0 83 104" version="1.1" xmlns="http://www.w3.org/2000/svg" xmlns:xlink="http://www.w3.org/1999/xlink" xml:space="preserve" xmlns:serif="http://www.serif.com/" style="fill-rule:evenodd;clip-rule:evenodd;stroke-linejoin:round;stroke-miterlimit:2;">
    <g transform="matrix(1,0,0,1,-780.6,-252.8)">
        <path d="M840.9,260.7C840.9,264.7 840.1,265.8 839,268.4C835,268.4 831.8,271.7 829.7,274.1C827.6,276.5 818.8,286.4 818.7,286.5L822.8,279.6C823.7,277.9 824.4,276.1 824.7,274.3C825,272.8 825.1,271.3 825,269.8C825,269.3 824.9,268.9 824.9,268.4C824.4,265.3 823.2,262.5 821.4,260C821.4,260 826.1,254.1 835.4,254.1C837.4,254.6 840.9,256.6 840.9,260.7" style="fill:rgb(107,70,50);fill-rule:nonzero;"/>
        <path d="M781.6,354.7L780.6,354.7L780.6,348.5L781.6,348.5L781.6,351.3L782.5,351.2L783.8,348.5L784.9,348.5L783.4,351.6L785,354.7L783.8,354.7L782.5,352.1L781.6,352.2L781.6,354.7Z" style="fill:rgb(107,70,50);fill-rule:nonzero;"/>
        <path d="M788.8,353.9L789.1,353.9L789.1,354.6C788.4,354.7 787.8,354.8 787.3,354.8C786.6,354.8 786.1,354.6 785.8,354.2C785.5,353.8 785.4,353.2 785.4,352.4C785.4,350.8 786.1,350 787.4,350C788.7,350 789.3,350.7 789.3,352.1L789.2,352.8L786.4,352.8C786.4,353.2 786.5,353.5 786.6,353.6C786.8,353.8 787.1,353.9 787.5,353.9L788.8,353.9M788.3,352.1C788.3,351.7 788.2,351.3 788.1,351.2C788,351 787.7,350.9 787.4,350.9C787.1,350.9 786.8,351 786.7,351.2C786.5,351.4 786.5,351.7 786.5,352.1L788.3,352.1Z" style="fill:rgb(107,70,50);fill-rule:nonzero;"/>
        <rect x="790.3" y="348.3" width="1" height="6.5" style="fill:rgb(107,70,50);"/>
        <path d="M795.2,350.2L796.3,350.2L796.3,354.8L795.3,354.8L795.3,354.5C794.9,354.8 794.4,354.9 794.1,354.9C793.5,354.9 793.1,354.7 792.8,354.4C792.6,354.1 792.5,353.5 792.5,352.6L792.5,350.2L793.5,350.2L793.5,352.6C793.5,353.1 793.5,353.5 793.6,353.7C793.7,353.9 793.9,354 794.2,354C794.5,354 794.8,353.9 795.1,353.8L795.2,353.7L795.2,350.2Z" style="fill:rgb(107,70,50);fill-rule:nonzero;"/>
        <path d="M800.9,351.6L800.9,353.7C800.9,353.8 800.9,353.9 801,354C801.1,354.1 801.2,354.1 801.3,354.1L801.3,354.9C800.8,354.9 800.4,354.8 800.1,354.6C799.6,354.8 799.1,354.9 798.6,354.9C797.7,354.9 797.2,354.4 797.2,353.5C797.2,353 797.3,352.7 797.6,352.5C797.8,352.3 798.2,352.2 798.7,352.1L799.9,352L799.9,351.7C799.9,351.5 799.8,351.3 799.7,351.2C799.6,351.1 799.4,351.1 799.2,351.1C798.8,351.1 798.3,351.1 797.7,351.2L797.4,351.2L797.4,350.5C798.1,350.3 798.7,350.3 799.2,350.3C799.8,350.3 800.2,350.4 800.4,350.7C800.7,350.7 800.9,351 800.9,351.6M798.8,352.7C798.4,352.7 798.2,353 798.2,353.4C798.2,353.8 798.4,354 798.8,354C799.1,354 799.4,354 799.8,353.9L800,353.8L800,352.6L798.8,352.7Z" style="fill:rgb(107,70,50);fill-rule:nonzero;"/>
        <path d="M802.1,354.7L802.1,350.1L803.1,350.1L803.1,350.6C803.6,350.3 804.1,350.1 804.7,350L804.7,351C804.2,351.1 803.7,351.2 803.4,351.4L803.2,351.5L803.2,354.7L802.1,354.7Z" style="fill:rgb(107,70,50);fill-rule:nonzero;"/>
        <path d="M809.4,355.3C809.4,356.3 808.7,356.8 807.2,356.8C806.5,356.8 806,356.7 805.7,356.5C805.4,356.3 805.2,356 805.2,355.5C805.2,355.3 805.3,355.1 805.4,354.9C805.5,354.7 805.7,354.6 805.9,354.4C805.7,354.3 805.6,354 805.6,353.7C805.6,353.6 805.7,353.4 805.8,353.1L805.9,353C805.5,352.7 805.2,352.3 805.2,351.6C805.2,351.1 805.4,350.7 805.7,350.4C806,350.1 806.5,350 807,350C807.3,350 807.5,350 807.8,350.1L809.3,350.1L809.3,350.9L808.5,350.9C808.7,351.1 808.7,351.4 808.7,351.6C808.7,352.2 808.5,352.6 808.2,352.8C807.9,353 807.4,353.1 806.8,353.1L806.4,353.1C806.3,353.3 806.3,353.5 806.3,353.6C806.3,353.7 806.4,353.8 806.5,353.8C806.6,353.8 806.9,353.9 807.3,353.9C808,353.9 808.5,354 808.8,354.2C809.2,354.5 809.4,354.8 809.4,355.3M806.1,355.4C806.1,355.6 806.2,355.8 806.4,355.9C806.6,356 806.9,356 807.3,356C808,356 808.4,355.8 808.4,355.4C808.4,355.2 808.3,355 808.2,354.9C808.1,354.8 807.8,354.8 807.4,354.8L806.5,354.7C806.4,354.8 806.3,354.9 806.2,355C806.2,355.2 806.1,355.3 806.1,355.4M806.4,352.3C806.5,352.4 806.7,352.5 807,352.5C807.3,352.5 807.5,352.4 807.6,352.3C807.7,352.2 807.8,352 807.8,351.7C807.8,351.4 807.7,351.2 807.6,351.1C807.5,351 807.3,350.9 807,350.9C806.4,350.9 806.2,351.2 806.2,351.7C806.2,351.9 806.3,352.1 806.4,352.3" style="fill:rgb(107,70,50);fill-rule:nonzero;"/>
        <path d="M813.5,351.6L813.5,353.7C813.5,353.8 813.5,353.9 813.6,354C813.7,354.1 813.8,354.1 813.9,354.1L813.9,354.9C813.4,354.9 813,354.8 812.7,354.6C812.2,354.8 811.7,354.9 811.2,354.9C810.3,354.9 809.8,354.4 809.8,353.5C809.8,353 809.9,352.7 810.2,352.5C810.4,352.3 810.8,352.2 811.3,352.1L812.5,352L812.5,351.7C812.5,351.5 812.4,351.3 812.3,351.2C812.2,351.1 812,351.1 811.8,351.1C811.4,351.1 810.9,351.1 810.3,351.2L810,351.2L810,350.5C810.7,350.3 811.3,350.3 811.8,350.3C812.4,350.3 812.8,350.4 813,350.7C813.2,351 813.5,351 813.5,351.6M811.5,352.7C811.1,352.7 810.9,353 810.9,353.4C810.9,353.8 811.1,354 811.5,354C811.8,354 812.1,354 812.5,353.9L812.7,353.8L812.7,352.6L811.5,352.7Z" style="fill:rgb(107,70,50);fill-rule:nonzero;"/>
        <rect x="816.9" y="348.5" width="1" height="6.2" style="fill:rgb(107,70,50);"/>
        <path d="M820.2,354.7L819.2,354.7L819.2,350.1L820.2,350.1L820.2,350.4C820.6,350.1 821.1,350 821.5,350C822.1,350 822.5,350.2 822.7,350.5C822.9,350.8 823,351.4 823,352.2L823,354.6L822,354.6L822,352.2C822,351.7 821.9,351.4 821.8,351.2C821.7,351 821.5,350.9 821.1,350.9C820.8,350.9 820.5,351 820.2,351.1L820.1,351.2L820.1,354.7L820.2,354.7Z" style="fill:rgb(107,70,50);fill-rule:nonzero;"/>
        <path d="M827.9,348.3L827.9,354.8L826.9,354.8L826.9,354.6C826.5,354.8 826,354.9 825.7,354.9C825.1,354.9 824.7,354.7 824.4,354.4C824.1,354 824,353.4 824,352.6C824,351.8 824.2,351.1 824.5,350.8C824.8,350.4 825.3,350.2 825.9,350.2C826.1,350.2 826.5,350.2 826.9,350.3L826.9,348.4L827.9,348.4L827.9,348.3ZM826.8,353.8L827,353.7L827,351C826.6,350.9 826.3,350.9 826,350.9C825.4,350.9 825.1,351.4 825.1,352.4C825.1,353 825.2,353.3 825.3,353.6C825.4,353.8 825.7,353.9 826,353.9C826.3,353.9 826.5,353.9 826.8,353.8" style="fill:rgb(107,70,50);fill-rule:nonzero;"/>
        <path d="M829.4,350.6C829.7,350.2 830.2,350 831,350C831.7,350 832.2,350.2 832.6,350.6C832.9,351 833.1,351.6 833.1,352.4C833.1,353.2 832.9,353.8 832.6,354.2C832.3,354.6 831.8,354.8 831,354.8C830.3,354.8 829.7,354.6 829.4,354.2C829.1,353.8 828.9,353.2 828.9,352.4C828.9,351.6 829.1,351 829.4,350.6M830.1,353.6C830.2,353.8 830.5,354 830.9,354C831.3,354 831.6,353.9 831.7,353.6C831.8,353.4 831.9,353 831.9,352.4C831.9,351.8 831.8,351.5 831.7,351.2C831.6,351 831.3,350.9 830.9,350.9C830.5,350.9 830.2,351 830.1,351.2C830,351.4 829.9,351.8 829.9,352.4C829.9,353 830,353.4 830.1,353.6" style="fill:rgb(107,70,50);fill-rule:nonzero;"/>
        <path d="M835,354.7L834,354.7L834,350.1L835,350.1L835,350.4C835.4,350.1 835.9,350 836.3,350C836.9,350 837.3,350.2 837.5,350.5C837.7,350.8 837.8,351.4 837.8,352.2L837.8,354.6L836.8,354.6L836.8,352.2C836.8,351.7 836.7,351.4 836.6,351.2C836.5,351 836.3,350.9 835.9,350.9C835.6,350.9 835.3,351 835,351.1L834.9,351.2L834.9,354.7L835,354.7Z" style="fill:rgb(107,70,50);fill-rule:nonzero;"/>
        <path d="M842.2,353.9L842.5,353.9L842.5,354.6C841.8,354.7 841.2,354.8 840.7,354.8C840,354.8 839.5,354.6 839.2,354.2C838.9,353.8 838.8,353.2 838.8,352.4C838.8,350.8 839.5,350 840.8,350C842.1,350 842.7,350.7 842.7,352.1L842.6,352.8L839.8,352.8C839.8,353.2 839.9,353.5 840,353.6C840.2,353.8 840.5,353.9 840.9,353.9L842.2,353.9M841.7,352.1C841.7,351.7 841.6,351.3 841.5,351.2C841.4,351 841.1,350.9 840.8,350.9C840.5,350.9 840.2,351 840.1,351.2C839.9,351.4 839.9,351.7 839.9,352.1L841.7,352.1Z" style="fill:rgb(107,70,50);fill-rule:nonzero;"/>
        <path d="M846.8,351.1C846.1,351 845.6,351 845.2,351C844.9,351 844.7,351 844.5,351.1C844.4,351.2 844.3,351.3 844.3,351.5C844.3,351.7 844.4,351.8 844.5,351.8C844.6,351.9 845,351.9 845.5,352C846,352.1 846.4,352.2 846.6,352.4C846.8,352.6 846.9,352.9 846.9,353.4C846.9,353.9 846.7,354.2 846.4,354.5C846.1,354.7 845.6,354.8 845.1,354.8C844.7,354.8 844.3,354.7 843.7,354.6L843.4,354.6L843.4,353.8C844.1,353.9 844.7,353.9 845,353.9C845.3,353.9 845.6,353.9 845.7,353.8C845.8,353.7 845.9,353.6 845.9,353.4C845.9,353.2 845.8,353.1 845.7,353C845.6,352.9 845.3,352.9 844.8,352.8C844.3,352.7 843.9,352.6 843.7,352.4C843.5,352.2 843.4,351.9 843.4,351.4C843.4,350.9 843.6,350.6 843.9,350.4C844.2,350.2 844.6,350.1 845.1,350.1C845.5,350.1 846,350.1 846.5,350.2L846.8,350.3L846.8,351.1Z" style="fill:rgb(107,70,50);fill-rule:nonzero;"/>
        <path d="M847.9,348.3L848.9,348.3L848.9,349.3L847.9,349.3L847.9,348.3ZM847.9,350.2L848.9,350.2L848.9,354.8L847.9,354.8L847.9,350.2Z" style="fill:rgb(107,70,50);fill-rule:nonzero;"/>
        <path d="M853.4,351.6L853.4,353.7C853.4,353.8 853.4,353.9 853.5,354C853.6,354.1 853.7,354.1 853.8,354.1L853.8,354.9C853.3,354.9 852.9,354.8 852.6,354.6C852.1,354.8 851.6,354.9 851.1,354.9C850.2,354.9 849.7,354.4 849.7,353.5C849.7,353 849.8,352.7 850.1,352.5C850.3,352.3 850.7,352.2 851.2,352.1L852.4,352L852.4,351.7C852.4,351.5 852.3,351.3 852.2,351.2C852.1,351.1 851.9,351.1 851.7,351.1C851.3,351.1 850.8,351.1 850.2,351.2L849.9,351.2L849.9,350.5C850.6,350.3 851.2,350.3 851.7,350.3C852.3,350.3 852.7,350.4 852.9,350.7C853.1,351 853.4,351 853.4,351.6M851.4,352.7C851,352.7 850.8,353 850.8,353.4C850.8,353.8 851,354 851.4,354C851.7,354 852,354 852.4,353.9L852.6,353.8L852.6,352.6L851.4,352.7Z" style="fill:rgb(107,70,50);fill-rule:nonzero;"/>
        <path d="M847.7,306.6C847.7,306.5 847.6,306.4 847.6,306.3L847.6,304.3C847.6,303.7 847.5,303.3 847.2,303.1C846.9,302.8 846.5,302.7 845.9,302.7C845.3,302.7 844.6,302.8 844,303L844,303.9L845.8,303.8C846,303.8 846.1,303.8 846.2,303.9C846.3,304 846.3,304.1 846.3,304.3L846.3,304.6L845.3,304.7C844.7,304.7 844.3,304.9 844,305.1C843.7,305.3 843.6,305.7 843.6,306.2C843.6,307.2 844.1,307.8 845.1,307.8C845.6,307.8 846,307.7 846.5,307.5C846.7,307.6 846.9,307.7 847.1,307.8C847.3,307.8 847.6,307.9 847.9,307.9L847.9,306.9C847.8,306.7 847.7,306.7 847.7,306.6M846.3,306.5L846.2,306.5C845.9,306.6 845.7,306.6 845.4,306.6C845.1,306.6 844.9,306.4 844.9,306.1C844.9,305.8 845.1,305.6 845.4,305.5L846.3,305.4L846.3,306.5Z" style="fill:rgb(107,70,50);fill-rule:nonzero;"/>
        <path d="M843.2,303.9L842,303.9L842,306.2C842,306.3 842,306.3 842.1,306.4C842.2,306.5 842.3,306.5 842.4,306.5L843.1,306.5L843.2,307.5C842.8,307.6 842.5,307.6 842.2,307.6C841.6,307.6 841.2,307.5 841,307.2C840.8,306.9 840.7,306.5 840.7,305.8L840.7,303.8L840.1,303.8L840.1,302.7L840.7,302.7L840.7,301.4L842,301.4L842,302.7L843.2,302.7L843.2,303.9Z" style="fill:rgb(107,70,50);fill-rule:nonzero;"/>
        <path d="M850.2,307.6L848.8,307.6L848.8,301L850.1,301L850.1,303.1C850.5,302.9 850.9,302.8 851.3,302.8C851.9,302.8 852.4,303 852.6,303.4C852.8,303.8 853,304.3 853,305.1L853,307.7L851.7,307.7L851.7,305C851.7,304.6 851.7,304.3 851.6,304.1C851.5,303.9 851.3,303.8 851,303.8C850.8,303.8 850.5,303.8 850.3,303.9L850.2,303.9L850.2,307.6Z" style="fill:rgb(107,70,50);fill-rule:nonzero;"/>
        <path d="M856.9,302.8L858.2,302.8L858.2,307.5L856.9,307.5L856.9,307.2C856.4,307.5 856,307.6 855.7,307.6C855,307.6 854.6,307.4 854.4,307.1C854.2,306.7 854.1,306.1 854.1,305.3L854.1,302.8L855.4,302.8L855.4,305.3C855.4,305.8 855.4,306.1 855.5,306.3C855.6,306.5 855.8,306.6 856,306.6C856.3,306.6 856.5,306.6 856.8,306.5L856.9,306.5L856.9,302.8Z" style="fill:rgb(107,70,50);fill-rule:nonzero;"/>
        <path d="M860.7,307.6L859.3,307.6L859.3,302.9L860.6,302.9L860.6,303.2C861,302.9 861.4,302.8 861.8,302.8C862.4,302.8 862.9,303 863.1,303.4C863.3,303.8 863.5,304.3 863.5,305.1L863.5,307.7L862.2,307.7L862.2,305C862.2,304.6 862.2,304.3 862.1,304.1C862,303.9 861.8,303.8 861.5,303.8C861.2,303.8 861,303.8 860.8,303.9L860.7,303.9L860.7,307.6Z" style="fill:rgb(107,70,50);fill-rule:nonzero;"/>
        <path d="M811.3,268.4L788.4,268.4C784.1,268.4 780.7,264.9 780.7,260.7C780.7,258.6 781.6,256.6 783,255.2C784.4,253.8 786.3,252.9 788.5,252.9L807,252.9C807,252.9 816.7,258.6 811.3,268.4" style="fill:rgb(107,70,50);fill-rule:nonzero;"/>
        <path d="M853.7,319.9C853.7,324.2 850.2,327.6 846,327.6L828.7,327.6C828.7,327.6 824.3,326.4 824.3,321.7C824.3,318.3 826.4,314.8 828.3,312.1L846,312.1C848.1,312.1 850.1,313 851.5,314.4C852.9,315.9 853.7,317.8 853.7,319.9" style="fill:rgb(107,70,50);fill-rule:nonzero;"/>
        <path d="M824.8,274.2C824.5,276 823.8,277.8 822.9,279.5L818.8,286.4L797.1,322.9C797,323.1 796.8,323.4 796.7,323.6C794.2,327.2 789.2,328.2 785.5,325.7C783.3,324.2 782.1,321.7 782.1,319.1C782.1,317.8 782.4,316.4 783.1,315.2L811.4,268.3C816.8,258.6 807.1,252.8 807.1,252.8C813.1,252.8 818.2,255.7 821.4,259.9C823.2,262.3 824.5,265.2 824.9,268.3C825,268.7 825,269.2 825,269.7C825.1,271.2 825,272.7 824.8,274.2" style="fill:rgb(107,70,50);fill-rule:nonzero;"/>
        <path d="M853.2,271.8C853.2,275.9 851.3,279.4 847.4,284.9C840.9,294.2 833.9,304.2 830.1,309.5C829.6,310.3 828.9,311.2 828.2,312.2C826.3,314.9 824.2,318.4 824.2,321.8C824.2,326.5 828.6,327.7 828.6,327.7L819.2,327.7C815.3,327.7 811.7,325.6 809.8,322.1C807.9,318.6 808,314.4 810.3,311.2C816.6,302.1 834.6,276 836.7,272.9C837.5,271.7 838.3,270.1 839,268.5C840.1,265.8 840.9,264.7 840.9,260.8C840.9,256.8 837.3,254.7 835.3,254.3C835.3,254.1 853.2,254.9 853.2,271.8" style="fill:rgb(107,70,50);fill-rule:nonzero;"/>
        <path d="M818.7,286.5" style="fill:rgb(107,70,50);fill-rule:nonzero;"/>
        <g opacity="0.47">
            <g>
                <path d="M853.7,319.9C853.7,324.2 850.2,327.6 846,327.6L828.7,327.6C828.7,327.6 824.3,326.4 824.3,321.7C824.3,318.3 826.4,314.8 828.3,312.1L846,312.1C848.1,312.1 850.1,313 851.5,314.4C852.9,315.9 853.7,317.8 853.7,319.9" style="fill:rgb(107,70,50);fill-rule:nonzero;"/>
            </g>
        </g>
        <path d="M780.7,336L784,336C784.9,336 785.5,336.2 786,336.5C786.4,336.9 786.7,337.4 786.7,338.2C786.7,338.7 786.6,339 786.5,339.3C786.4,339.6 786.1,339.8 785.8,340C786.2,340.2 786.4,340.4 786.6,340.7C786.8,341 786.9,341.4 786.9,341.9C786.9,342.7 786.7,343.3 786.2,343.7C785.7,344.1 785,344.3 784.2,344.3L780.8,344.3L780.8,336L780.7,336ZM783.9,337.5L782.4,337.5L782.4,339.5L783.9,339.5C784.5,339.5 784.9,339.2 784.9,338.5C784.9,337.8 784.6,337.5 783.9,337.5M784,341L782.4,341L782.4,343.1L784,343.1C784.4,343.1 784.6,343 784.8,342.9C785,342.8 785.1,342.5 785.1,342.1C785.1,341.3 784.7,341 784,341" style="fill:rgb(107,70,50);fill-rule:nonzero;"/>
        <path d="M787.5,337.5L787.5,336L793.7,336L793.7,337.5L791.5,337.5L791.5,344.5L789.8,344.5L789.8,337.5L787.5,337.5Z" style="fill:rgb(107,70,50);fill-rule:nonzero;"/>
        <path d="M794.8,344.5L794.8,336L797.7,336L799.8,343L799.9,343L799.9,336L801.6,336L801.6,344.5L798.8,344.5L796.7,337.5L796.5,337.5L796.5,344.5L794.8,344.5Z" style="fill:rgb(107,70,50);fill-rule:nonzero;"/>
        <path d="M806.2,344.5L806.2,336L809.1,336L810.6,342.2L812.1,336L815,336L815,344.5L813.3,344.5L813.3,337.9L813.1,337.9L811.5,344.1L809.8,344.1L808.1,337.9L807.9,337.9L807.9,344.5L806.2,344.5Z" style="fill:rgb(107,70,50);fill-rule:nonzero;"/>
        <path d="M818.3,342.9C818.5,343.1 818.8,343.2 819.1,343.2C819.9,343.2 820.6,343.2 821.2,343.1L821.5,343.1L821.5,344.3C820.5,344.5 819.7,344.6 818.9,344.6C818,344.6 817.3,344.4 816.9,343.9C816.5,343.4 816.3,342.6 816.3,341.5C816.3,339.3 817.2,338.1 819.1,338.1C820.9,338.1 821.8,339 821.8,340.9L821.7,342.1L818,342.1C818,342.5 818.1,342.7 818.3,342.9M820.2,340.8C820.2,340.3 820.1,340 820,339.8C819.8,339.6 819.6,339.5 819.2,339.5C818.8,339.5 818.5,339.6 818.4,339.8C818.2,340 818.2,340.3 818.1,340.8L820.2,340.8Z" style="fill:rgb(107,70,50);fill-rule:nonzero;"/>
        <rect x="823.1" y="335.8" width="1.7" height="8.7" style="fill:rgb(107,70,50);"/>
        <path d="M831.1,340.2L831.1,342.8C831.1,343 831.1,343.1 831.2,343.2C831.2,343.3 831.4,343.3 831.5,343.4L831.5,344.7C831.1,344.7 830.7,344.7 830.5,344.6C830.2,344.5 830,344.4 829.7,344.3C829.1,344.6 828.5,344.7 827.9,344.7C826.6,344.7 826,344 826,342.7C826,342 826.2,341.6 826.5,341.3C826.9,341 827.4,340.9 828.1,340.8L829.4,340.7L829.4,340.3C829.4,340 829.3,339.9 829.2,339.8C829.1,339.7 828.9,339.7 828.6,339.7L826.3,339.8L826.2,338.6C827.1,338.4 827.9,338.2 828.7,338.2C829.5,338.2 830.1,338.4 830.4,338.7C831,338.9 831.1,339.5 831.1,340.2M828.3,341.8C827.8,341.8 827.6,342.1 827.6,342.5C827.6,343 827.8,343.2 828.2,343.2C828.5,343.2 828.9,343.1 829.2,343.1L829.4,343.1L829.4,341.8L828.3,341.8Z" style="fill:rgb(107,70,50);fill-rule:nonzero;"/>
        <path d="M832.1,338.3L833.7,338.3L834.9,343.1L835.1,343.1L836.3,338.3L837.9,338.3L835.7,347.1L834.1,347.1L834.8,344.5L833.6,344.5L832.1,338.3Z" style="fill:rgb(107,70,50);fill-rule:nonzero;"/>
        <path d="M843.6,340.2L843.6,342.8C843.6,343 843.6,343.1 843.7,343.2C843.7,343.3 843.9,343.3 844,343.4L843.9,344.7C843.5,344.7 843.1,344.7 842.9,344.6C842.6,344.5 842.4,344.4 842.1,344.3C841.5,344.6 840.9,344.7 840.3,344.7C839,344.7 838.4,344 838.4,342.7C838.4,342 838.6,341.6 838.9,341.3C839.3,341 839.8,340.9 840.5,340.8L841.8,340.7L841.8,340.3C841.8,340 841.7,339.9 841.6,339.8C841.5,339.7 841.3,339.7 841,339.7L838.7,339.8L838.7,338.6C839.6,338.4 840.4,338.2 841.2,338.2C842,338.2 842.6,338.4 842.9,338.7C843.4,338.9 843.6,339.5 843.6,340.2M840.7,341.8C840.2,341.8 840,342.1 840,342.5C840,343 840.2,343.2 840.6,343.2C840.9,343.2 841.3,343.1 841.6,343.1L841.8,343.1L841.8,341.8L840.7,341.8Z" style="fill:rgb(107,70,50);fill-rule:nonzero;"/>
        <path d="M846.9,344.5L845.1,344.5L845.1,338.3L846.8,338.3L846.8,338.7C847.4,338.4 847.9,338.2 848.4,338.2C849.2,338.2 849.8,338.4 850.1,338.9C850.4,339.4 850.6,340.1 850.6,341.2L850.6,344.6L848.9,344.6L848.9,341.3C848.9,340.8 848.8,340.4 848.7,340.1C848.6,339.8 848.3,339.7 848,339.7C847.7,339.7 847.3,339.8 847,339.9L846.9,339.9L846.9,344.5Z" style="fill:rgb(107,70,50);fill-rule:nonzero;"/>
        <path d="M852,335.8L853.7,335.8L853.7,337.5L852,337.5L852,335.8ZM852,338.3L853.7,338.3L853.7,344.5L852,344.5L852,338.3Z" style="fill:rgb(107,70,50);fill-rule:nonzero;"/>
        <g opacity="0.58">
            <g>
                <path d="M840.9,260.7C840.9,264.7 840.1,265.8 839,268.4C835,268.4 831.8,271.7 829.7,274.1C827.6,276.5 818.8,286.4 818.7,286.5L822.8,279.6C823.7,277.9 824.4,276.1 824.7,274.3C825,272.8 825.1,271.3 825,269.8C825,269.3 824.9,268.9 824.9,268.4C824.4,265.3 823.2,262.5 821.4,260C821.4,260 826.1,254.1 835.4,254.1C837.4,254.6 840.9,256.6 840.9,260.7" style="fill:rgb(107,70,50);fill-rule:nonzero;"/>
            </g>
        </g>
    </g>
</svg>
