<?xml version="1.0" encoding="UTF-8" standalone="no"?>
<!DOCTYPE svg PUBLIC "-//W3C//DTD SVG 1.1//EN" "http://www.w3.org/Graphics/SVG/1.1/DTD/svg11.dtd">
<svg width="100%" height="100%" viewBox="0 0 362 84" version="1.1" xmlns="http://www.w3.org/2000/svg" xmlns:xlink="http://www.w3.org/1999/xlink" xml:space="preserve" xmlns:serif="http://www.serif.com/" style="fill-rule:evenodd;clip-rule:evenodd;stroke-linejoin:round;stroke-miterlimit:2;">
    <g transform="matrix(1,0,0,1,-977.6,-276.2)">
        <path d="M1002.5,304.1C1003.7,303.8 1004.8,303.2 1005.8,302.3C1007,301.2 1007.9,299.6 1008.3,297.5C1008.6,296.2 1008.7,294.8 1008.6,293.6C1008.5,291.6 1008,290.1 1007.1,288.9C1006.2,287.6 1004.5,287 1002.1,287C1001,287 1000.3,287.3 1000,287.7C999.6,288.2 999.3,288.9 999.1,289.9L995.9,304.8C999,304.6 1001.3,304.4 1002.5,304.1M993.3,327C993.8,327.2 994.7,327.3 995.9,327.3C1000.2,327.3 1003.2,325.3 1004.8,321.5C1005.8,319.2 1006.2,316.8 1006,314.3C1005.8,311.2 1004.6,309.2 1002.4,308.1C1001.1,307.5 998.7,307.1 995.3,306.9L991.8,323.1L991.6,324L991.6,325.1C991.8,326.1 992.3,326.7 993.3,327M977.9,327.5C978.8,327.3 979.5,327.1 979.9,326.8C980.9,326.1 981.6,324.8 982,322.9L988.5,293.1C988.7,292.2 988.8,291.5 988.9,290.9C989,290.3 989,289.9 989,289.5C988.9,288.3 988.5,287.6 987.8,287.2L986.9,286.9L987.4,284.8L1002.2,284.8C1007.3,284.8 1011.2,285.6 1014.1,287.1C1017,288.7 1018.5,291.2 1018.8,294.7C1019,298.1 1017.5,300.8 1014.2,302.8C1012.4,303.9 1010,304.8 1006.9,305.6C1009.8,306.6 1011.9,307.6 1013.1,308.6C1015.2,310.3 1016.3,312.5 1016.5,315.4C1016.7,319.1 1015.4,322.3 1012.5,325.1C1009.6,327.9 1004.6,329.2 997.4,329.2L977.6,329.2L977.9,327.5Z" style="fill:rgb(107,70,50);fill-rule:nonzero;"/>
        <path d="M1039.5,302.9C1039,301.9 1038.2,301.4 1037.1,301.4C1034.7,301.4 1032.3,304.3 1030,309.9C1028,315 1027,318.8 1027.2,321.5C1027.2,322.5 1027.5,323.5 1028.1,324.3C1028.7,325.1 1029.4,325.5 1030.3,325.5C1032.6,325.5 1034.9,322.6 1037.5,316.7C1039.3,311.8 1040.1,307.9 1039.9,305C1039.9,304.2 1039.8,303.5 1039.5,302.9M1024.1,306.5C1027.9,301.2 1031.9,298.6 1036.2,298.6C1037.9,298.6 1039.2,299.1 1040.1,300.1C1040.6,300.7 1041.1,301.7 1041.6,303.1L1044.2,299.4L1050.1,299.4L1046.1,314.6C1045.5,316.8 1045.1,318.5 1044.9,319.7C1044.4,321.9 1044.2,323.5 1044.3,324.5L1044.6,325.3L1045.2,325.5L1046.3,325.1C1046.7,324.8 1047.1,324.4 1047.5,323.8L1047.8,323.5C1048.3,323.8 1048.9,324.2 1049.4,324.6C1048.4,326 1047.3,327.1 1046.3,328.1C1044.7,329.6 1043.1,330.3 1041.4,330.3C1040.4,330.3 1039.4,329.9 1038.3,329.2C1037.3,328.4 1036.7,327.3 1036.7,325.8C1036.7,325.2 1036.9,323.9 1037.3,321.8L1037.1,322.2C1036.9,322.6 1036.5,323.2 1036,323.9C1034.9,325.7 1033.6,327.2 1032,328.4C1030.5,329.6 1028.7,330.2 1026.7,330.2C1024.9,330.2 1023.2,329.6 1021.6,328.2C1020,326.9 1019.1,324.6 1018.9,321.5C1018.6,316.7 1020.3,311.7 1024.1,306.5" style="fill:rgb(107,70,50);fill-rule:nonzero;"/>
        <path d="M1050.5,329.3L1055.8,306.9C1056,306 1056.1,305.3 1056.2,304.8C1056.4,303.9 1056.5,303.2 1056.4,302.9C1056.4,302.1 1056.1,301.6 1055.6,301.4C1055.3,301.3 1054.9,301.2 1054.4,301.2L1054.7,299.5L1065.6,299.5L1062.3,311L1062.5,311.1C1062.4,311.2 1063,310.2 1064.3,308.2C1065.6,306.1 1066.9,304.4 1068.1,303.1C1069.3,301.8 1070.6,300.7 1071.9,299.9C1073.3,299.1 1074.7,298.7 1076.3,298.7C1077.7,298.7 1079,299.1 1080,299.9C1081.1,300.7 1081.6,302 1081.7,303.8C1081.8,305.5 1081,309.2 1079.3,315C1077.6,320.7 1076.8,323.8 1076.8,324.2L1077.2,325.1L1078,325.4C1078.6,325.4 1079.3,324.8 1080.3,323.5L1081.9,324.5C1081.2,325.5 1080.6,326.3 1080,326.9C1078.1,328.9 1076,329.9 1073.7,329.9C1072.5,329.9 1071.4,329.5 1070.4,328.9C1069.4,328.2 1068.9,327.1 1068.8,325.6C1068.8,324.6 1068.9,323.2 1069.3,321.4C1069.7,319.6 1070.1,317.7 1070.7,315.8L1073.6,305.9L1073.7,305.3L1073.7,304.8C1073.7,304.3 1073.5,304 1073.1,303.8L1072,303.5C1070.6,303.5 1069.1,304.5 1067.5,306.7C1065.9,308.8 1064.6,310.9 1063.7,313C1062.6,315.3 1061.8,317.6 1061.1,319.9C1060.4,322.2 1059.6,325.4 1058.7,329.3L1050.5,329.3Z" style="fill:rgb(107,70,50);fill-rule:nonzero;"/>
        <path d="M1083.1,329.3L1092,289.9C1092.1,289.5 1092.1,289.1 1092.1,288.7C1092,287.7 1091.7,287.1 1091,286.9C1090.7,286.8 1090.3,286.7 1089.8,286.7L1090.2,284.9L1101.2,284.9L1094.9,313.3C1097.4,311.5 1099.5,309.7 1101.3,308.1C1104.1,305.6 1105.5,303.8 1105.4,302.8C1105.4,302.1 1105,301.6 1104.4,301.5L1103.4,301.3L1103.8,299.5L1113.7,299.6L1113,301.9C1111.2,302 1111.3,302.1 1107,306.2C1107,306.2 1103.7,309.2 1103.3,309.6L1103,309.9C1103.1,310.1 1103.3,311.2 1103.8,313.3C1104.4,315.7 1104.8,317.3 1105.1,318.2C1106.1,321.1 1106.8,323 1107.3,323.9C1107.8,324.8 1108.4,325.2 1109.2,325.2C1110,325.2 1110.7,324.8 1111.4,323.9L1111.7,323.6L1113.1,324.6C1112.5,325.6 1111.8,326.6 1111.1,327.5C1109.7,329.1 1108,330 1106.1,330C1104.6,330 1103.3,329.5 1102.3,328.5C1101.3,327.5 1100.4,326.2 1099.7,324.6C1098.9,322.9 1098.2,320.9 1097.7,318.7C1097.2,316.5 1096.9,315.3 1096.9,315.1L1094.4,316.9L1091.7,329.4L1083.1,329.4L1083.1,329.3Z" style="fill:rgb(107,70,50);fill-rule:nonzero;"/>
        <path d="M1218.8,310.5L1226.4,310.5C1229.3,310.5 1231.8,311 1231.8,314.3C1231.8,317.9 1228.4,318.8 1225.9,318.8L1217,318.8L1218.8,310.5ZM1201.2,329.3L1227.1,329.3C1237,329.3 1245.7,325.1 1245.7,314.3C1245.7,310.2 1243.1,306.3 1238.9,305.4L1238.9,305.3L1239,305.3C1244.4,303.9 1247.3,300.2 1247.3,294.6C1247.3,288.2 1243.6,284.8 1233.8,284.8L1210.6,284.8L1201.2,329.3ZM1221.9,295.5L1229,295.5C1231.5,295.5 1233.3,296 1233.3,298.7C1233.3,301.5 1230.5,302.3 1228.3,302.3L1220.4,302.3L1221.9,295.5Z" style="fill:rgb(107,70,50);fill-rule:nonzero;"/>
        <path d="M1257.6,329.3L1271.5,329.3L1278.5,296.2L1291,296.2L1293.4,284.8L1254.4,284.8L1252,296.2L1264.5,296.2L1257.6,329.3Z" style="fill:rgb(107,70,50);fill-rule:nonzero;"/>
        <path d="M1288.9,329.3L1302.2,329.3L1307.4,304.4L1307.5,304.4L1315.8,329.3L1329.5,329.3L1339,284.8L1325.7,284.8L1320.7,309.1L1320.6,309.1L1312.1,284.8L1298.3,284.8L1288.9,329.3Z" style="fill:rgb(107,70,50);fill-rule:nonzero;"/>
        <path d="M1196.1,359.5C1196.5,358 1196.3,358 1197.4,353.9C1198.1,349.9 1202.6,343.7 1210.6,343.1C1213.3,342.8 1317.2,338.4 1339.4,336.9L1338.7,340.7C1317.7,343.4 1223.1,356 1196.1,359.5" style="fill:rgb(107,70,50);fill-rule:nonzero;"/>
        <path d="M1150.7,328.9L1150.7,336.9L1157.8,332.9L1164.9,336.9L1164.9,328.9L1157.8,324.8L1150.7,328.9Z" style="fill:rgb(107,70,50);fill-rule:nonzero;"/>
        <path d="M1179.1,328.9L1179.1,320.7L1157.8,308.6L1136.5,320.7L1136.5,328.9L1157.8,316.7L1179.1,328.9Z" style="fill:rgb(107,70,50);fill-rule:nonzero;"/>
        <path d="M1129.4,292.4L1157.8,276.2L1186.3,292.4L1186.3,324.8L1179.1,328.9L1179.1,296.5L1157.8,284.3L1136.5,296.5L1136.5,328.9L1129.4,324.8L1129.4,292.4Z" style="fill:rgb(107,70,50);fill-rule:nonzero;"/>
        <path d="M1157.8,292.4L1172,300.5L1172,332.9L1164.9,336.9L1164.9,304.6L1157.8,300.5L1150.7,304.6L1150.7,336.9L1143.6,332.9L1143.6,300.5L1157.8,292.4Z" style="fill:rgb(107,70,50);fill-rule:nonzero;"/>
    </g>
</svg>
