<?xml version="1.0" encoding="UTF-8" standalone="no"?>
<!DOCTYPE svg PUBLIC "-//W3C//DTD SVG 1.1//EN" "http://www.w3.org/Graphics/SVG/1.1/DTD/svg11.dtd">
<svg width="100%" height="100%" viewBox="0 0 1508 348" version="1.1" xmlns="http://www.w3.org/2000/svg" xmlns:xlink="http://www.w3.org/1999/xlink" xml:space="preserve" xmlns:serif="http://www.serif.com/" style="fill-rule:evenodd;clip-rule:evenodd;stroke-linejoin:round;stroke-miterlimit:2;">
    <g transform="matrix(1,0,0,1,-640.2,-490.337)">
        <g transform="matrix(4.16667,0,0,4.16667,0,0)">
            <path d="M154.056,168.93C154.952,168.737 155.616,168.485 156.029,168.21C157.008,167.527 157.697,166.229 158.117,164.324L164.616,134.482C164.785,133.586 164.922,132.871 164.992,132.269C165.073,131.686 165.11,131.235 165.085,130.909C165.01,129.72 164.616,128.968 163.926,128.647L162.986,128.371L163.45,126.309L178.271,126.309C183.328,126.309 187.302,127.061 190.153,128.647C193.048,130.24 194.59,132.763 194.815,136.267C195.029,139.663 193.475,142.385 190.171,144.402C188.391,145.524 185.96,146.438 182.909,147.179C185.81,148.176 187.878,149.183 189.131,150.174C191.237,151.84 192.378,154.11 192.547,157.017C192.791,160.678 191.431,163.898 188.549,166.668C185.653,169.419 180.627,170.804 173.458,170.804L153.648,170.804L154.056,168.93ZM169.453,168.46C169.998,168.648 170.876,168.724 172.042,168.724C176.334,168.724 179.299,166.762 180.934,162.877C181.9,160.577 182.326,158.158 182.181,155.651C181.993,152.599 180.79,150.543 178.578,149.491C177.281,148.87 174.924,148.475 171.528,148.319L168.062,164.556L167.88,165.472C167.849,165.803 167.849,166.16 167.887,166.606C167.95,167.527 168.463,168.122 169.453,168.46ZM178.685,145.562C179.907,145.273 180.997,144.678 181.981,143.763C183.209,142.629 184.049,141.024 184.488,139.013C184.776,137.665 184.889,136.362 184.813,135.064C184.682,133.109 184.168,131.535 183.266,130.332C182.357,129.079 180.664,128.465 178.221,128.465C177.168,128.465 176.466,128.716 176.072,129.179C175.689,129.662 175.419,130.403 175.206,131.386L171.96,146.326C175.237,146.088 177.494,145.825 178.685,145.562Z" style="fill:rgb(107,71,51);fill-rule:nonzero;"/>
        </g>
        <g transform="matrix(4.16667,0,0,4.16667,0,0)">
            <path d="M200.253,147.993C204.069,142.741 208.086,140.103 212.31,140.103C214.04,140.103 215.325,140.611 216.184,141.595C216.704,142.203 217.186,143.205 217.644,144.635L220.275,140.962L226.141,140.962L222.125,156.172C221.554,158.402 221.141,160.082 220.921,161.248C220.439,163.472 220.218,165.046 220.275,166.017L220.583,166.818L221.171,167.063L222.318,166.631C222.67,166.336 223.083,165.917 223.503,165.359L223.797,165.021C224.261,165.302 224.863,165.735 225.39,166.08C224.343,167.49 223.334,168.624 222.332,169.557C220.771,171.055 219.123,171.794 217.43,171.794C216.396,171.794 215.381,171.419 214.365,170.685C213.363,169.909 212.812,168.787 212.749,167.313C212.711,166.763 212.93,165.415 213.382,163.278L213.15,163.641C212.93,164.043 212.58,164.606 212.097,165.359C210.975,167.139 209.653,168.656 208.086,169.889C206.545,171.112 204.79,171.732 202.822,171.732C201.017,171.732 199.332,171.098 197.715,169.765C196.123,168.436 195.227,166.199 195.058,163.046C194.819,158.133 196.543,153.139 200.253,147.993ZM215.707,144.377C215.237,143.381 214.441,142.892 213.288,142.892C210.843,142.892 208.482,145.743 206.212,151.433C204.189,156.485 203.248,160.326 203.393,163.046C203.442,164.087 203.743,165.021 204.314,165.804C204.91,166.568 205.649,166.981 206.514,166.981C208.776,166.989 211.157,164.055 213.695,158.196C215.475,153.283 216.29,149.385 216.14,146.489C216.108,145.643 215.951,144.923 215.707,144.377Z" style="fill:rgb(107,71,51);fill-rule:nonzero;"/>
        </g>
        <g transform="matrix(4.16667,0,0,4.16667,0,0)">
            <path d="M226.718,170.803L231.969,148.406C232.163,147.547 232.296,146.832 232.395,146.344C232.577,145.429 232.647,144.771 232.635,144.413C232.591,143.605 232.296,143.116 231.801,142.903C231.518,142.822 231.105,142.727 230.572,142.664L230.885,140.967L241.764,140.967L238.455,152.479L238.626,152.561C238.526,152.686 239.12,151.708 240.462,149.616C241.778,147.522 243.063,145.823 244.278,144.526C245.507,143.192 246.779,142.157 248.119,141.362C249.505,140.572 250.939,140.158 252.489,140.158C253.91,140.158 255.151,140.572 256.173,141.362C257.232,142.157 257.795,143.467 257.902,145.303C257.984,146.99 257.181,150.712 255.489,156.464C253.779,162.212 252.946,165.295 252.965,165.714L253.359,166.611L254.116,166.911C254.668,166.911 255.395,166.291 256.372,165.045L257.97,166.053C257.281,167.074 256.655,167.89 256.071,168.491C254.147,170.515 252.061,171.511 249.786,171.511C248.577,171.511 247.48,171.154 246.47,170.49C245.493,169.782 244.96,168.686 244.88,167.188C244.835,166.235 245.006,164.831 245.374,163.02C245.733,161.209 246.201,159.366 246.772,157.417L249.63,147.477L249.761,146.865L249.805,146.324C249.774,145.848 249.579,145.491 249.217,145.303L248.114,145.002C246.727,145.002 245.238,146.049 243.644,148.193C242.059,150.291 240.781,152.391 239.817,154.497C238.757,156.772 237.905,159.072 237.22,161.416C236.557,163.754 235.767,166.88 234.86,170.803L226.718,170.803Z" style="fill:rgb(107,71,51);fill-rule:nonzero;"/>
        </g>
        <g transform="matrix(4.16667,0,0,4.16667,0,0)">
            <path d="M259.289,170.803L268.176,131.373C268.238,130.946 268.263,130.563 268.257,130.156C268.2,129.179 267.856,128.552 267.204,128.326C266.897,128.238 266.49,128.164 265.969,128.119L266.364,126.327L277.368,126.327L271.052,154.723C273.502,152.899 275.652,151.169 277.45,149.559C280.251,147.027 281.63,145.253 281.574,144.251C281.548,143.555 281.185,143.097 280.528,142.909L279.544,142.727L279.938,140.955L289.858,141.048L289.188,143.304C287.408,143.373 287.514,143.523 283.14,147.635C283.14,147.635 279.863,150.68 279.437,151.044L279.111,151.345C279.167,151.526 279.437,152.667 279.938,154.741C280.52,157.16 280.954,158.783 281.229,159.654C282.226,162.562 282.94,164.449 283.391,165.345C283.842,166.204 284.469,166.63 285.265,166.63C286.055,166.63 286.782,166.204 287.433,165.364L287.684,165.045L289.1,166.084C288.48,167.106 287.784,168.09 287.051,168.942C285.66,170.578 283.986,171.417 282.025,171.417C280.546,171.417 279.268,170.91 278.228,169.958C277.194,168.993 276.31,167.689 275.602,166.053C274.825,164.349 274.147,162.38 273.608,160.137C273.076,157.918 272.806,156.702 272.794,156.495L270.25,158.314L267.518,170.803L259.289,170.803Z" style="fill:rgb(107,71,51);fill-rule:nonzero;"/>
        </g>
        <g transform="matrix(4.16667,0,0,4.16667,0,0)">
            <path d="M398.097,136.917L405.242,136.917C407.711,136.917 409.534,137.425 409.534,140.101C409.534,142.859 406.758,143.654 404.546,143.654L396.693,143.654L398.097,136.917ZM377.441,170.753L403.337,170.753C413.219,170.753 421.917,166.503 421.917,155.78C421.917,151.669 419.291,147.734 415.105,146.863L415.105,146.743L415.168,146.743C420.614,145.315 423.44,141.624 423.44,136.028C423.44,129.591 419.78,126.232 409.979,126.232L386.804,126.232L377.441,170.753ZM395.001,151.951L402.641,151.951C405.548,151.951 408.017,152.447 408.017,155.749C408.017,159.372 404.62,160.242 402.139,160.242L393.222,160.242L395.001,151.951Z" style="fill:rgb(107,71,51);fill-rule:nonzero;"/>
        </g>
        <g transform="matrix(4.16667,0,0,4.16667,0,0)">
            <path d="M433.795,170.751L447.689,170.751L454.651,137.649L467.179,137.649L469.579,126.231L430.617,126.231L428.217,137.649L440.738,137.649L433.795,170.751Z" style="fill:rgb(107,71,51);fill-rule:nonzero;"/>
        </g>
        <g transform="matrix(4.16667,0,0,4.16667,0,0)">
            <path d="M465.141,170.751L478.351,170.751L483.597,145.827L483.728,145.827L492.019,170.751L505.669,170.751L515.156,126.231L501.939,126.231L496.876,150.546L496.758,150.546L488.279,126.231L474.497,126.231L465.141,170.751Z" style="fill:rgb(107,71,51);fill-rule:nonzero;"/>
        </g>
        <g transform="matrix(4.16667,0,0,4.16667,0,0)">
            <path d="M372.292,201C372.706,199.478 372.542,199.478 373.576,195.422C374.31,191.393 378.815,185.207 386.737,184.573C389.45,184.255 493.306,179.905 515.49,178.388L514.826,182.175C493.919,184.824 399.314,197.484 372.292,201Z" style="fill:rgb(107,71,51);fill-rule:nonzero;"/>
        </g>
        <g transform="matrix(4.16667,0,0,4.16667,0,0)">
            <path d="M326.887,170.31L326.887,178.394L333.999,174.334L341.107,178.394L341.107,170.31L333.999,166.249L326.887,170.31Z" style="fill:rgb(107,71,51);fill-rule:nonzero;"/>
        </g>
        <g transform="matrix(4.16667,0,0,4.16667,0,0)">
            <path d="M355.33,170.31L355.33,162.201L333.997,150.056L312.671,162.201L312.671,170.31L333.997,158.159L355.33,170.31Z" style="fill:rgb(107,71,51);fill-rule:nonzero;"/>
        </g>
        <g transform="matrix(4.16667,0,0,4.16667,0,0)">
            <path d="M305.556,133.864L333.995,117.681L362.447,133.864L362.447,166.257L355.334,170.311L355.334,137.936L333.995,125.766L312.681,137.936L312.681,170.311L305.556,166.257L305.556,133.864Z" style="fill:rgb(107,71,51);fill-rule:nonzero;"/>
        </g>
        <g transform="matrix(4.16667,0,0,4.16667,0,0)">
            <path d="M333.995,133.864L348.221,141.972L348.221,174.334L341.102,178.384L341.102,146.02L333.995,141.972L326.883,146.02L326.883,178.384L319.787,174.334L319.787,141.972L333.995,133.864Z" style="fill:rgb(107,71,51);fill-rule:nonzero;"/>
        </g>
    </g>
</svg>
