<?xml version="1.0" encoding="UTF-8" standalone="no"?>
<!DOCTYPE svg PUBLIC "-//W3C//DTD SVG 1.1//EN" "http://www.w3.org/Graphics/SVG/1.1/DTD/svg11.dtd">
<svg width="100%" height="100%" viewBox="0 0 2347 450" version="1.1" xmlns="http://www.w3.org/2000/svg" xmlns:xlink="http://www.w3.org/1999/xlink" xml:space="preserve" xmlns:serif="http://www.serif.com/" style="fill-rule:evenodd;clip-rule:evenodd;stroke-linejoin:round;stroke-miterlimit:2;">
    <g transform="matrix(1,0,0,1,-12990.5,-328.137)">
        <g transform="matrix(8.33333,0,0,8.33333,0,0)">
            <g transform="matrix(1,0,0,1,1559.75,81.3212)">
                <path d="M0,8.107C-0.718,10.982 -0.602,10.982 -0.89,12.055C17.972,9.572 83.978,0.608 98.571,-1.268L99.037,-3.948C83.549,-2.869 11.085,0.21 9.19,0.43C3.66,0.884 0.521,5.256 0,8.107" style="fill:white;fill-rule:nonzero;"/>
            </g>
            <g transform="matrix(-0.205219,0.978716,0.978716,0.205219,1725.78,60.5821)">
                <path d="M-9.613,-15.266L13.961,-15.266L12.399,-7.813L-11.177,-7.807L-9.613,-15.266Z" style="fill:white;fill-rule:nonzero;"/>
            </g>
            <g transform="matrix(-1,0,0,1,1713.44,45.1525)">
                <path d="M-8.823,-5.776L-1.208,-5.776L0,0L-7.615,0L-8.823,-5.776Z" style="fill:white;fill-rule:nonzero;"/>
            </g>
            <g transform="matrix(1,0,0,1,1678.05,56.4465)">
                <path d="M0,-2.403L-5.868,-2.403L-4.212,-10.276L0.491,-10.276C3.09,-10.276 5.506,-9.914 5.506,-6.848C5.506,-4.224 3.851,-2.403 0,-2.403M4.611,-17.07L-11.11,-17.07L-17.831,14.667L-9.498,14.667L-7.303,4.397L0.086,4.397C7.879,4.397 13.839,0.393 13.839,-7.603C13.839,-13.25 10.344,-17.07 4.611,-17.07" style="fill:white;fill-rule:nonzero;"/>
            </g>
            <g transform="matrix(1,0,0,1,1710.89,70.7169)">
                <path d="M0,-22.94C-0.767,-23.294 -1.527,-23.337 -2.557,-23.337C-5.646,-23.337 -8.29,-21.609 -9.854,-18.893L-9.952,-18.893L-9.099,-22.676L-16.488,-22.676L-21.326,0.397L-13.71,0.397L-11.472,-10.186C-10.712,-14.092 -9.099,-16.716 -4.93,-16.716C-3.495,-16.716 -2.514,-16.539 -1.478,-16.275L0,-22.94Z" style="fill:white;fill-rule:nonzero;"/>
            </g>
            <g transform="matrix(1,0,0,1,1730.95,52.9392)">
                <path d="M0,13.282C-2.687,13.282 -3.717,11.148 -3.717,8.53C-3.717,5.415 -2.104,-0.006 2.018,-0.006C4.887,-0.006 5.867,2.036 5.867,4.924C5.867,8.481 4.348,13.282 0,13.282M2.508,-5.561C-5.911,-5.561 -11.331,0.62 -11.331,8.793C-11.331,15.593 -6.628,18.843 -0.179,18.843C8.247,18.843 13.489,12.84 13.489,4.612C13.489,-2.005 8.873,-5.561 2.508,-5.561" style="fill:white;fill-rule:nonzero;"/>
            </g>
            <g transform="matrix(1,0,0,1,1765,70.7169)">
                <path d="M0,-22.94C-0.76,-23.294 -1.527,-23.337 -2.558,-23.337C-5.647,-23.337 -8.29,-21.609 -9.86,-18.893L-9.946,-18.893L-9.101,-22.676L-16.488,-22.676L-21.332,0.397L-13.71,0.397L-11.473,-10.186C-10.712,-14.092 -9.101,-16.716 -4.931,-16.716C-3.495,-16.716 -2.515,-16.539 -1.484,-16.275L0,-22.94Z" style="fill:white;fill-rule:nonzero;"/>
            </g>
            <g transform="matrix(1,0,0,1,1803.07,52.0442)">
                <path d="M0,15.072C-1.526,15.072 -3.09,14.489 -3.09,12.668C-3.09,8.223 3.809,10.087 5.728,8.487L5.782,8.487C5.507,10.577 4.611,15.072 0,15.072M14.335,1.374C14.335,-3.115 10.166,-4.666 3.716,-4.666C-1.975,-4.666 -6.443,-2.894 -7.657,3.115L-0.447,3.115C-0.135,0.932 1.344,0.221 3.766,0.221C6.046,0.221 6.99,1.11 6.99,2.441C6.99,5.464 3.403,5.292 0.81,5.421C-5.149,5.868 -10.705,7.07 -10.705,13.244C-10.705,18.003 -7.479,19.738 -3.14,19.738C0.179,19.738 2.466,18.892 3.899,16.844L3.985,16.844C3.985,18.046 3.985,17.96 4.163,19.07L11.65,19.07C11.516,18.671 11.338,18.089 11.338,17.292C11.338,16.047 11.65,14.581 12.049,12.981C12.589,10.841 14.335,4.44 14.335,1.374" style="fill:white;fill-rule:nonzero;"/>
            </g>
            <g transform="matrix(1,0,0,1,1830.62,67.1149)">
                <path d="M0,-15.07C0.853,-15.07 1.826,-14.807 2.28,-14.273C2.729,-13.783 2.913,-13.071 2.862,-12.274L9.768,-12.274C10.073,-18.185 5.021,-19.737 0.178,-19.737C-4.789,-19.737 -11.067,-18.093 -11.067,-11.913C-11.067,-7.559 -8.063,-6.358 -4.654,-5.603C-0.938,-4.671 0.896,-4.579 0.896,-2.58C0.896,-0.71 -1.215,-0.226 -2.509,-0.226C-3.723,-0.226 -4.789,-0.489 -5.513,-1.158C-6.045,-1.734 -6.407,-2.495 -6.358,-3.562L-13.354,-3.562C-13.127,2.441 -9.32,4.667 -3.409,4.667C2.061,4.667 8.511,3.38 8.511,-3.69C8.511,-8.221 6.046,-9.202 1.748,-10.276C-0.987,-10.938 -3.458,-11.25 -3.458,-12.894C-3.458,-14.537 -1.569,-15.07 0,-15.07" style="fill:white;fill-rule:nonzero;"/>
            </g>
            <g transform="matrix(1,0,0,1,1787.43,59.5496)">
                <path d="M0,-6.616L4.844,-6.616L5.874,-11.509L1.078,-11.509L2.514,-18.444L-5.106,-18.444L-6.586,-11.509L-10.436,-11.509L-11.466,-6.616L-7.615,-6.616L-9.406,1.735C-9.989,4.452 -10.301,6.23 -10.301,7.83C-10.301,11.343 -6.623,11.828 -3.09,11.828C-1.605,11.828 -0.179,11.65 1.349,11.564L2.514,5.917C1.699,5.96 0.943,6.052 0.142,6.052C-1.16,6.052 -2.23,5.96 -2.23,4.856C-2.23,4.047 -2.06,3.121 -1.834,2.097L0,-6.616Z" style="fill:white;fill-rule:nonzero;"/>
            </g>
            <g transform="matrix(-0.204712,0.978822,0.978822,0.204712,1775.44,39.7201)">
                <path d="M1.032,-6.615L6.933,-6.615L5.376,0.833L-0.526,0.839L1.032,-6.615Z" style="fill:white;fill-rule:nonzero;"/>
            </g>
            <g transform="matrix(1,0,0,1,1762.09,48.0408)">
                <path d="M0,23.073L7.608,23.073L12.459,0L4.832,0L0,23.073Z" style="fill:white;fill-rule:nonzero;"/>
            </g>
            <g transform="matrix(1,0,0,1,1582.76,58.8545)">
                <path d="M0,-6.978L-5.512,-6.978L-4.538,-11.742L0.49,-11.742C2.226,-11.742 3.513,-11.386 3.513,-9.492C3.513,-7.548 1.557,-6.978 0,-6.978M-1.687,4.764L-7.959,4.764L-6.714,-1.11L-1.331,-1.11C0.711,-1.11 2.446,-0.754 2.446,1.588C2.446,4.145 0.042,4.764 -1.687,4.764M7.468,-4.728C11.294,-5.739 13.299,-8.345 13.299,-12.318C13.299,-16.862 10.718,-19.241 3.826,-19.241L-12.496,-19.241L-19.075,12.263L-0.84,12.263C6.095,12.263 12.232,9.265 12.232,1.674C12.232,-1.238 10.362,-4.022 7.425,-4.635L7.425,-4.728L7.468,-4.728Z" style="fill:white;fill-rule:nonzero;"/>
            </g>
            <g transform="matrix(1,0,0,1,1627.87,71.1204)">
                <path d="M0,-31.51L-27.396,-31.51L-29.089,-23.435L-20.283,-23.435L-25.171,0L-15.391,0L-10.498,-23.435L-1.692,-23.435L0,-31.51Z" style="fill:white;fill-rule:nonzero;"/>
            </g>
            <g transform="matrix(1,0,0,1,1650.63,71.1204)">
                <path d="M0,-31.51L-3.556,-14.299L-3.648,-14.299L-9.608,-31.51L-19.302,-31.51L-25.881,0L-16.586,0L-12.896,-17.653L-12.809,-17.653L-6.979,0L2.625,0L9.295,-31.51L0,-31.51Z" style="fill:white;fill-rule:nonzero;"/>
            </g>
        </g>
    </g>
</svg>
