<svg width="172" height="34" viewBox="0 0 172 34" fill="none" xmlns="http://www.w3.org/2000/svg">
<g clip-path="url(#clip0_832_5376)">
<g filter="url(#filter0_d_832_5376)">
<path d="M1.35152 30.8676C0.917706 32.6057 0.988131 32.6057 0.813477 33.2551C12.2174 31.7536 52.1259 26.3337 60.9494 25.1991L61.2311 23.5793C51.8667 24.2315 8.05387 26.0928 6.90876 26.2259C3.56428 26.5006 1.66632 29.1436 1.35152 30.8676Z" fill="#996B4D"/>
<path d="M93.8925 5.84351L90.9678 19.7947H95.5722L98.5012 5.84351H93.8925Z" fill="#996B4D"/>
<path d="M99.6091 0.605225H95.004L94.2744 4.09759H98.8788L99.6091 0.605225Z" fill="#996B4D"/>
<path d="M72.8793 9.47313H69.3313L70.3327 4.7131H73.1758C74.7477 4.7131 76.2083 4.93214 76.2083 6.78502C76.2083 8.3724 75.2075 9.47313 72.8793 9.47313ZM75.6674 0.605225H66.1622L62.0986 19.7946H67.1368L68.4644 13.5846H72.9314C77.6435 13.5846 81.2465 11.164 81.2465 6.32937C81.2465 2.91516 79.1337 0.605225 75.6674 0.605225Z" fill="#996B4D"/>
<path d="M92.732 5.6842C92.2686 5.4694 91.8087 5.44336 91.1862 5.44336C89.3178 5.44336 87.7199 6.48847 86.774 8.13078H86.7149L87.2304 5.84337H82.7626L79.8379 19.7946H84.4423L85.7958 13.3957C86.255 11.0344 87.2304 9.44773 89.7509 9.44773C90.6185 9.44773 91.2122 9.55477 91.8383 9.71464L92.732 5.6842Z" fill="#996B4D"/>
<path d="M104.863 16.836C103.239 16.836 102.616 15.5458 102.616 13.9627C102.616 12.0795 103.591 8.80263 106.082 8.80263C107.817 8.80263 108.41 10.0365 108.41 11.783C108.41 13.9331 107.491 16.836 104.863 16.836ZM106.379 5.44336C101.289 5.44336 98.0117 9.18011 98.0117 14.1218C98.0117 18.2333 100.855 20.1981 104.755 20.1981C109.849 20.1981 113.019 16.5684 113.019 11.5936C113.019 7.59344 110.227 5.44336 106.379 5.44336Z" fill="#996B4D"/>
<path d="M125.448 5.6842C124.989 5.4694 124.525 5.44336 123.902 5.44336C122.034 5.44336 120.436 6.48847 119.487 8.13078H119.435L119.947 5.84337H115.479L112.551 19.7946H117.159L118.512 13.3957C118.971 11.0344 119.947 9.44773 122.468 9.44773C123.335 9.44773 123.928 9.55477 124.551 9.71464L125.448 5.6842Z" fill="#996B4D"/>
<path d="M148.468 17.3769C147.544 17.3769 146.599 17.0247 146.599 15.9233C146.599 13.2359 150.769 14.3627 151.93 13.3958H151.964C151.797 14.6592 151.256 17.3769 148.468 17.3769ZM157.135 9.0949C157.135 6.38142 154.614 5.44336 150.714 5.44336C147.273 5.44336 144.571 6.51452 143.837 10.1477H148.196C148.386 8.82798 149.28 8.3977 150.744 8.3977C152.123 8.3977 152.694 8.93573 152.694 9.74069C152.694 11.5675 150.525 11.464 148.956 11.5415C145.353 11.8126 141.994 12.5387 141.994 16.2726C141.994 19.1488 143.944 20.1981 146.569 20.1981C148.575 20.1981 149.958 19.6868 150.825 18.4487H150.877C150.877 19.1755 150.877 19.1227 150.985 19.7946H155.511C155.429 19.553 155.322 19.2009 155.322 18.7199C155.322 17.9663 155.511 17.0804 155.752 16.1127C156.078 14.819 157.135 10.9485 157.135 9.0949Z" fill="#996B4D"/>
<path d="M166.18 11.164C164.527 10.7633 163.033 10.5745 163.033 9.58083C163.033 8.58713 164.175 8.26457 165.123 8.26457C165.639 8.26457 166.228 8.42375 166.503 8.74629C166.773 9.04278 166.885 9.47379 166.855 9.95479H171.029C171.215 6.38142 168.16 5.44336 165.231 5.44336C162.229 5.44336 158.432 6.43704 158.432 10.1738C158.432 12.8063 160.249 13.5324 162.31 13.9887C164.556 14.5521 165.665 14.6078 165.665 15.8163C165.665 16.9473 164.39 17.2403 163.608 17.2403C162.873 17.2403 162.229 17.0804 161.791 16.6761C161.468 16.3282 161.25 15.8684 161.28 15.2233H157.05C157.186 18.8523 159.489 20.1988 163.062 20.1988C166.369 20.1988 170.269 19.4199 170.269 15.1451C170.269 12.4056 168.779 11.8126 166.18 11.164Z" fill="#996B4D"/>
<path d="M139.013 8.80207H141.942L142.565 5.84353H139.666L140.533 1.65112H135.925L135.031 5.84353H132.704L132.081 8.80207H134.409L133.326 13.8516C132.974 15.4939 132.785 16.5686 132.785 17.5362C132.785 19.6609 135.009 19.9539 137.145 19.9539C138.042 19.9539 138.906 19.8461 139.828 19.7947L140.533 16.3798C140.04 16.4059 139.584 16.4615 139.098 16.4615C138.313 16.4615 137.664 16.4059 137.664 15.7389C137.664 15.2488 137.768 14.6889 137.905 14.0706L139.013 8.80207Z" fill="#996B4D"/>
<path d="M127.722 0.605225L126.991 4.09759H131.591L132.325 0.605225H127.722Z" fill="#996B4D"/>
<path d="M123.688 19.7947H128.288L131.221 5.84351H126.609L123.688 19.7947Z" fill="#996B4D"/>
<path d="M15.262 8.16314H11.9288L12.519 5.28276H15.5585C16.6078 5.28276 17.386 5.49754 17.386 6.64335C17.386 7.81874 16.2036 8.16314 15.262 8.16314ZM14.2423 15.2627H10.4499L11.202 11.7104H14.4571C15.6916 11.7104 16.7409 11.9267 16.7409 13.3422C16.7409 14.888 15.2881 15.2627 14.2423 15.2627ZM19.777 9.52375C22.0904 8.91176 23.3032 7.33635 23.3032 4.93416C23.3032 2.18688 21.7418 0.748779 17.5755 0.748779H7.70683L3.72852 19.7959H14.7536C18.9467 19.7959 22.6574 17.9839 22.6574 13.3943C22.6574 11.633 21.527 9.94981 19.7516 9.57938V9.52375H19.777Z" fill="white"/>
<path d="M42.5352 0.746826H25.9705L24.9473 5.6294H30.2714L27.3164 19.7982H33.2293L36.1878 5.6294H41.5112L42.5352 0.746826Z" fill="white"/>
<path d="M56.3008 0.746826L54.15 11.1528H54.0951L50.4914 0.746826H44.63L40.6523 19.7982H46.2723L48.504 9.12529H48.5561L52.0816 19.7982H57.8875L61.9207 0.746826H56.3008Z" fill="white"/>
</g>
</g>
<defs>
<filter id="filter0_d_832_5376" x="-3.18652" y="0.605225" width="178.224" height="40.6499" filterUnits="userSpaceOnUse" color-interpolation-filters="sRGB">
<feFlood flood-opacity="0" result="BackgroundImageFix"/>
<feColorMatrix in="SourceAlpha" type="matrix" values="0 0 0 0 0 0 0 0 0 0 0 0 0 0 0 0 0 0 127 0" result="hardAlpha"/>
<feOffset dy="4"/>
<feGaussianBlur stdDeviation="2"/>
<feComposite in2="hardAlpha" operator="out"/>
<feColorMatrix type="matrix" values="0 0 0 0 0 0 0 0 0 0 0 0 0 0 0 0 0 0 0.55 0"/>
<feBlend mode="normal" in2="BackgroundImageFix" result="effect1_dropShadow_832_5376"/>
<feBlend mode="normal" in="SourceGraphic" in2="effect1_dropShadow_832_5376" result="shape"/>
</filter>
<clipPath id="clip0_832_5376">
<rect width="170.372" height="33" fill="white" transform="translate(0.813477 0.5)"/>
</clipPath>
</defs>
</svg>
