<?xml version="1.0" encoding="UTF-8" standalone="no"?>
<!DOCTYPE svg PUBLIC "-//W3C//DTD SVG 1.1//EN" "http://www.w3.org/Graphics/SVG/1.1/DTD/svg11.dtd">
<svg width="100%" height="100%" viewBox="0 0 290 56" version="1.1" xmlns="http://www.w3.org/2000/svg" xmlns:xlink="http://www.w3.org/1999/xlink" xml:space="preserve" xmlns:serif="http://www.serif.com/" style="fill-rule:evenodd;clip-rule:evenodd;stroke-linejoin:round;stroke-miterlimit:2;">
    <g transform="matrix(1,0,0,1,-318.9,-421.5)">
        <path d="M332.2,421.8L348.9,421.8C355.9,421.8 358.6,424.2 358.6,428.9C358.6,433 356.6,435.6 352.6,436.7L352.6,436.8C355.6,437.4 357.5,440.3 357.5,443.2C357.5,451 351.2,454 344.1,454L325.5,454L332.2,421.8ZM336.8,446.3L343.2,446.3C345,446.3 347.4,445.7 347.4,443.1C347.4,440.7 345.6,440.3 343.5,440.3L338,440.3L336.8,446.3ZM339.3,434.3L344.9,434.3C346.5,434.3 348.5,433.7 348.5,431.7C348.5,429.8 347.2,429.4 345.4,429.4L340.3,429.4L339.3,434.3Z" style="fill-rule:nonzero;"/>
        <path d="M370.3,430L361.3,430L363.1,421.8L391.1,421.8L389.3,430L380.3,430L375.3,454L365.3,454L370.3,430Z" style="fill-rule:nonzero;"/>
        <path d="M394.6,421.8L404.5,421.8L410.6,439.4L410.7,439.4L414.4,421.8L423.9,421.8L417,454L407.2,454L401.3,436L401.2,436L397.4,454L387.9,454L394.6,421.8Z" style="fill-rule:nonzero;"/>
        <path d="M608.4,437.4C608.7,431.4 603.5,429.8 598.6,429.8C593.5,429.8 587.1,431.5 587.1,437.8C587.1,442.3 590.2,443.5 593.7,444.2C597.5,445.2 599.4,445.2 599.4,447.3C599.4,449.2 597.2,449.7 595.9,449.7C594.7,449.7 593.5,449.4 592.8,448.7C592.3,448.1 591.9,447.3 591.9,446.2L584.7,446.2C584.9,452.3 588.8,454.6 594.9,454.6C600.5,454.6 607.1,453.3 607.1,446.1C607.1,441.5 604.6,440.5 600.2,439.4C597.4,438.7 594.9,438.4 594.9,436.7C594.9,435 596.8,434.5 598.4,434.5C599.3,434.5 600.3,434.8 600.7,435.3C601.2,435.8 601.3,436.5 601.3,437.3L608.4,437.3L608.4,437.4ZM582.5,447.8C583,445.6 584.8,439.1 584.8,435.9C584.8,431.3 580.5,429.7 573.9,429.7C568.1,429.7 563.5,431.5 562.3,437.7L569.7,437.7C570,435.5 571.5,434.7 574,434.7C576.3,434.7 577.3,435.6 577.3,437C577.3,440.1 573.6,439.9 571,440.1C564.9,440.6 559.2,441.8 559.2,448.1C559.2,453 562.5,454.7 566.9,454.7C570.3,454.7 572.6,453.8 574.1,451.7L574.2,451.7C574.2,452.9 574.2,452.8 574.4,454L582,454C581.9,453.6 581.7,453 581.7,452.2C581.8,450.9 582.1,449.4 582.5,447.8M576.1,443.2C575.8,445.3 574.9,449.9 570.2,449.9C568.6,449.9 567,449.3 567,447.4C567.1,442.9 574.1,444.8 576.1,443.2ZM560.2,430.4L555.3,430.4L556.8,423.3L549,423.3L547.5,430.4L543.6,430.4L542.5,435.4L546.4,435.4L544.6,443.9C544,446.7 543.7,448.5 543.7,450.1C543.7,453.7 547.5,454.2 551.1,454.2C552.6,454.2 554.1,454 555.6,453.9L556.8,448.1C556,448.2 555.2,448.2 554.4,448.2C553.1,448.2 552,448.1 552,447C552,446.2 552.2,445.2 552.4,444.2L554.3,435.3L559.2,435.3L560.2,430.4ZM541.7,427.5L542.9,421.6L535.1,421.6L533.9,427.5L541.7,427.5ZM541.1,430.4L533.3,430.4L528.4,454L536.2,454L541.1,430.4ZM529.8,437L531.3,430.2C530.5,429.8 529.7,429.8 528.7,429.8C525.5,429.8 522.8,431.6 521.2,434.4L521.1,434.4L522,430.5L514.4,430.5L509.5,454.1L517.3,454.1L519.6,443.3C520.4,439.3 522,436.6 526.3,436.6C527.7,436.5 528.7,436.7 529.8,437M510.3,440.1C510.3,433.3 505.6,429.7 499.1,429.7C490.5,429.7 484.9,436 484.9,444.4C484.9,451.4 489.7,454.7 496.3,454.7C504.9,454.7 510.3,448.5 510.3,440.1M502.5,440.5C502.5,444.1 500.9,449 496.5,449C493.8,449 492.7,446.8 492.7,444.1C492.7,440.9 494.3,435.4 498.6,435.4C501.5,435.4 502.5,437.5 502.5,440.5M486.4,427.5L487.6,421.6L479.8,421.6L478.6,427.5L486.4,427.5ZM485.7,430.4L477.9,430.4L473,454L480.8,454L485.7,430.4ZM474.4,437L475.9,430.2C475.1,429.8 474.3,429.8 473.3,429.8C470.1,429.8 467.4,431.6 465.8,434.4L465.7,434.4L466.6,430.5L459,430.5L454.1,454.1L461.9,454.1L464.2,443.3C465,439.3 466.6,436.6 470.9,436.6C472.4,436.5 473.4,436.7 474.4,437M456.5,431.2C456.5,425.4 452.9,421.5 447.1,421.5L431,421.5L424.1,454L432.6,454L434.8,443.5L442.4,443.5C450.5,443.5 456.5,439.4 456.5,431.2M448,432C448,434.7 446.3,436.5 442.4,436.5L436.4,436.5L438.1,428.5L442.9,428.5C445.5,428.5 448,428.9 448,432" style="fill:rgb(152,105,76);fill-rule:nonzero;"/>
        <path d="M318.9,477.4C319.2,476.3 319.1,476.3 319.8,473.4C320.3,470.5 323.5,466 329.2,465.6C331.1,465.4 405.2,462.2 421.1,461.1L420.6,463.8C405.7,465.7 338.2,474.9 318.9,477.4" style="fill:rgb(152,105,76);fill-rule:nonzero;"/>
    </g>
</svg>
