<?xml version="1.0" encoding="UTF-8" standalone="no"?>
<!DOCTYPE svg PUBLIC "-//W3C//DTD SVG 1.1//EN" "http://www.w3.org/Graphics/SVG/1.1/DTD/svg11.dtd">
<svg width="100%" height="100%" viewBox="0 0 1808 342" version="1.1" xmlns="http://www.w3.org/2000/svg" xmlns:xlink="http://www.w3.org/1999/xlink" xml:space="preserve" xmlns:serif="http://www.serif.com/" style="fill-rule:evenodd;clip-rule:evenodd;stroke-linejoin:round;stroke-miterlimit:2;">
    <g transform="matrix(1,0,0,1,-655.973,-348.112)">
        <g transform="matrix(8.33333,0,0,8.33333,0,0)">
            <g opacity="0.8">
                <g transform="matrix(1,0,0,1,116.762,62.2105)">
                    <path d="M0,0.059C0.033,-0.033 0.042,-0.074 0.075,-0.108C0.217,-0.274 0.358,-0.432 0.5,-0.598C2.836,-3.377 3.81,-6.57 3.269,-10.131C2.338,-16.202 -2.778,-20.437 -9.033,-20.437L-38.037,-20.437L-38.037,-13.117L-8.875,-13.117C-6.146,-13.117 -3.984,-10.995 -4.001,-8.351C-4.009,-5.68 -6.188,-3.634 -9.058,-3.634L-37.164,-3.634C-37.455,-3.634 -37.754,-3.609 -38.045,-3.593L-38.045,3.669L-37.097,3.669C-27.731,3.669 -18.366,3.661 -8.991,3.669C-6.197,3.669 -4.009,5.748 -4.001,8.402C-3.984,11.063 -6.155,13.184 -8.933,13.184C-18.366,13.193 -27.806,13.184 -37.23,13.184L-38.037,13.184L-38.037,20.496L-37.289,20.496C-27.881,20.496 -18.465,20.496 -9.058,20.487C-8.418,20.487 -7.785,20.471 -7.161,20.379C-2.603,19.63 0.715,17.21 2.471,12.985C4.234,8.717 3.577,4.666 0.765,0.966C0.524,0.649 0.25,0.35 0,0.059" style="fill:white;fill-rule:nonzero;"/>
                </g>
                <g transform="matrix(1,0,0,1,148.434,83.3549)">
                    <path d="M0,-41.54L-7.552,-41.54L-7.552,-40.741C-7.552,-31.458 -7.578,-22.176 -7.527,-12.901C-7.52,-10.306 -9.807,-7.944 -12.468,-8.044C-14.739,-8.127 -17.001,-10.29 -17.001,-12.552C-16.985,-21.968 -16.993,-31.367 -16.993,-40.783L-16.993,-41.556L-24.546,-41.556L-24.546,-40.758C-24.546,-31.242 -24.546,-21.727 -24.538,-12.211C-24.538,-11.804 -24.471,-11.404 -24.421,-11.013C-24.022,-7.852 -22.525,-5.299 -20.029,-3.311C-16.644,-0.624 -12.826,0.016 -8.7,-1.115C-6.322,-1.764 -4.375,-3.102 -2.794,-4.991C-1.04,-7.087 -0.034,-9.491 -0.016,-12.186C0.042,-21.719 0,-31.259 0,-40.8L0,-41.54Z" style="fill:white;fill-rule:nonzero;"/>
                </g>
                <g transform="matrix(1,0,0,1,186.619,80.947)">
                    <path d="M0,-38.195C-4.325,-39.942 -8.434,-39.285 -12.193,-36.523C-12.518,-36.282 -12.817,-36.008 -13.108,-35.758C-13.208,-35.799 -13.283,-35.833 -13.283,-35.833C-13.449,-35.975 -13.607,-36.116 -13.774,-36.257C-16.594,-38.561 -19.846,-39.518 -23.448,-38.985C-29.603,-38.062 -33.895,-33.021 -33.903,-26.858L-33.903,1.739L-26.467,1.739L-26.467,0.957C-26.467,-8.368 -26.476,-17.693 -26.467,-27.016C-26.467,-29.703 -24.329,-31.832 -21.643,-31.823C-18.931,-31.816 -16.86,-29.661 -16.86,-26.841C-16.852,-17.6 -16.86,-8.359 -16.852,0.873C-16.852,1.165 -16.826,1.456 -16.81,1.747L-9.457,1.747L-9.457,0.815C-9.457,-8.426 -9.457,-17.658 -9.448,-26.9C-9.448,-29.653 -7.336,-31.807 -4.649,-31.823C-1.955,-31.832 0.208,-29.695 0.208,-26.958C0.217,-17.658 0.208,-8.35 0.208,0.948L0.208,1.739L7.611,1.739L7.611,-26.834C7.611,-27.457 7.595,-28.09 7.495,-28.696C6.746,-33.196 4.284,-36.473 0,-38.195" style="fill:white;fill-rule:nonzero;"/>
                </g>
                <g transform="matrix(1,0,0,1,217.941,79.4468)">
                    <path d="M0,-34.918C-3.377,-37.605 -7.194,-38.245 -11.328,-37.114C-13.699,-36.465 -15.654,-35.134 -17.226,-33.238C-18.989,-31.142 -19.996,-28.738 -20.012,-26.051C-20.062,-16.51 -20.029,-6.97 -20.029,2.562L-20.029,3.311L-12.476,3.311L-12.476,2.513C-12.476,-6.771 -12.443,-16.053 -12.493,-25.327C-12.509,-27.922 -10.222,-30.284 -7.561,-30.185C-5.29,-30.109 -3.019,-27.947 -3.027,-25.677C-3.043,-16.269 -3.036,-6.862 -3.036,2.554L-3.036,3.327L4.517,3.327L4.517,-26.026C4.517,-26.425 4.442,-26.825 4.393,-27.223C3.993,-30.376 2.504,-32.929 0,-34.918" style="fill:white;fill-rule:nonzero;"/>
                </g>
                <g transform="matrix(1,0,0,1,266.18,76.6751)">
                    <path d="M0,3.029C-0.241,2.754 -0.399,2.589 -0.541,2.414C-1.771,0.883 -3.027,-0.622 -4.192,-2.202C-4.716,-2.909 -5.315,-3.052 -6.113,-2.877L-6.113,5.891L-4.516,5.891L-4.516,-0.048C-3.052,1.782 -1.688,3.437 -0.391,5.15C0.142,5.849 0.732,6.081 1.564,5.873L1.564,-2.893L0,-2.893L0,3.029Z" style="fill:white;fill-rule:nonzero;"/>
                </g>
                <g transform="matrix(1,0,0,1,236.77,76.6384)">
                    <path d="M0,3.075C-0.25,2.793 -0.407,2.627 -0.549,2.443C-1.78,0.914 -3.037,-0.6 -4.201,-2.173C-4.725,-2.896 -5.34,-2.996 -6.13,-2.847L-6.13,5.937L-4.492,5.937L-4.492,0.015C-3.028,1.845 -1.639,3.525 -0.333,5.263C0.2,5.971 0.815,6.071 1.572,5.911L1.572,-2.863L0,-2.863L0,3.075Z" style="fill:white;fill-rule:nonzero;"/>
                </g>
                <g transform="matrix(1,0,0,1,237.871,64.952)">
                    <path d="M0,-3.118C0.183,-2.91 0.266,-2.819 0.349,-2.727C1.581,-1.172 2.844,0.359 4.05,1.939C4.566,2.637 5.14,3.028 6.08,2.771L6.08,-5.988L4.508,-5.988L4.508,-0.091C4.258,-0.357 4.1,-0.532 3.95,-0.706C2.736,-2.244 1.464,-3.759 0.299,-5.331C-0.233,-6.046 -0.824,-6.146 -1.606,-5.971L-1.606,2.796L0,2.796L0,-3.118Z" style="fill:white;fill-rule:nonzero;"/>
                </g>
                <g transform="matrix(1,0,0,1,246.024,75.9416)">
                    <path d="M0,4.117C-0.898,5.614 -2.413,5.248 -3.851,5.256L-3.851,-0.799C-2.454,-0.782 -0.957,-1.157 -0.05,0.266C0.749,1.505 0.749,2.861 0,4.117M-0.008,-1.697C-1.847,-2.554 -3.785,-2.08 -5.706,-2.204L-5.706,6.662C-4.492,6.662 -3.327,6.671 -2.146,6.654C-1.854,6.654 -1.555,6.604 -1.256,6.554C0.574,6.296 2.038,4.866 2.304,3.102C2.62,0.939 1.763,-0.874 -0.008,-1.697" style="fill:white;fill-rule:nonzero;"/>
                </g>
                <g transform="matrix(1,0,0,1,252.778,75.3278)">
                    <path d="M0,5.681C-1.181,5.215 -1.713,4.035 -1.572,2.321C-1.472,1.074 -0.749,0.175 0.399,-0.124C2.379,-0.64 3.934,0.674 3.926,2.861C3.917,5.723 1.63,6.313 0,5.681M1.214,-1.714C-1.505,-1.73 -3.46,0.149 -3.485,2.811C-3.51,5.456 -1.546,7.403 1.139,7.403C3.868,7.411 5.79,5.532 5.79,2.852C5.797,0.2 3.884,-1.705 1.214,-1.714" style="fill:white;fill-rule:nonzero;"/>
                </g>
                <g transform="matrix(1,0,0,1,267.169,63.8439)">
                    <path d="M0,-0.821C0.999,-2.094 2.08,-3.467 3.228,-4.923C2.778,-4.923 2.471,-4.898 2.163,-4.931C1.415,-5.031 0.907,-4.731 0.483,-4.107C-0.075,-3.267 -0.732,-2.485 -1.331,-1.671C-1.63,-1.255 -1.988,-1.079 -2.545,-1.271L-2.545,-4.898L-4.358,-4.898L-4.358,3.911L-2.545,3.911L-2.545,0.143C-1.805,-0.056 -1.347,0.152 -0.989,0.725C-0.465,1.516 0.117,2.264 0.683,3.03C1.373,3.97 2.171,4.21 3.378,3.812C2.247,2.256 1.115,0.717 0,-0.821" style="fill:white;fill-rule:nonzero;"/>
                </g>
                <g transform="matrix(1,0,0,1,260.999,67.4349)">
                    <path d="M0,-7.994C0,-8.16 -0.034,-8.327 -0.05,-8.485L-1.822,-8.485L-1.822,-7.752C-1.822,-6.23 -1.813,-4.7 -1.83,-3.178C-1.83,-2.421 -2.038,-1.73 -2.753,-1.306C-4.109,-0.507 -5.714,-1.348 -5.756,-2.92C-5.798,-4.55 -5.764,-6.18 -5.764,-7.811L-5.764,-8.501L-7.553,-8.501C-7.578,-8.359 -7.603,-8.277 -7.603,-8.193C-7.603,-6.479 -7.627,-4.766 -7.586,-3.044C-7.527,-0.866 -5.998,0.507 -3.718,0.482C-1.531,0.457 -0.017,-1.032 0,-3.169C0.008,-4.775 0,-6.388 0,-7.994" style="fill:white;fill-rule:nonzero;"/>
                </g>
                <g transform="matrix(1,0,0,1,234.09,61.4242)">
                    <path d="M0,4.192C0.083,3.951 0.191,3.693 0.191,3.443C0.199,1.481 0.199,-0.482 0.199,-2.454L-1.572,-2.454C-1.572,-0.673 -1.564,1.065 -1.581,2.803C-1.581,3.568 -1.789,4.267 -2.487,4.691C-3.852,5.531 -5.481,4.658 -5.516,3.053C-5.548,1.231 -5.523,-0.591 -5.523,-2.454L-7.345,-2.454C-7.345,-0.558 -7.387,1.289 -7.336,3.128C-7.295,4.965 -6.04,6.247 -4.018,6.463C-2.313,6.646 -0.591,5.914 0,4.192" style="fill:white;fill-rule:nonzero;"/>
                </g>
                <g transform="matrix(1,0,0,1,289.813,77.2484)">
                    <path d="M0,2.005C0.449,0.757 0.873,-0.457 1.356,-1.813C1.847,-0.465 2.271,0.749 2.729,2.005L0,2.005ZM5.573,4.683C4.65,2.345 3.71,0.017 2.787,-2.312C2.296,-3.527 2.296,-3.51 0.949,-3.518C0.524,-3.527 0.358,-3.377 0.208,-3.002C-0.565,-0.998 -1.372,0.982 -2.17,2.978L-3.103,5.316C-0.907,5.44 -1.289,5.431 -0.699,3.893C-0.673,3.826 -0.64,3.768 -0.624,3.71C-0.565,3.369 -0.357,3.278 -0.024,3.286C0.832,3.311 1.681,3.336 2.529,3.278C3.061,3.244 3.261,3.452 3.436,3.926C4.026,5.532 3.718,5.349 5.54,5.357C5.607,5.357 5.673,5.34 5.806,5.332C5.715,5.082 5.648,4.875 5.573,4.683" style="fill:white;fill-rule:nonzero;"/>
                </g>
                <g transform="matrix(1,0,0,1,271.735,77.498)">
                    <path d="M0,1.355L2.953,1.355L2.953,-0.034L-0.008,-0.034L-0.008,-2.388L3.776,-2.388L3.776,-3.718L-1.871,-3.718L-1.871,5.073L3.793,5.073L3.793,3.709L0,3.709L0,1.355Z" style="fill:white;fill-rule:nonzero;"/>
                </g>
                <g transform="matrix(1,0,0,1,280.751,79.0265)">
                    <path d="M0,-1.506C-0.516,-1.706 -1.032,-1.846 -1.539,-2.047C-2.055,-2.246 -2.487,-2.562 -2.346,-3.194C-2.196,-3.819 -1.705,-4.076 -1.106,-4.009C-0.648,-3.959 -0.175,-3.835 0.241,-3.635C0.773,-3.378 1.098,-3.444 1.331,-3.985C1.405,-4.16 1.497,-4.325 1.597,-4.526C0.723,-5.241 -0.283,-5.473 -1.348,-5.399C-2.82,-5.316 -3.917,-4.359 -4.051,-3.153C-4.209,-1.689 -3.602,-0.882 -1.963,-0.367C-1.531,-0.225 -1.09,-0.092 -0.666,0.075C-0.108,0.291 0.125,0.715 0.008,1.306C-0.108,1.871 -0.524,2.187 -1.057,2.162C-1.606,2.137 -2.188,2.029 -2.678,1.796C-3.709,1.289 -3.693,1.247 -4.259,2.221C-4.317,2.304 -4.359,2.403 -4.408,2.495C-3.394,3.535 -1.655,3.967 -0.25,3.535C0.989,3.144 1.73,2.162 1.772,0.831C1.813,-0.258 1.248,-1.015 0,-1.506" style="fill:white;fill-rule:nonzero;"/>
                </g>
                <g transform="matrix(1,0,0,1,247.824,58.9542)">
                    <path d="M0,8.809L1.83,8.809L1.83,1.456L4.417,1.456L4.417,0L-2.629,0L-2.629,1.49L0,1.49L0,8.809Z" style="fill:white;fill-rule:nonzero;"/>
                </g>
                <g transform="matrix(1,0,0,1,0,-923.636)">
                    <rect x="226.869" y="997.41" width="1.747" height="8.816" style="fill:white;"/>
                </g>
                <g transform="matrix(1,0,0,1,0,-923.644)">
                    <rect x="283.971" y="997.426" width="1.772" height="8.792" style="fill:white;"/>
                </g>
            </g>
        </g>
    </g>
</svg>
