<?xml version="1.0" encoding="UTF-8" standalone="no"?>
<!DOCTYPE svg PUBLIC "-//W3C//DTD SVG 1.1//EN" "http://www.w3.org/Graphics/SVG/1.1/DTD/svg11.dtd">
<svg width="100%" height="100%" viewBox="0 0 262 47" version="1.1" xmlns="http://www.w3.org/2000/svg" xmlns:xlink="http://www.w3.org/1999/xlink" xml:space="preserve" xmlns:serif="http://www.serif.com/" style="fill-rule:evenodd;clip-rule:evenodd;stroke-linejoin:round;stroke-miterlimit:2;">
    <g transform="matrix(1,0,0,1,-341,-283.4)">
        <path d="M405.6,330.2C398,330.2 391.8,324 391.8,316.4L391.8,283.5L400.2,283.5L400.2,316.4C400.2,319.4 402.6,321.8 405.6,321.8C408.6,321.8 411,319.4 411,316.4L411,283.5L419.4,283.5L419.4,316.4C419.4,324 413.2,330.2 405.6,330.2" style="fill:rgb(107,70,50);fill-rule:nonzero;"/>
        <path d="M488.2,283.5C495.8,283.5 502,289.7 502,297.3L502,330.2L493.6,330.2L493.6,297.3C493.6,294.3 491.2,291.9 488.2,291.9C485.2,291.9 482.8,294.3 482.8,297.3L482.8,330.2L474.4,330.2L474.4,297.3C474.5,289.6 480.6,283.5 488.2,283.5" style="fill:rgb(107,70,50);fill-rule:nonzero;"/>
        <path d="M387.7,297.2C387.7,289.6 381.5,283.4 373.9,283.4L341,283.4L341,291.8L373.9,291.8C376.9,291.8 379.3,294.2 379.3,297.2C379.3,300.2 376.9,302.6 373.9,302.6L341,302.6L341,311L373.9,311C376.9,311 379.3,313.4 379.3,316.4C379.3,319.4 376.9,321.8 373.9,321.8L341,321.8L341,330.2L373.9,330.2C381.5,330.2 387.7,324 387.7,316.4C387.7,312.7 386.2,309.3 383.8,306.8C386.2,304.3 387.7,301 387.7,297.2" style="fill:rgb(107,70,50);fill-rule:nonzero;"/>
        <path d="M456.5,283.5C452.8,283.5 449.4,285 446.9,287.4C444.4,285 441,283.5 437.3,283.5C429.7,283.5 423.5,289.7 423.5,297.3L423.5,330.2L431.9,330.2L431.9,297.3C431.9,294.3 434.3,291.9 437.3,291.9C440.3,291.9 442.7,294.3 442.7,297.3L442.7,330.2L451.1,330.2L451.1,297.3C451.1,294.3 453.5,291.9 456.5,291.9C459.5,291.9 461.9,294.3 461.9,297.3L461.9,330.2L470.3,330.2L470.3,297.3C470.3,289.6 464.1,283.5 456.5,283.5" style="fill:rgb(107,70,50);fill-rule:nonzero;"/>
        <path d="M515.6,310.5C516,310.5 516.3,310.4 516.6,310.3C516.9,310.2 517.2,310 517.4,309.8C517.6,309.6 517.8,309.3 517.9,308.9C518,308.6 518.1,308.2 518.1,307.7L518.1,300.4L520.9,300.4L520.9,307.7C520.9,308.5 520.8,309.1 520.5,309.8C520.3,310.4 519.9,311 519.5,311.4C519,311.9 518.5,312.2 517.8,312.5C517.1,312.8 516.4,312.9 515.6,312.9C514.8,312.9 514,312.8 513.4,312.5C512.8,312.2 512.2,311.9 511.7,311.4C511.2,310.9 510.9,310.4 510.7,309.8C510.5,309.2 510.3,308.5 510.3,307.7L510.3,300.4L513.1,300.4L513.1,307.7C513.1,308.1 513.2,308.5 513.3,308.9C513.4,309.2 513.6,309.5 513.8,309.8C514,310 514.3,310.2 514.6,310.3C514.9,310.4 515.2,310.5 515.6,310.5" style="fill:rgb(107,70,50);fill-rule:nonzero;"/>
        <path d="M524.6,300.5C524.7,300.5 524.8,300.5 524.8,300.6C524.9,300.6 524.9,300.7 525,300.7C525.1,300.8 525.1,300.8 525.2,300.9L531,308.3L531,300.5L533.5,300.5L533.5,312.8L532,312.8C531.8,312.8 531.6,312.8 531.4,312.7C531.2,312.6 531.1,312.5 531,312.3L525.2,305L525.2,312.8L522.7,312.8L522.7,300.5L524.6,300.5" style="fill:rgb(107,70,50);fill-rule:nonzero;"/>
        <path d="M544.4,300.5L544.4,302.7L540.9,302.7L540.9,312.7L538.1,312.7L538.1,302.7L534.6,302.7L534.6,300.5L544.4,300.5Z" style="fill:rgb(107,70,50);fill-rule:nonzero;"/>
        <path d="M550.7,310.5C551.1,310.5 551.4,310.4 551.7,310.3C552,310.2 552.3,310 552.5,309.8C552.7,309.6 552.9,309.3 553,308.9C553.1,308.6 553.2,308.2 553.2,307.7L553.2,300.4L556,300.4L556,307.7C556,308.5 555.9,309.1 555.6,309.8C555.4,310.4 555,311 554.6,311.4C554.1,311.9 553.6,312.2 552.9,312.5C552.2,312.8 551.5,312.9 550.7,312.9C549.9,312.9 549.1,312.8 548.5,312.5C547.8,312.2 547.3,311.9 546.8,311.4C546.3,310.9 546,310.4 545.8,309.8C545.6,309.2 545.4,308.5 545.4,307.7L545.4,300.4L548.2,300.4L548.2,307.7C548.2,308.1 548.3,308.5 548.4,308.9C548.5,309.2 548.7,309.5 548.9,309.8C549.1,310 549.4,310.2 549.7,310.3C549.9,310.4 550.3,310.5 550.7,310.5" style="fill:rgb(107,70,50);fill-rule:nonzero;"/>
        <path d="M560.6,305.4L561.1,305.4C561.5,305.4 561.8,305.3 562,305L564.8,301C565,300.8 565.1,300.6 565.3,300.6C565.5,300.5 565.7,300.5 566,300.5L568.5,300.5L564.9,305.5C564.8,305.7 564.6,305.8 564.5,305.9C564.4,306 564.2,306.1 564.1,306.2C564.3,306.3 564.5,306.4 564.7,306.5C564.9,306.6 565,306.8 565.2,307.1L568.9,312.8L566,312.8C565.9,312.8 565.8,312.7 565.7,312.7C565.6,312.7 565.5,312.6 565.5,312.5C565.4,312.4 565.4,312.4 565.3,312.3L562.5,308C562.4,307.8 562.3,307.7 562.1,307.7C561.9,307.6 561.7,307.6 561.5,307.6L560.8,307.6L560.8,312.8L558,312.8L558,300.5L560.8,300.5L560.8,305.4L560.6,305.4Z" style="fill:rgb(107,70,50);fill-rule:nonzero;"/>
        <rect x="510.4" y="317.9" width="2.9" height="12.3" style="fill:rgb(107,70,50);"/>
        <path d="M517.3,317.9C517.4,317.9 517.5,317.9 517.5,318C517.6,318 517.6,318.1 517.7,318.1C517.8,318.2 517.8,318.2 517.9,318.3L523.7,325.7C523.7,325.5 523.7,325.2 523.6,325L523.6,317.9L526.1,317.9L526.1,330.2L524.6,330.2C524.4,330.2 524.2,330.2 524,330.1C523.8,330 523.7,329.9 523.6,329.7L517.8,322.4L517.8,330.2L515.3,330.2L515.3,317.9L517.3,317.9" style="fill:rgb(107,70,50);fill-rule:nonzero;"/>
        <path d="M539.3,324C539.3,324.9 539.1,325.7 538.8,326.5C538.5,327.2 538.1,327.9 537.5,328.4C536.9,328.9 536.3,329.4 535.5,329.7C534.7,330 533.8,330.2 532.9,330.2L528.1,330.2L528.1,317.9L532.9,317.9C533.9,317.9 534.7,318.1 535.5,318.4C536.3,318.7 537,319.1 537.5,319.7C538.1,320.2 538.5,320.9 538.8,321.6C539.2,322.3 539.3,323.1 539.3,324M536.4,324C536.4,323.4 536.3,322.8 536.2,322.4C536,321.9 535.8,321.5 535.5,321.2C535.2,320.9 534.8,320.6 534.4,320.4C534,320.2 533.5,320.1 532.9,320.1L531,320.1L531,328L532.9,328C533.4,328 533.9,327.9 534.4,327.7C534.8,327.5 535.2,327.3 535.5,326.9C535.8,326.6 536,326.1 536.2,325.7C536.4,325.2 536.4,324.6 536.4,324" style="fill:rgb(107,70,50);fill-rule:nonzero;"/>
        <path d="M552.8,324C552.8,324.9 552.6,325.7 552.3,326.5C552,327.3 551.6,327.9 551,328.5C550.4,329.1 549.8,329.5 549,329.8C548.2,330.1 547.3,330.3 546.4,330.3C545.4,330.3 544.6,330.1 543.8,329.8C543,329.5 542.3,329 541.8,328.5C541.2,327.9 540.8,327.3 540.5,326.5C540.2,325.7 540,324.9 540,324C540,323.1 540.2,322.3 540.5,321.5C540.8,320.7 541.2,320.1 541.8,319.5C542.4,318.9 543,318.5 543.8,318.2C544.6,317.9 545.5,317.7 546.4,317.7C547.4,317.7 548.2,317.9 549,318.2C549.8,318.5 550.5,319 551,319.5C551.6,320.1 552,320.7 552.3,321.5C552.7,322.3 552.8,323.1 552.8,324M549.9,324C549.9,323.4 549.8,322.8 549.7,322.4C549.5,321.9 549.3,321.5 549,321.2C548.7,320.9 548.3,320.6 547.9,320.4C547.5,320.2 547,320.1 546.4,320.1C545.9,320.1 545.4,320.2 544.9,320.4C544.5,320.6 544.1,320.8 543.8,321.2C543.5,321.5 543.3,321.9 543.1,322.4C542.9,322.9 542.9,323.4 542.9,324C542.9,324.6 543,325.2 543.1,325.6C543.3,326.1 543.5,326.5 543.8,326.8C544.1,327.1 544.5,327.4 544.9,327.6C545.3,327.8 545.8,327.9 546.4,327.9C546.9,327.9 547.4,327.8 547.9,327.6C548.3,327.4 548.7,327.2 549,326.8C549.3,326.5 549.5,326.1 549.7,325.6C549.8,325.2 549.9,324.6 549.9,324" style="fill:rgb(107,70,50);fill-rule:nonzero;"/>
        <path d="M556,317.9C556.1,317.9 556.2,317.9 556.2,318C556.3,318 556.3,318.1 556.4,318.1C556.5,318.2 556.5,318.2 556.6,318.3L562.4,325.7C562.4,325.5 562.4,325.2 562.3,325L562.3,317.9L564.8,317.9L564.8,330.2L563.3,330.2C563.1,330.2 562.9,330.2 562.7,330.1C562.5,330 562.4,329.9 562.3,329.7L556.5,322.4L556.5,330.2L554,330.2L554,317.9L556,317.9" style="fill:rgb(107,70,50);fill-rule:nonzero;"/>
        <path d="M574.8,317.9L574.8,320.1L569.8,320.1L569.8,322.9L573.6,322.9L573.6,325L569.8,325L569.8,328L574.8,328L574.8,330.2L566.9,330.2L566.9,317.9L574.8,317.9Z" style="fill:rgb(107,70,50);fill-rule:nonzero;"/>
        <path d="M583.3,320.4C583.2,320.5 583.1,320.6 583,320.7C582.9,320.8 582.8,320.8 582.6,320.8C582.5,320.8 582.3,320.8 582.2,320.7C582.1,320.6 581.9,320.5 581.7,320.4C581.5,320.3 581.3,320.2 581.1,320.1C580.9,320 580.6,320 580.3,320C579.8,320 579.4,320.1 579.1,320.3C578.8,320.5 578.7,320.8 578.7,321.2C578.7,321.4 578.8,321.7 578.9,321.8C579.1,322 579.3,322.1 579.5,322.2C579.8,322.3 580,322.4 580.4,322.5C580.7,322.6 581.1,322.7 581.4,322.8C581.7,322.9 582.1,323.1 582.4,323.2C582.7,323.4 583,323.6 583.3,323.8C583.6,324.1 583.8,324.4 583.9,324.7C584.1,325.1 584.1,325.5 584.1,326C584.1,326.6 584,327.1 583.8,327.6C583.6,328.1 583.3,328.5 582.9,328.9C582.5,329.3 582.1,329.6 581.5,329.8C581,330 580.3,330.1 579.6,330.1C579.2,330.1 578.8,330.1 578.4,330C578,329.9 577.6,329.8 577.3,329.7C577,329.6 576.6,329.4 576.3,329.2C576,329 575.7,328.8 575.5,328.5L576.3,327.2C576.4,327.1 576.4,327 576.6,327C576.7,326.9 576.8,326.9 577,326.9C577.2,326.9 577.3,327 577.5,327.1C577.7,327.2 577.9,327.3 578.1,327.5C578.3,327.6 578.6,327.7 578.8,327.9C579.1,328 579.4,328.1 579.8,328.1C580.3,328.1 580.7,328 581,327.8C581.3,327.6 581.4,327.2 581.4,326.7C581.4,326.4 581.3,326.2 581.2,326C581,325.8 580.8,325.7 580.6,325.6C580.3,325.5 580.1,325.4 579.7,325.3C579.4,325.2 579,325.1 578.7,325C578.4,324.9 578,324.8 577.7,324.6C577.4,324.4 577.1,324.2 576.8,324C576.5,323.7 576.3,323.4 576.2,323C576,322.6 576,322.1 576,321.6C576,321.1 576.1,320.7 576.3,320.3C576.5,319.9 576.8,319.5 577.1,319.1C577.5,318.8 577.9,318.5 578.4,318.3C578.9,318.1 579.5,318 580.2,318C580.6,318 580.9,318 581.3,318.1C581.7,318.2 582,318.2 582.3,318.4C582.6,318.5 582.9,318.7 583.2,318.8C583.5,319 583.7,319.1 583.9,319.3L583.3,320.4Z" style="fill:rgb(107,70,50);fill-rule:nonzero;"/>
        <rect x="585.8" y="317.9" width="2.9" height="12.3" style="fill:rgb(107,70,50);"/>
        <path d="M602.3,330.2L600.1,330.2C599.9,330.2 599.7,330.1 599.5,330C599.3,329.9 599.2,329.7 599.2,329.6L598.5,327.5L593.8,327.5L593.1,329.6C593,329.8 592.9,329.9 592.8,330C592.6,330.1 592.4,330.2 592.2,330.2L590,330.2L594.7,317.9L597.6,317.9L602.3,330.2ZM594.5,325.5L597.8,325.5L596.7,322.1C596.6,321.9 596.5,321.6 596.4,321.3C596.3,321 596.2,320.7 596.1,320.4C596,320.7 595.9,321.1 595.8,321.4C595.7,321.7 595.6,321.9 595.5,322.2L594.5,325.5Z" style="fill:rgb(107,70,50);fill-rule:nonzero;"/>
    </g>
</svg>
