<svg width="90" height="50" viewBox="0 0 90 50" fill="none" xmlns="http://www.w3.org/2000/svg">
<path d="M20.6675 48.9211C20.5587 49.3563 20.5587 49.3563 20.5225 49.5376C23.4234 49.1387 33.6131 47.7608 35.8613 47.4707L35.9339 47.0718C33.5406 47.2531 22.3718 47.7245 22.0455 47.7608C21.2477 47.797 20.7763 48.4497 20.6675 48.9211Z" fill="white"/>
<path d="M44.3094 42.5088L43.5479 46.0987H44.7445L45.4697 42.5088H44.3094Z" fill="white"/>
<path d="M45.7597 41.1641H44.5993L44.418 42.0706H45.5784L45.7597 41.1641Z" fill="white"/>
<path d="M39.6657 41.1641H37.2362L36.1846 46.0595H37.4537L37.7801 44.4639H38.9042C40.1009 44.4639 41.0437 43.8475 41.0437 42.6145C41.08 41.7805 40.536 41.1641 39.6657 41.1641ZM38.9405 43.4486H38.0339L38.2878 42.2157H39.013C39.4119 42.2157 39.7745 42.2882 39.7745 42.7596C39.7745 43.1585 39.5207 43.4486 38.9405 43.4486Z" fill="white"/>
<path d="M44.0224 42.471C43.9136 42.3984 43.7686 42.3984 43.6235 42.3984C43.1521 42.3984 42.7532 42.6523 42.4994 43.0874L42.6444 42.5072H41.5203L40.7588 46.0609H41.9192L42.2818 44.4291C42.3906 43.8127 42.6444 43.4138 43.2971 43.4138C43.5147 43.4138 43.6598 43.45 43.8411 43.4863L44.0224 42.471Z" fill="white"/>
<path d="M47.5057 42.3984C46.2002 42.3984 45.3662 43.3413 45.3662 44.6104C45.3662 45.662 46.0915 46.1697 47.0705 46.1697C48.376 46.1697 49.1737 45.2269 49.1737 43.9577C49.21 42.9786 48.4848 42.3984 47.5057 42.3984ZM47.1068 45.3357C46.7079 45.3357 46.5266 45.0093 46.5266 44.6104C46.5266 44.139 46.7804 43.305 47.3969 43.305C47.832 43.305 47.9771 43.6314 47.9771 44.0665C48.0134 44.5742 47.7958 45.3357 47.1068 45.3357Z" fill="white"/>
<path d="M52.3554 42.471C52.2466 42.3984 52.1016 42.3984 51.9565 42.3984C51.4851 42.3984 51.0862 42.6523 50.8324 43.0874L50.9774 42.5072H49.8533L49.0918 46.0609H50.2522L50.6148 44.4291C50.7236 43.8127 50.9774 43.4138 51.6301 43.4138C51.8477 43.4138 51.9928 43.45 52.1741 43.4863L52.3554 42.471Z" fill="white"/>
<path d="M60.4491 43.3413C60.4491 42.6523 59.7964 42.3984 58.8173 42.3984C57.947 42.3984 57.2581 42.6885 57.0767 43.5951H58.2009C58.2371 43.2687 58.491 43.1599 58.8536 43.1599C59.2162 43.1599 59.3613 43.305 59.3613 43.4863C59.3613 43.9577 58.8173 43.9214 58.4184 43.9577C57.5119 44.0302 56.6416 44.2115 56.6416 45.1544C56.6416 45.8796 57.1493 46.1697 57.802 46.1697C58.3097 46.1697 58.6723 46.0246 58.8898 45.7345C58.8898 45.9159 58.8898 45.9159 58.9261 46.0609H60.0865C60.0502 45.9884 60.0502 45.9159 60.0502 45.7708C60.0502 45.5895 60.0865 45.3357 60.159 45.1181C60.1953 44.7917 60.4491 43.8127 60.4491 43.3413ZM58.2371 45.4807C57.9833 45.4807 57.7657 45.4082 57.7657 45.1181C57.7657 44.4291 58.8173 44.7192 59.1437 44.4654C59.1074 44.7555 58.9624 45.4807 58.2371 45.4807Z" fill="white"/>
<path d="M62.5143 43.1237C62.6594 43.1237 62.8044 43.1599 62.8769 43.2325C62.9495 43.305 62.9857 43.4138 62.9495 43.5588H64.0011C64.0373 42.6523 63.2758 42.3984 62.5143 42.3984C61.7528 42.3984 60.7738 42.6523 60.7738 43.5951C60.7738 44.2841 61.2452 44.4654 61.7528 44.5742C62.333 44.7192 62.6231 44.7192 62.6231 45.0456C62.6231 45.3357 62.2968 45.4082 62.1155 45.4082C61.9341 45.4082 61.7528 45.3719 61.644 45.2631C61.5715 45.1906 61.499 45.0456 61.499 44.9005H60.4111C60.4474 45.8433 61.0276 46.1697 61.9341 46.1697C62.7682 46.1697 63.7835 45.9884 63.7835 44.8643C63.7835 44.1753 63.4209 44.0302 62.7319 43.8489C62.2968 43.7401 61.9341 43.7039 61.9341 43.45C61.9704 43.2325 62.2605 43.1237 62.5143 43.1237Z" fill="white"/>
<path d="M55.8393 43.2669H56.6009L56.7459 42.5053H56.0207L56.2382 41.4175H55.0778L54.8603 42.5053H54.2801L54.0625 43.2669H54.6427L54.3526 44.5723C54.2801 45.0074 54.2075 45.2613 54.2075 45.5151C54.2075 46.059 54.7877 46.1316 55.3317 46.1316C55.5492 46.1316 55.7668 46.0953 56.0207 46.0953L56.202 45.225C56.0932 45.225 55.9481 45.2613 55.8393 45.2613C55.6218 45.2613 55.4767 45.2613 55.4767 45.08C55.4767 44.9712 55.513 44.8261 55.5493 44.6448L55.8393 43.2669Z" fill="white"/>
<path d="M52.943 41.1641L52.7617 42.0706H53.9221L54.1397 41.1641H52.943Z" fill="white"/>
<path d="M51.9238 46.0987H53.0842L53.8457 42.5088H52.6491L51.9238 46.0987Z" fill="white"/>
<path d="M25.3778 43.4422C25.958 43.2972 26.2843 42.8983 26.2843 42.2818C26.2843 41.5928 25.8854 41.2302 24.8338 41.2302H22.3317L21.3164 46.0893H24.1449C25.2327 46.0893 26.1755 45.6179 26.1755 44.4576C26.103 43.9861 25.8129 43.551 25.3778 43.4422ZM23.9635 44.929H22.9845L23.1658 44.0224H23.9998C24.3262 44.0224 24.58 44.0949 24.58 44.4213C24.6163 44.8202 24.2174 44.929 23.9635 44.929ZM24.2174 43.1159H23.3833L23.5284 42.3906H24.2899C24.5437 42.3906 24.7613 42.4631 24.7613 42.7532C24.7613 43.0071 24.4712 43.1159 24.2174 43.1159Z" fill="white"/>
<path d="M31.1811 41.1973H26.9747L26.6846 42.4664H28.0625L27.301 46.0927H28.824L29.5855 42.4664H30.9272L31.1811 41.1973Z" fill="white"/>
<path d="M34.6959 41.1973L34.1519 43.8807L33.2091 41.1973H31.7224L30.707 46.0927H32.1575L32.7014 43.3367H32.7377L33.6443 46.0927H35.0947L36.1463 41.1973H34.6959Z" fill="white"/>
<path d="M17.0762 41.1973H17.5838L17.4025 42.0676C17.5476 41.8863 17.6926 41.8137 17.9464 41.8137C18.4179 41.8137 18.5992 42.1763 18.5992 42.5752C18.5992 43.1192 18.2728 43.6994 17.6564 43.6994C17.4025 43.6994 17.1849 43.6268 17.0762 43.373L17.0036 43.6631H16.5322L17.0762 41.1973ZM17.1849 42.9741C17.1849 43.1917 17.33 43.3367 17.5476 43.3367C17.9102 43.3367 18.0915 42.9016 18.0915 42.5752C18.0915 42.3577 17.9827 42.1763 17.7289 42.1763C17.33 42.1763 17.1849 42.6478 17.1849 42.9741Z" fill="white"/>
<path d="M19.437 43.9223C19.2556 44.2486 19.1106 44.2849 18.748 44.2849H18.4941L18.5667 43.886C18.6392 43.886 18.7117 43.9223 18.7842 43.9223C19.0018 43.9223 19.0381 43.7772 19.1106 43.6684L18.7842 41.8916H19.2919L19.437 43.1608L20.0534 41.8916H20.5611L19.437 43.9223Z" fill="white"/>
<path d="M53.5289 32.6046L53.9278 32.8947C54.8706 33.5474 56.2485 34.3089 57.5177 34.3089C58.0254 34.3089 58.6418 34.0551 58.7506 33.4749C58.8957 32.6409 57.9891 32.6046 57.4089 32.5321C54.9794 32.1694 52.8036 31.1541 53.275 28.2894C53.8915 24.4456 57.9891 22.9226 61.289 22.9226C62.5944 22.9226 64.0449 23.1039 65.3503 23.5028C66.2569 23.7929 66.692 24.8445 66.2206 25.6785L64.7701 28.1806C64.6251 28.4344 64.7339 28.652 64.7339 28.652C63.8998 27.963 62.5581 27.2378 61.3252 27.2378C60.8538 27.2378 60.2374 27.3828 60.1286 27.9268C60.0198 28.6883 60.8176 28.7245 61.8329 28.9059C64.4438 29.341 66.4382 30.2838 65.9668 33.3661C65.3503 37.3549 61.1076 39.023 57.6265 39.023C55.9222 39.023 54.2904 38.6604 52.7311 38.0802C51.7158 37.7176 51.3169 36.5572 51.8246 35.6143L53.4563 33.2936C53.6739 33.0397 53.5289 32.6046 53.5289 32.6046Z" fill="white"/>
<path d="M26.2885 38.5562C25.382 38.5562 24.548 38.1573 23.9678 37.4683C23.3876 36.7793 23.17 35.8728 23.3513 34.9662L26.7962 16.8714C27.0138 16.1099 26.3611 15.7473 26.3611 15.7473H29.9873C30.8938 15.7473 31.7279 16.1462 32.3081 16.8352C32.8882 17.5242 33.1058 18.4307 32.9245 19.3373L29.5521 37.2507C29.4071 38.5562 30.0961 38.5562 30.0961 38.5562H26.2885Z" fill="white"/>
<path d="M1.34375 38.5562L1.52506 37.5771L5.51389 16.6539C5.62268 16.1462 5.07874 15.7473 5.07874 15.7473H15.9574C18.8221 15.7473 20.9616 16.5451 22.1945 17.9956C23.2823 19.3373 23.6449 21.1866 23.1735 23.5437C22.3395 28.0039 19.0397 30.7961 14.6157 30.7961H9.61151L8.85001 34.6036C8.41486 36.8881 6.42044 38.5562 4.09967 38.5562H1.34375ZM10.4818 26.3359H12.2224C13.1652 26.3359 15.9936 26.3359 16.5013 23.5437C16.6464 22.7459 16.5013 22.1294 16.1024 21.6218C15.4134 20.7877 14.108 20.7152 12.9476 20.7152H11.4971L10.4818 26.3359Z" fill="white"/>
<path d="M40.1414 38.9534C37.2767 38.9534 34.9197 38.0831 33.6868 36.5963C32.744 35.4359 32.4176 33.9129 32.7802 32.0998L33.8681 26.2616C34.1945 24.4485 35.79 23.1431 37.6031 23.1431H41.0843L39.5975 30.9757C39.4887 31.6284 39.2711 32.6075 39.8513 33.2965C40.1777 33.6953 40.6854 33.9129 41.3381 33.9129C43.3688 33.9129 43.6951 32.1361 43.8764 31.2658L44.8193 26.2616C45.1456 24.4485 46.7411 23.1431 48.5542 23.1431H52.6881C52.6881 23.1431 51.9266 23.5057 51.8541 24.0859L50.4036 31.8097C49.4245 37.0677 44.2753 38.9534 40.1414 38.9534Z" fill="white"/>
<path d="M64.0448 15.8524L84.4241 16.0337C85.0769 15.9975 86.201 15.5986 86.7087 14.7646L88.9206 11.8999C89.2107 11.0658 88.9932 10.7395 87.9416 10.6307L69.1941 10.3406C68.4688 10.3043 67.2359 10.4494 66.8007 11.1021L63.5734 13.9306C62.9207 14.9459 63.4646 15.6711 64.0448 15.8524Z" fill="white" stroke="white" stroke-width="0.00347594" stroke-miterlimit="10"/>
<path d="M73.0752 24.6629L78.9134 21.4718C80.0012 20.9642 80.0012 19.55 80.0012 18.9335V1.99909C80.0012 0.947494 79.5661 0.0409412 77.9705 1.09254L72.2411 5.19016C71.6609 5.73409 71.4434 6.16924 71.4434 7.58346V21.9795C71.4434 24.5179 71.4434 25.3519 73.0752 24.6629Z" fill="white" stroke="white" stroke-width="0.00347594" stroke-miterlimit="10"/>
<path d="M63.5734 13.9696L66.8007 11.1411C67.7073 10.4884 68.4325 10.3796 69.194 10.3796L79.6013 10.6697L71.5873 15.8552H64.0448C63.4646 15.6739 62.9207 14.9487 63.5734 13.9696Z" fill="white" stroke="white" stroke-width="0.00347594" stroke-miterlimit="10"/>
<path d="M64.0448 15.8524L84.4241 16.0337C85.0769 15.9975 86.201 15.5986 86.7087 14.7646L88.9206 11.8999C89.2107 11.0658 88.9932 10.7395 87.9416 10.6307L69.1941 10.3406C68.4688 10.3043 67.2359 10.4494 66.8007 11.1021L63.5734 13.9306C62.9207 14.9459 63.4646 15.6711 64.0448 15.8524Z" fill="#1B75BB" stroke="white" stroke-width="0.00347594" stroke-miterlimit="10"/>
<path d="M73.0752 24.6629L78.9134 21.4718C80.0012 20.9642 80.0012 19.55 80.0012 18.9335V1.99909C80.0012 0.947494 79.5661 0.0409412 77.9705 1.09254L72.2411 5.19016C71.6609 5.73409 71.4434 6.16924 71.4434 7.58346V21.9795C71.4434 24.5179 71.4434 25.3519 73.0752 24.6629Z" fill="#EC1C24" stroke="white" stroke-width="0.00347594" stroke-miterlimit="10"/>
<path d="M63.5734 13.9696L66.8007 11.1411C67.7073 10.4884 68.4325 10.3796 69.194 10.3796L79.6013 10.6697L71.5873 15.8552H64.0448C63.4646 15.6739 62.9207 14.9487 63.5734 13.9696Z" fill="#FAAF40" stroke="white" stroke-width="0.00347594" stroke-miterlimit="10"/>
<path d="M79.965 10.5207V1.99909C79.965 0.947494 79.5298 0.0409412 77.9343 1.09254L72.2411 5.19016C71.6609 5.73409 71.4434 6.16924 71.4434 7.58346V10.4119L79.965 10.5207Z" fill="#009345" stroke="white" stroke-width="0.00347594" stroke-miterlimit="10"/>
<g opacity="0.25">
<path opacity="0.25" d="M64.0448 15.8524L84.4241 16.0337C85.0769 15.9975 86.201 15.5986 86.7087 14.7646L88.9206 11.8999C89.2107 11.0658 88.9932 10.7395 87.9416 10.6307L69.1941 10.3406C68.4688 10.3043 67.2359 10.4494 66.8007 11.1021L63.5734 13.9306C62.9207 14.9459 63.4646 15.6711 64.0448 15.8524Z" fill="white" stroke="white" stroke-width="0.00347594" stroke-miterlimit="10"/>
<path opacity="0.25" d="M73.0752 24.6629L78.9134 21.4718C80.0012 20.9642 80.0012 19.55 80.0012 18.9335V1.99909C80.0012 0.947494 79.5661 0.0409412 77.9705 1.09254L72.2411 5.19016C71.6609 5.73409 71.4434 6.16924 71.4434 7.58346V21.9795C71.4434 24.5179 71.4434 25.3519 73.0752 24.6629Z" fill="white" stroke="white" stroke-width="0.00347594" stroke-miterlimit="10"/>
<path opacity="0.25" d="M63.5734 13.9696L66.8007 11.1411C67.7073 10.4884 68.4325 10.3796 69.194 10.3796L79.6013 10.6697L71.5873 15.8552H64.0448C63.4646 15.6739 62.9207 14.9487 63.5734 13.9696Z" fill="white" stroke="white" stroke-width="0.00347594" stroke-miterlimit="10"/>
<g opacity="0.25">
<path opacity="0.25" d="M79.965 10.5207V1.99909C79.965 0.947494 79.5298 0.0409412 77.9343 1.09254L72.2411 5.19016C71.6609 5.73409 71.4434 6.16924 71.4434 7.58346V10.4119L79.965 10.5207Z" fill="white" stroke="white" stroke-width="0.00347594" stroke-miterlimit="10"/>
</g>
</g>
</svg>
