<?xml version="1.0" encoding="UTF-8" standalone="no"?>
<!DOCTYPE svg PUBLIC "-//W3C//DTD SVG 1.1//EN" "http://www.w3.org/Graphics/SVG/1.1/DTD/svg11.dtd">
<svg width="100%" height="100%" viewBox="0 0 346 433" version="1.1" xmlns="http://www.w3.org/2000/svg" xmlns:xlink="http://www.w3.org/1999/xlink" xml:space="preserve" xmlns:serif="http://www.serif.com/" style="fill-rule:evenodd;clip-rule:evenodd;stroke-linejoin:round;stroke-miterlimit:2;">
    <g transform="matrix(1,0,0,1,-86.4417,-393.229)">
        <g transform="matrix(4.16667,0,0,4.16667,0,0)">
            <path d="M81.142,102.104C81.142,106.062 80.325,107.166 79.219,109.827C75.208,109.827 72.029,113.15 69.935,115.516C67.855,117.868 59.073,127.769 58.934,127.921L63.057,120.98C63.996,119.259 64.618,117.47 64.958,115.686C65.24,114.178 65.325,112.667 65.222,111.191C65.19,110.73 65.141,110.279 65.074,109.827C64.622,106.777 63.392,103.897 61.551,101.464C61.551,101.464 66.268,95.592 75.526,95.592C77.578,96.027 81.142,98.074 81.142,102.104Z" style="fill:rgb(107,71,51);fill-rule:nonzero;"/>
        </g>
        <g transform="matrix(4.16667,0,0,4.16667,0,0)">
            <path d="M21.758,196.164L20.746,196.164L20.746,189.918L21.758,189.918L21.758,192.736L22.688,192.663L23.965,189.918L25.122,189.918L23.581,193.055L25.186,196.164L24.01,196.164L22.688,193.556L21.758,193.62L21.758,196.164Z" style="fill:rgb(107,71,51);fill-rule:nonzero;"/>
        </g>
        <g transform="matrix(4.16667,0,0,4.16667,0,0)">
            <path d="M28.495,193.538C28.495,193.088 28.425,192.774 28.282,192.594C28.138,192.415 27.896,192.326 27.556,192.326C27.217,192.326 26.969,192.42 26.813,192.608C26.658,192.797 26.577,193.107 26.573,193.538L28.495,193.538ZM29.042,195.343L29.299,195.316L29.315,196.055C28.623,196.194 28.01,196.264 27.474,196.264C26.8,196.264 26.314,196.079 26.019,195.708C25.725,195.337 25.578,194.745 25.578,193.93C25.578,192.313 26.238,191.505 27.556,191.505C28.832,191.505 29.471,192.201 29.471,193.593L29.407,194.304L26.58,194.304C26.586,194.681 26.669,194.957 26.827,195.134C26.986,195.31 27.281,195.398 27.711,195.398C28.142,195.398 28.586,195.38 29.042,195.343Z" style="fill:rgb(107,71,51);fill-rule:nonzero;"/>
        </g>
        <g transform="matrix(4.16667,0,0,4.16667,0,0)">
            <rect x="30.483" y="189.709" width="0.994" height="6.455" style="fill:rgb(107,71,51);fill-rule:nonzero;"/>
        </g>
        <g transform="matrix(4.16667,0,0,4.16667,0,0)">
            <path d="M35.497,191.605L36.482,191.605L36.482,196.164L35.497,196.164L35.497,195.881C35.054,196.136 34.643,196.264 34.267,196.264C33.641,196.264 33.221,196.095 33.009,195.758C32.795,195.42 32.689,194.829 32.689,193.984L32.689,191.605L33.683,191.605L33.683,193.994C33.683,194.541 33.728,194.909 33.821,195.097C33.911,195.285 34.124,195.379 34.458,195.379C34.786,195.379 35.087,195.319 35.36,195.197L35.497,195.143L35.497,191.605Z" style="fill:rgb(107,71,51);fill-rule:nonzero;"/>
        </g>
        <g transform="matrix(4.16667,0,0,4.16667,0,0)">
            <path d="M39.017,194.14C38.598,194.176 38.388,194.404 38.388,194.824C38.388,195.243 38.573,195.453 38.944,195.453C39.247,195.453 39.57,195.404 39.91,195.307L40.075,195.252L40.075,194.039L39.017,194.14ZM41.059,193.009L41.059,195.088C41.065,195.222 41.1,195.321 41.164,195.384C41.227,195.448 41.326,195.489 41.46,195.507L41.433,196.264C40.91,196.264 40.506,196.152 40.22,195.927C39.734,196.152 39.245,196.264 38.752,196.264C37.847,196.264 37.394,195.781 37.394,194.814C37.394,194.352 37.517,194.018 37.763,193.812C38.009,193.605 38.388,193.48 38.898,193.438L40.075,193.338L40.075,193.009C40.075,192.766 40.021,192.596 39.915,192.499C39.809,192.401 39.652,192.353 39.445,192.353C39.057,192.353 38.57,192.377 37.987,192.426L37.695,192.444L37.658,191.742C38.321,191.584 38.93,191.505 39.486,191.505C40.042,191.505 40.444,191.625 40.69,191.865C40.936,192.105 41.059,192.487 41.059,193.009Z" style="fill:rgb(107,71,51);fill-rule:nonzero;"/>
        </g>
        <g transform="matrix(4.16667,0,0,4.16667,0,0)">
            <path d="M42.308,196.164L42.308,191.605L43.292,191.605L43.292,192.152C43.809,191.818 44.326,191.602 44.843,191.505L44.843,192.499C44.32,192.602 43.873,192.736 43.502,192.9L43.302,192.982L43.302,196.164L42.308,196.164Z" style="fill:rgb(107,71,51);fill-rule:nonzero;"/>
        </g>
        <g transform="matrix(4.16667,0,0,4.16667,0,0)">
            <path d="M46.602,193.716C46.735,193.846 46.952,193.911 47.249,193.911C47.547,193.911 47.761,193.846 47.892,193.716C48.022,193.584 48.088,193.381 48.088,193.1C48.088,192.821 48.021,192.615 47.887,192.486C47.753,192.354 47.538,192.288 47.24,192.288C46.681,192.288 46.401,192.559 46.401,193.1C46.401,193.381 46.469,193.584 46.602,193.716ZM46.328,196.874C46.328,197.088 46.413,197.239 46.583,197.33C46.754,197.423 47.045,197.468 47.459,197.468C48.194,197.468 48.562,197.258 48.562,196.839C48.562,196.601 48.497,196.45 48.366,196.387C48.235,196.323 47.976,196.288 47.586,196.281L46.693,196.227C46.559,196.338 46.465,196.438 46.41,196.532C46.356,196.628 46.328,196.74 46.328,196.874ZM49.556,196.783C49.556,197.781 48.835,198.279 47.395,198.279C46.702,198.279 46.188,198.184 45.854,197.996C45.52,197.807 45.352,197.465 45.352,196.966C45.352,196.74 45.407,196.549 45.517,196.387C45.626,196.225 45.803,196.051 46.046,195.863C45.845,195.729 45.745,195.508 45.745,195.197C45.745,195.075 45.827,194.879 45.991,194.604L46.074,194.468C45.636,194.206 45.416,193.75 45.416,193.1C45.416,192.552 45.581,192.153 45.909,191.897C46.238,191.641 46.681,191.513 47.24,191.513C47.507,191.513 47.772,191.545 48.033,191.605L48.17,191.633L49.583,191.595L49.583,192.399L48.826,192.352C48.991,192.566 49.074,192.815 49.074,193.1C49.074,193.696 48.922,194.108 48.622,194.336C48.322,194.563 47.851,194.677 47.213,194.677C47.055,194.677 46.921,194.665 46.811,194.64C46.727,194.847 46.684,195.008 46.684,195.119C46.684,195.233 46.74,195.309 46.852,195.352C46.965,195.394 47.238,195.42 47.668,195.425C48.392,195.431 48.887,195.529 49.156,195.717C49.422,195.906 49.556,196.26 49.556,196.783Z" style="fill:rgb(107,71,51);fill-rule:nonzero;"/>
        </g>
        <g transform="matrix(4.16667,0,0,4.16667,0,0)">
            <path d="M51.69,194.14C51.271,194.176 51.061,194.404 51.061,194.824C51.061,195.243 51.246,195.453 51.617,195.453C51.92,195.453 52.243,195.404 52.583,195.307L52.748,195.252L52.748,194.039L51.69,194.14ZM53.732,193.009L53.732,195.088C53.738,195.222 53.773,195.321 53.837,195.384C53.9,195.448 53.999,195.489 54.133,195.507L54.106,196.264C53.583,196.264 53.179,196.152 52.893,195.927C52.407,196.152 51.918,196.264 51.425,196.264C50.52,196.264 50.067,195.781 50.067,194.814C50.067,194.352 50.19,194.018 50.436,193.812C50.683,193.605 51.061,193.48 51.571,193.438L52.748,193.338L52.748,193.009C52.748,192.766 52.694,192.596 52.588,192.499C52.482,192.401 52.325,192.353 52.118,192.353C51.73,192.353 51.243,192.377 50.66,192.426L50.368,192.444L50.331,191.742C50.994,191.584 51.604,191.505 52.159,191.505C52.715,191.505 53.117,191.625 53.363,191.865C53.609,192.105 53.732,192.487 53.732,193.009Z" style="fill:rgb(107,71,51);fill-rule:nonzero;"/>
        </g>
        <g transform="matrix(4.16667,0,0,4.16667,0,0)">
            <rect x="57.105" y="189.918" width="1.012" height="6.246" style="fill:rgb(107,71,51);fill-rule:nonzero;"/>
        </g>
        <g transform="matrix(4.16667,0,0,4.16667,0,0)">
            <path d="M60.433,196.164L59.439,196.164L59.439,191.605L60.424,191.605L60.424,191.888C60.868,191.632 61.287,191.505 61.682,191.505C62.29,191.505 62.704,191.676 62.927,192.02C63.148,192.364 63.259,192.931 63.259,193.719L63.259,196.164L62.275,196.164L62.275,193.748C62.275,193.255 62.222,192.906 62.115,192.698C62.009,192.493 61.791,192.389 61.463,192.389C61.153,192.389 60.855,192.449 60.57,192.572L60.433,192.626L60.433,196.164Z" style="fill:rgb(107,71,51);fill-rule:nonzero;"/>
        </g>
        <g transform="matrix(4.16667,0,0,4.16667,0,0)">
            <path d="M66.988,195.216L67.143,195.152L67.143,192.452C66.778,192.392 66.441,192.362 66.131,192.362C65.517,192.362 65.21,192.872 65.21,193.893C65.21,194.452 65.281,194.841 65.424,195.055C65.567,195.271 65.794,195.38 66.104,195.38C66.414,195.38 66.708,195.324 66.988,195.216ZM68.136,189.708L68.136,196.163L67.152,196.163L67.152,195.926C66.708,196.152 66.301,196.263 65.93,196.263C65.335,196.263 64.899,196.084 64.622,195.726C64.345,195.367 64.207,194.765 64.207,193.921C64.207,193.075 64.361,192.463 64.667,192.078C64.974,191.696 65.453,191.505 66.104,191.505C66.322,191.505 66.669,191.545 67.143,191.623L67.143,189.708L68.136,189.708Z" style="fill:rgb(107,71,51);fill-rule:nonzero;"/>
        </g>
        <g transform="matrix(4.16667,0,0,4.16667,0,0)">
            <path d="M70.334,195.06C70.474,195.304 70.747,195.425 71.155,195.425C71.562,195.425 71.835,195.304 71.975,195.06C72.115,194.817 72.185,194.419 72.185,193.866C72.185,193.313 72.11,192.921 71.961,192.689C71.813,192.459 71.543,192.343 71.155,192.343C70.766,192.343 70.497,192.459 70.348,192.689C70.199,192.921 70.125,193.313 70.125,193.866C70.125,194.419 70.194,194.817 70.334,195.06ZM69.591,192.097C69.904,191.702 70.425,191.504 71.155,191.504C71.884,191.504 72.405,191.702 72.718,192.097C73.031,192.492 73.188,193.085 73.188,193.875C73.188,194.665 73.036,195.261 72.732,195.662C72.428,196.063 71.902,196.264 71.155,196.264C70.407,196.264 69.881,196.063 69.577,195.662C69.273,195.261 69.122,194.665 69.122,193.875C69.122,193.085 69.278,192.492 69.591,192.097Z" style="fill:rgb(107,71,51);fill-rule:nonzero;"/>
        </g>
        <g transform="matrix(4.16667,0,0,4.16667,0,0)">
            <path d="M75.166,196.164L74.172,196.164L74.172,191.605L75.157,191.605L75.157,191.888C75.601,191.632 76.02,191.505 76.415,191.505C77.023,191.505 77.437,191.676 77.66,192.02C77.881,192.364 77.992,192.931 77.992,193.719L77.992,196.164L77.009,196.164L77.009,193.748C77.009,193.255 76.954,192.906 76.848,192.698C76.742,192.493 76.524,192.389 76.197,192.389C75.886,192.389 75.588,192.449 75.303,192.572L75.166,192.626L75.166,196.164Z" style="fill:rgb(107,71,51);fill-rule:nonzero;"/>
        </g>
        <g transform="matrix(4.16667,0,0,4.16667,0,0)">
            <path d="M81.849,193.538C81.849,193.088 81.777,192.774 81.635,192.594C81.492,192.415 81.25,192.326 80.91,192.326C80.569,192.326 80.322,192.42 80.167,192.608C80.012,192.797 79.931,193.107 79.925,193.538L81.849,193.538ZM82.396,195.343L82.651,195.316L82.669,196.055C81.976,196.194 81.363,196.264 80.828,196.264C80.153,196.264 79.668,196.079 79.373,195.708C79.078,195.337 78.932,194.745 78.932,193.93C78.932,192.313 79.591,191.505 80.91,191.505C82.186,191.505 82.825,192.201 82.825,193.593L82.761,194.304L79.934,194.304C79.94,194.681 80.022,194.957 80.181,195.134C80.339,195.31 80.633,195.398 81.065,195.398C81.496,195.398 81.94,195.38 82.396,195.343Z" style="fill:rgb(107,71,51);fill-rule:nonzero;"/>
        </g>
        <g transform="matrix(4.16667,0,0,4.16667,0,0)">
            <path d="M86.946,192.544C86.228,192.447 85.709,192.398 85.386,192.398C85.065,192.398 84.842,192.436 84.717,192.512C84.592,192.588 84.53,192.708 84.53,192.872C84.53,193.036 84.597,193.152 84.735,193.219C84.871,193.286 85.194,193.363 85.7,193.451C86.209,193.54 86.569,193.678 86.782,193.866C86.993,194.054 87.101,194.389 87.101,194.869C87.101,195.349 86.947,195.702 86.639,195.927C86.334,196.151 85.885,196.264 85.296,196.264C84.925,196.264 84.457,196.212 83.89,196.108L83.609,196.064L83.645,195.233C84.375,195.331 84.901,195.379 85.221,195.379C85.545,195.379 85.775,195.34 85.91,195.261C86.048,195.182 86.115,195.051 86.115,194.869C86.115,194.687 86.051,194.561 85.92,194.49C85.788,194.421 85.476,194.344 84.981,194.263C84.486,194.18 84.122,194.051 83.89,193.875C83.66,193.699 83.545,193.377 83.545,192.909C83.545,192.44 83.704,192.091 84.024,191.86C84.343,191.629 84.752,191.514 85.25,191.514C85.638,191.514 86.115,191.563 86.681,191.66L86.964,191.714L86.946,192.544Z" style="fill:rgb(107,71,51);fill-rule:nonzero;"/>
        </g>
        <g transform="matrix(4.16667,0,0,4.16667,0,0)">
            <path d="M88.058,191.605L89.052,191.605L89.052,196.164L88.058,196.164L88.058,191.605ZM88.058,189.781L89.052,189.781L89.052,190.83L88.058,190.83L88.058,189.781Z" style="fill:rgb(107,71,51);fill-rule:nonzero;"/>
        </g>
        <g transform="matrix(4.16667,0,0,4.16667,0,0)">
            <path d="M91.586,194.14C91.167,194.176 90.957,194.404 90.957,194.824C90.957,195.243 91.143,195.453 91.513,195.453C91.817,195.453 92.139,195.404 92.48,195.307L92.644,195.252L92.644,194.039L91.586,194.14ZM93.628,193.009L93.628,195.088C93.634,195.222 93.669,195.321 93.733,195.384C93.797,195.448 93.896,195.489 94.03,195.507L94.002,196.264C93.48,196.264 93.075,196.152 92.79,195.927C92.303,196.152 91.814,196.264 91.322,196.264C90.416,196.264 89.963,195.781 89.963,194.814C89.963,194.352 90.086,194.018 90.332,193.812C90.579,193.605 90.957,193.48 91.468,193.438L92.644,193.338L92.644,193.009C92.644,192.766 92.59,192.596 92.484,192.499C92.378,192.401 92.221,192.353 92.015,192.353C91.626,192.353 91.139,192.377 90.556,192.426L90.264,192.444L90.228,191.742C90.89,191.584 91.5,191.505 92.056,191.505C92.612,191.505 93.013,191.625 93.259,191.865C93.505,192.105 93.628,192.487 93.628,193.009Z" style="fill:rgb(107,71,51);fill-rule:nonzero;"/>
        </g>
        <g transform="matrix(4.16667,0,0,4.16667,0,0)">
            <path d="M86.54,147.955L86.398,147.993C86.113,148.069 85.851,148.107 85.61,148.107C85.3,148.107 85.145,147.933 85.145,147.585C85.145,147.237 85.322,147.047 85.677,147.016L86.54,146.94L86.54,147.955ZM87.888,148.055C87.85,147.995 87.825,147.889 87.812,147.737L87.812,145.763C87.812,145.206 87.677,144.801 87.409,144.548C87.14,144.295 86.7,144.169 86.089,144.169C85.479,144.169 84.835,144.26 84.158,144.444L84.196,145.327L85.98,145.25C86.176,145.25 86.319,145.287 86.408,145.36C86.496,145.433 86.54,145.567 86.54,145.763L86.54,146.057L85.525,146.133C84.962,146.171 84.544,146.296 84.272,146.508C84,146.719 83.864,147.079 83.864,147.585C83.864,148.622 84.354,149.141 85.335,149.141C85.81,149.141 86.274,149.031 86.73,148.809C86.926,148.942 87.121,149.031 87.313,149.075C87.507,149.119 87.765,149.141 88.087,149.141L88.125,148.183C88.005,148.157 87.926,148.114 87.888,148.055Z" style="fill:rgb(107,71,51);fill-rule:nonzero;"/>
        </g>
        <g transform="matrix(4.16667,0,0,4.16667,0,0)">
            <path d="M83.351,145.364L82.184,145.364L82.184,147.309C82.184,147.499 82.188,147.635 82.199,147.714L82.303,147.917C82.363,147.973 82.455,148.002 82.582,148.002L83.304,147.983L83.36,148.998C82.936,149.093 82.614,149.14 82.393,149.14C81.824,149.14 81.434,149.012 81.225,148.757C81.017,148.5 80.912,148.028 80.912,147.339L80.912,145.364L80.352,145.364L80.352,144.282L80.912,144.282L80.912,142.964L82.184,142.964L82.184,144.282L83.351,144.282L83.351,145.364Z" style="fill:rgb(107,71,51);fill-rule:nonzero;"/>
        </g>
        <g transform="matrix(4.16667,0,0,4.16667,0,0)">
            <path d="M90.298,149.027L89.026,149.027L89.026,142.384L90.298,142.384L90.298,144.51C90.735,144.282 91.126,144.169 91.473,144.169C92.107,144.169 92.544,144.355 92.783,144.729C93.025,145.102 93.145,145.677 93.145,146.456L93.145,149.027L91.872,149.027L91.872,146.484C91.872,146.086 91.824,145.79 91.731,145.597C91.636,145.404 91.446,145.307 91.16,145.307C90.914,145.307 90.668,145.345 90.421,145.421L90.298,145.459L90.298,149.027Z" style="fill:rgb(107,71,51);fill-rule:nonzero;"/>
        </g>
        <g transform="matrix(4.16667,0,0,4.16667,0,0)">
            <path d="M97.073,144.282L98.344,144.282L98.344,149.028L97.082,149.028L97.082,148.761C96.627,149.014 96.232,149.14 95.896,149.14C95.238,149.14 94.795,148.959 94.568,148.595C94.34,148.231 94.226,147.622 94.226,146.768L94.226,144.282L95.497,144.282L95.497,146.787C95.497,147.257 95.535,147.575 95.612,147.746C95.687,147.917 95.871,148.002 96.162,148.002C96.44,148.002 96.703,147.958 96.949,147.869L97.073,147.831L97.073,144.282Z" style="fill:rgb(107,71,51);fill-rule:nonzero;"/>
        </g>
        <g transform="matrix(4.16667,0,0,4.16667,0,0)">
            <path d="M100.794,149.027L99.521,149.027L99.521,144.282L100.784,144.282L100.784,144.548C101.214,144.295 101.61,144.169 101.969,144.169C102.603,144.169 103.04,144.355 103.28,144.729C103.52,145.102 103.641,145.677 103.641,146.456L103.641,149.027L102.368,149.027L102.368,146.493C102.368,146.089 102.321,145.79 102.227,145.597C102.132,145.404 101.942,145.307 101.656,145.307C101.398,145.307 101.148,145.352 100.907,145.44L100.794,145.478L100.794,149.027Z" style="fill:rgb(107,71,51);fill-rule:nonzero;"/>
        </g>
        <g transform="matrix(4.16667,0,0,4.16667,0,0)">
            <path d="M51.487,109.83L28.583,109.83C24.316,109.83 20.857,106.371 20.857,102.103C20.857,99.971 21.722,98.039 23.119,96.639C24.519,95.242 26.451,94.377 28.583,94.377L47.222,94.377C47.222,94.377 56.895,100.098 51.487,109.83Z" style="fill:rgb(107,71,51);fill-rule:nonzero;"/>
        </g>
        <g transform="matrix(4.16667,0,0,4.16667,0,0)">
            <path d="M93.918,161.385C93.918,165.652 90.46,169.11 86.193,169.11L68.854,169.11C68.854,169.11 64.474,167.94 64.474,163.245C64.474,159.818 66.542,156.371 68.433,153.658L86.193,153.658C88.325,153.658 90.256,154.523 91.656,155.92C93.053,157.321 93.918,159.251 93.918,161.385Z" style="fill:rgb(107,71,51);fill-rule:nonzero;"/>
        </g>
        <g transform="matrix(4.16667,0,0,4.16667,0,0)">
            <path d="M64.956,115.686C64.62,117.471 63.998,119.258 63.058,120.983L58.936,127.923L58.935,127.924L37.264,164.402C37.132,164.645 36.99,164.877 36.841,165.099C34.366,168.734 29.34,169.722 25.648,167.151C23.431,165.607 22.218,163.122 22.218,160.577C22.218,159.256 22.545,157.922 23.227,156.693L51.487,109.828C56.896,100.097 47.223,94.375 47.223,94.375C53.266,94.375 58.337,97.235 61.548,101.466C63.394,103.896 64.625,106.779 65.074,109.828C65.14,110.278 65.19,110.732 65.221,111.19C65.325,112.668 65.24,114.176 64.956,115.686Z" style="fill:rgb(107,71,51);fill-rule:nonzero;"/>
        </g>
        <g transform="matrix(4.16667,0,0,4.16667,0,0)">
            <path d="M93.383,113.302C93.383,117.421 91.469,120.883 87.617,126.369C81.075,135.694 74.076,145.667 70.343,150.989C69.805,151.753 69.131,152.656 68.433,153.658C66.542,156.368 64.475,159.817 64.475,163.247C64.475,167.942 68.854,169.11 68.854,169.11L59.485,169.11C55.558,169.11 51.958,166.963 50.093,163.502C48.228,160.04 48.34,155.809 50.575,152.576C56.873,143.467 74.878,117.407 76.929,114.273C77.721,113.065 78.527,111.5 79.219,109.827C80.324,107.166 81.142,106.062 81.142,102.104C81.142,98.074 77.579,96.028 75.526,95.593C75.526,95.593 93.383,96.348 93.383,113.302Z" style="fill:rgb(107,71,51);fill-rule:nonzero;"/>
        </g>
        <g transform="matrix(4.16667,0,0,4.16667,0,0)">
            <path d="M58.936,127.923L58.935,127.924L58.936,127.923Z" style="fill:rgb(107,71,51);fill-rule:nonzero;"/>
        </g>
        <g transform="matrix(4.16667,0,0,4.16667,0,0)">
            <clipPath id="_clip1">
                <rect x="64.474" y="153.654" width="29.445" height="15.46"/>
            </clipPath>
            <g clip-path="url(#_clip1)">
                <path d="M86.193,169.11L68.854,169.11C68.854,169.11 65.41,168.19 64.63,164.708C64.531,164.264 64.475,163.778 64.475,163.247C64.475,162.168 64.679,161.088 65.018,160.029C65.758,157.723 67.137,155.518 68.433,153.658L86.193,153.658C88.325,153.658 90.256,154.523 91.656,155.92C93.053,157.321 93.918,159.251 93.918,161.385C93.918,165.652 90.46,169.11 86.193,169.11Z" style="fill:rgb(80,47,32);fill-rule:nonzero;"/>
                <path d="M64.63,164.708C64.531,164.263 64.474,163.777 64.474,163.245C64.474,162.167 64.679,161.088 65.018,160.029C64.679,161.088 64.475,162.168 64.475,163.247C64.475,163.778 64.531,164.264 64.63,164.708Z" style="fill:rgb(80,47,32);fill-rule:nonzero;"/>
            </g>
        </g>
        <g transform="matrix(4.16667,0,0,4.16667,0,0)">
            <path d="M24.167,182.406L22.598,182.406L22.598,184.474L24.167,184.474C24.541,184.474 24.816,184.399 24.995,184.249C25.174,184.1 25.263,183.826 25.263,183.427C25.263,182.746 24.897,182.406 24.167,182.406ZM24.117,178.944L22.598,178.944L22.598,180.961L24.13,180.961C24.777,180.961 25.101,180.625 25.101,179.952C25.101,179.28 24.773,178.944 24.117,178.944ZM20.878,177.473L24.204,177.473C25.084,177.473 25.745,177.65 26.185,178.003C26.625,178.356 26.845,178.927 26.845,179.716C26.845,180.189 26.774,180.565 26.633,180.843C26.492,181.121 26.251,181.368 25.911,181.584C26.285,181.741 26.561,181.97 26.739,182.269C26.917,182.569 27.007,182.983 27.007,183.514C27.007,184.337 26.766,184.947 26.285,185.345C25.803,185.744 25.126,185.945 24.254,185.945L20.878,185.945L20.878,177.473Z" style="fill:rgb(107,71,51);fill-rule:nonzero;"/>
        </g>
        <g transform="matrix(4.16667,0,0,4.16667,0,0)">
            <path d="M27.704,178.993L27.704,177.473L33.932,177.473L33.932,178.993L31.69,178.993L31.69,185.944L29.971,185.944L29.971,178.993L27.704,178.993Z" style="fill:rgb(107,71,51);fill-rule:nonzero;"/>
        </g>
        <g transform="matrix(4.16667,0,0,4.16667,0,0)">
            <path d="M35.016,185.944L35.016,177.473L37.919,177.473L39.962,184.449L40.086,184.449L40.086,177.473L41.805,177.473L41.805,185.944L38.977,185.944L36.86,178.968L36.735,178.968L36.735,185.944L35.016,185.944Z" style="fill:rgb(107,71,51);fill-rule:nonzero;"/>
        </g>
        <g transform="matrix(4.16667,0,0,4.16667,0,0)">
            <path d="M46.388,185.944L46.388,177.473L49.316,177.473L50.81,183.652L52.305,177.473L55.233,177.473L55.233,185.944L53.513,185.944L53.513,179.392L53.326,179.392L51.671,185.57L49.951,185.57L48.295,179.392L48.108,179.392L48.108,185.944L46.388,185.944Z" style="fill:rgb(107,71,51);fill-rule:nonzero;"/>
        </g>
        <g transform="matrix(4.16667,0,0,4.16667,0,0)">
            <path d="M60.365,182.269C60.365,181.771 60.286,181.424 60.128,181.229C59.97,181.034 59.694,180.936 59.3,180.936C58.905,180.936 58.627,181.038 58.465,181.242C58.303,181.445 58.218,181.788 58.21,182.269L60.365,182.269ZM58.528,184.368C58.722,184.538 59.003,184.623 59.368,184.623C60.14,184.623 60.83,184.599 61.436,184.549L61.785,184.511L61.81,185.745C60.855,185.977 59.991,186.093 59.219,186.093C58.281,186.093 57.599,185.844 57.176,185.346C56.752,184.848 56.541,184.038 56.541,182.917C56.541,180.683 57.458,179.566 59.293,179.566C61.104,179.566 62.009,180.504 62.009,182.381L61.885,183.54L58.222,183.54C58.231,183.922 58.332,184.198 58.528,184.368Z" style="fill:rgb(107,71,51);fill-rule:nonzero;"/>
        </g>
        <g transform="matrix(4.16667,0,0,4.16667,0,0)">
            <rect x="63.28" y="177.224" width="1.669" height="8.72" style="fill:rgb(107,71,51);fill-rule:nonzero;"/>
        </g>
        <g transform="matrix(4.16667,0,0,4.16667,0,0)">
            <path d="M68.536,183.303C68.071,183.345 67.839,183.594 67.839,184.051C67.839,184.508 68.042,184.735 68.449,184.735C68.765,184.735 69.109,184.685 69.483,184.586L69.67,184.536L69.67,183.203L68.536,183.303ZM71.339,181.658L71.339,184.249C71.355,184.449 71.389,184.588 71.438,184.667C71.488,184.746 71.592,184.802 71.75,184.835L71.7,186.093C71.277,186.093 70.938,186.064 70.685,186.006C70.432,185.948 70.176,185.831 69.919,185.657C69.321,185.948 68.71,186.093 68.088,186.093C66.8,186.093 66.157,185.412 66.157,184.051C66.157,183.386 66.335,182.915 66.693,182.636C67.05,182.358 67.598,182.195 68.337,182.144L69.67,182.045L69.67,181.658C69.67,181.401 69.612,181.225 69.495,181.129C69.379,181.034 69.192,180.987 68.935,180.987L66.593,181.086L66.543,179.927C67.432,179.686 68.277,179.566 69.078,179.566C69.879,179.566 70.456,179.732 70.809,180.064C71.162,180.396 71.339,180.928 71.339,181.658Z" style="fill:rgb(107,71,51);fill-rule:nonzero;"/>
        </g>
        <g transform="matrix(4.16667,0,0,4.16667,0,0)">
            <path d="M72.273,179.716L73.917,179.716L75.051,184.525L75.337,184.525L76.471,179.716L78.115,179.716L75.922,188.559L74.291,188.559L74.976,185.945L73.805,185.945L72.273,179.716Z" style="fill:rgb(107,71,51);fill-rule:nonzero;"/>
        </g>
        <g transform="matrix(4.16667,0,0,4.16667,0,0)">
            <path d="M80.943,183.303C80.478,183.345 80.246,183.594 80.246,184.051C80.246,184.508 80.449,184.735 80.856,184.735C81.172,184.735 81.516,184.685 81.89,184.586L82.077,184.536L82.077,183.203L80.943,183.303ZM83.746,181.658L83.746,184.249C83.762,184.449 83.796,184.588 83.844,184.667C83.895,184.746 83.999,184.802 84.157,184.835L84.107,186.093C83.684,186.093 83.344,186.064 83.092,186.006C82.839,185.948 82.583,185.831 82.326,185.657C81.728,185.948 81.117,186.093 80.495,186.093C79.207,186.093 78.564,185.412 78.564,184.051C78.564,183.386 78.742,182.915 79.1,182.636C79.457,182.358 80.005,182.195 80.744,182.144L82.077,182.045L82.077,181.658C82.077,181.401 82.019,181.225 81.902,181.129C81.786,181.034 81.599,180.987 81.342,180.987L79,181.086L78.95,179.927C79.839,179.686 80.684,179.566 81.485,179.566C82.286,179.566 82.863,179.732 83.216,180.064C83.569,180.396 83.746,180.928 83.746,181.658Z" style="fill:rgb(107,71,51);fill-rule:nonzero;"/>
        </g>
        <g transform="matrix(4.16667,0,0,4.16667,0,0)">
            <path d="M87.009,185.944L85.34,185.944L85.34,179.715L86.996,179.715L86.996,180.065C87.561,179.732 88.08,179.566 88.553,179.566C89.384,179.566 89.957,179.811 90.272,180.301C90.588,180.791 90.746,181.547 90.746,182.568L90.746,185.944L89.076,185.944L89.076,182.618C89.076,182.087 89.014,181.694 88.89,181.441C88.765,181.188 88.516,181.061 88.142,181.061C87.802,181.061 87.474,181.119 87.158,181.236L87.009,181.285L87.009,185.944Z" style="fill:rgb(107,71,51);fill-rule:nonzero;"/>
        </g>
        <g transform="matrix(4.16667,0,0,4.16667,0,0)">
            <path d="M92.228,179.715L93.897,179.715L93.897,185.944L92.228,185.944L92.228,179.715ZM92.228,177.224L93.897,177.224L93.897,178.918L92.228,178.918L92.228,177.224Z" style="fill:rgb(107,71,51);fill-rule:nonzero;"/>
        </g>
        <g transform="matrix(4.16667,0,0,4.16667,0,0)">
            <clipPath id="_clip2">
                <rect x="58.934" y="95.594" width="22.209" height="32.33"/>
            </clipPath>
            <g clip-path="url(#_clip2)">
                <path d="M58.942,127.913L63.058,120.983C63.745,119.723 64.261,118.43 64.621,117.128C64.754,116.648 64.867,116.167 64.958,115.686C65.163,114.59 65.264,113.493 65.265,112.409C65.265,112.001 65.251,111.595 65.222,111.191C65.19,110.73 65.141,110.279 65.074,109.827C65.031,109.534 64.981,109.243 64.923,108.954C64.579,107.218 63.981,105.547 63.161,103.995C62.694,103.11 62.155,102.263 61.551,101.464C61.551,101.464 66.168,95.718 75.23,95.594L75.53,95.594C76.884,95.882 78.891,96.869 80.102,98.661C80.729,99.589 81.142,100.732 81.142,102.104C81.142,106.062 80.324,107.166 79.219,109.827C75.208,109.827 72.029,113.15 69.935,115.516C67.878,117.842 59.266,127.553 58.942,127.913Z" style="fill:rgb(74,42,28);fill-rule:nonzero;"/>
                <path d="M58.934,127.921L63.057,120.98C63.743,119.723 64.26,118.429 64.621,117.128C64.261,118.43 63.745,119.723 63.058,120.983L58.942,127.913C58.938,127.917 58.936,127.919 58.934,127.921ZM64.923,108.954C64.578,107.218 63.979,105.547 63.161,103.995C63.981,105.547 64.579,107.218 64.923,108.954Z" style="fill:rgb(74,42,28);fill-rule:nonzero;"/>
                <path d="M79.219,109.827C80.324,107.166 81.142,106.062 81.142,102.104C81.142,106.062 80.325,107.166 79.219,109.827ZM80.102,98.661C78.891,96.869 76.884,95.882 75.53,95.594L75.535,95.594C76.888,95.883 78.892,96.87 80.102,98.661Z" style="fill:rgb(74,42,28);fill-rule:nonzero;"/>
            </g>
        </g>
    </g>
</svg>
