<?xml version="1.0" encoding="UTF-8" standalone="no"?>
<!DOCTYPE svg PUBLIC "-//W3C//DTD SVG 1.1//EN" "http://www.w3.org/Graphics/SVG/1.1/DTD/svg11.dtd">
<svg width="100%" height="100%" viewBox="0 0 237 281" version="1.1" xmlns="http://www.w3.org/2000/svg" xmlns:xlink="http://www.w3.org/1999/xlink" xml:space="preserve" xmlns:serif="http://www.serif.com/" style="fill-rule:evenodd;clip-rule:evenodd;stroke-linejoin:round;stroke-miterlimit:2;">
    <g transform="matrix(1,0,0,1,-1653.19,-627.085)">
        <g transform="matrix(-1,0,0,1,3230.59,0)">
            <path d="M1359.8,851.89C1358.7,848.79 1357.3,846.59 1356.2,845.29C1355.9,844.99 1355.7,844.69 1355.4,844.39L1354.3,843.29C1354.3,843.29 1354.4,843.49 1354.6,843.89C1354.7,844.09 1354.8,844.29 1355,844.59C1355.1,844.89 1355.3,845.19 1355.5,845.59C1356.2,847.19 1356.9,849.49 1357.2,852.39C1357.5,855.29 1357.5,858.79 1356.8,862.59C1356.1,866.39 1354.8,870.39 1353.3,874.69C1351.7,878.99 1350,883.09 1348.7,886.99C1347.4,890.89 1346.4,894.59 1345.9,897.69C1345.4,900.79 1345.3,903.39 1345.4,905.09C1345.4,905.99 1345.5,906.69 1345.6,907.09C1345.7,907.59 1345.7,907.79 1345.7,907.79C1345.7,907.79 1345.8,907.59 1345.9,907.09C1346,906.69 1346.1,905.99 1346.4,905.19C1346.8,903.49 1347.6,901.19 1348.7,898.39C1349.8,895.59 1351.3,892.39 1353.1,888.69C1354.8,885.09 1356.8,881.09 1358.5,876.59C1360.2,872.09 1361.3,867.49 1361.5,863.09C1361.5,858.89 1360.8,854.99 1359.8,851.89ZM1433.2,868.29C1426.8,869.39 1415.2,863.99 1402.3,861.49C1389.4,858.99 1387.6,866.89 1387.6,866.89C1387.6,866.89 1387.3,864.79 1379.8,856.39C1373.9,849.89 1372.9,839.29 1372.4,834.79C1372.3,833.49 1371.6,832.19 1371.6,832.19C1371.6,849.59 1372.3,858.89 1378.8,864.99C1385.2,871.09 1387.7,880.39 1387.7,880.39C1387.7,880.39 1388.1,878.59 1392.1,874.09C1396.1,869.59 1405.7,872.49 1422.9,873.89C1440.1,875.29 1439.7,867.09 1439.7,867.09L1433.2,868.29ZM1461.9,860.39C1447.7,857.99 1446.1,851.49 1439.5,845.39C1433,839.19 1426.2,837.29 1411.4,827.39C1396.6,817.49 1393.1,818.49 1386.9,809.89C1380.7,801.29 1382.6,784.69 1380.7,771.59C1378.7,758.49 1381.3,740.39 1380.8,737.79C1380.3,735.19 1382.9,726.99 1382.7,725.59C1382.4,724.19 1387,710.59 1387,710.59C1375.7,719.69 1366.9,740.39 1364.8,751.99C1362.7,763.49 1374.7,773.19 1376.1,790.79C1377.4,808.29 1374,820.49 1383.1,827.99C1392.2,835.49 1402.7,835.79 1411.6,837.69C1420.5,839.59 1417,850.29 1426.7,852.19C1436.5,854.09 1444.1,863.19 1447.3,868.29C1450.5,873.39 1467.2,869.59 1472.7,868.29C1478.2,866.99 1484.4,856.49 1484.4,856.49C1484.4,856.49 1476.2,862.79 1461.9,860.39ZM1458.69,816.447C1458.76,816.432 1458.83,816.414 1458.9,816.39L1458.69,816.446L1458.68,816.447L1458.89,816.392L1458.9,816.39C1458.9,816.391 1458.9,816.391 1458.89,816.391L1458.89,816.392C1458.84,816.405 1458.77,816.423 1458.69,816.446L1458.69,816.447C1455.87,817.003 1448,811.69 1448,811.69C1448,811.69 1442.2,814.69 1434.7,813.49C1427.2,812.29 1429.4,807.69 1429.4,807.69L1430.9,805.39C1430.9,805.39 1425.3,808.19 1425,813.49C1424.7,818.69 1432.4,821.19 1432.4,821.19C1432.4,821.19 1430.9,825.49 1434.6,828.99C1438.4,832.49 1441.6,828.69 1441.6,828.69C1441.6,828.69 1441.5,829.79 1445.3,836.19C1449.1,842.59 1453.1,836.19 1453.1,836.19C1453.2,836.69 1455.5,845.59 1462,848.69C1468.7,851.89 1479.7,851.49 1481.7,852.89C1482.7,853.59 1483.6,854.39 1484.4,854.99C1484.5,855.09 1484.6,855.19 1484.7,855.29C1484.8,855.19 1484.9,855.09 1485,854.99C1485.7,854.29 1486.7,853.49 1487.7,852.89C1489.8,851.49 1500.8,851.89 1507.5,848.69C1514,845.59 1516.3,836.79 1516.4,836.19C1516.1,836.59 1512.6,842.39 1506,843.89C1499.8,845.29 1487.3,845.49 1484.8,845.49C1482.7,845.49 1469.8,845.39 1463.5,843.89C1456.9,842.39 1453.4,836.59 1453.1,836.19C1453.1,836.19 1449.3,831.59 1450.8,824.69C1452.2,818.608 1457.37,816.816 1458.69,816.447ZM1348.3,811.59C1349.6,807.39 1351.2,803.39 1352.4,799.49C1353.6,795.59 1354.2,791.79 1354,788.59C1353.8,785.39 1352.8,782.89 1351.9,781.49C1351.5,780.69 1351.1,780.19 1350.8,779.89C1350.5,779.59 1350.4,779.39 1350.4,779.39C1350.4,779.39 1350.5,779.59 1350.6,779.99C1350.8,780.39 1351,780.99 1351.2,781.79C1351.6,783.39 1351.8,785.79 1351.4,788.49C1351,791.29 1349.9,794.49 1348.3,797.99C1346.7,801.49 1344.8,805.49 1343.3,809.99C1341.8,814.49 1341,819.09 1341.3,823.39C1341.5,827.69 1342.7,831.39 1344.3,834.19C1345.9,836.99 1347.7,838.79 1349,839.89C1349.7,840.39 1350.2,840.79 1350.6,841.09C1351,841.29 1351.2,841.49 1351.2,841.49C1351.2,841.49 1351.1,841.29 1350.8,840.99C1350.5,840.69 1350.1,840.09 1349.7,839.39C1348.8,837.99 1347.6,835.89 1346.8,833.19C1346,830.49 1345.5,827.09 1345.8,823.49C1346,819.69 1346.9,815.79 1348.3,811.59ZM1367.6,808.79C1368.7,800.89 1370.5,797.29 1367.6,787.69C1364.7,777.99 1361.9,777.69 1359,771.59C1356.1,765.49 1360.1,762.59 1353.3,757.69C1353.3,757.69 1353.7,762.99 1353.3,769.09C1352.9,775.19 1359.7,781.99 1363,790.69C1366.2,799.39 1360.5,805.99 1359.4,813.59C1358.3,821.19 1369.9,826.39 1369.9,826.39C1369.9,826.39 1366.6,816.69 1367.6,808.79ZM1461.28,751.418L1461.3,752.89C1461.26,752.411 1461.25,751.916 1461.28,751.418L1461.28,751.416L1453.7,746.69C1453.7,746.69 1452.5,749.89 1453.7,755.19C1454.9,760.39 1465.4,766.99 1472.7,768.59C1480,770.19 1484,778.49 1484,778.49L1484,791.09L1461.3,813.49L1463.8,812.69C1464,812.69 1470,806.79 1474.3,803.39L1484.8,801.29L1495.3,803.39C1499.6,806.89 1505.6,812.79 1505.6,812.79L1508.1,813.59L1485.5,791.09L1485.5,778.49C1485.5,778.49 1489.5,770.19 1496.8,768.59C1504.1,766.99 1514.6,760.39 1515.8,755.19C1517,749.99 1515.8,746.69 1515.8,746.69L1508.36,751.328C1508.25,749.393 1507.36,747.343 1504.7,746.09C1498.3,743.09 1492.8,747.89 1488.7,748.79C1487,749.19 1485.7,749.29 1484.9,749.19L1484.7,749.19C1483.8,749.29 1482.6,749.19 1480.9,748.79C1476.8,747.89 1471.3,743.09 1464.9,746.09C1462.26,747.371 1461.41,749.42 1461.28,751.418ZM1427.3,747.59C1427.3,747.59 1418,755.29 1414.2,765.09C1410.4,774.89 1401.7,779.09 1401.7,779.09C1395.8,776.09 1395.3,760.99 1397.2,753.69C1399.2,746.39 1397.2,743.69 1395.4,733.59C1393.6,723.59 1397.9,711.79 1397.9,711.79C1397.9,711.79 1395.8,713.49 1391.1,719.29C1386.4,724.99 1387.3,736.99 1389,745.29C1390.6,753.49 1387.7,756.19 1387.7,765.89C1387.7,775.59 1398.4,784.19 1398.4,784.19C1398.4,784.19 1399.4,786.19 1398.5,793.89C1397.6,801.59 1403.9,812.29 1412.2,811.79C1420.5,811.29 1423.7,805.69 1423.7,805.69C1413.7,806.59 1409,803.89 1407.2,796.19C1405.4,788.49 1415.4,780.99 1415.4,780.99C1415.4,780.99 1415.8,782.79 1417.1,787.59C1418.5,792.39 1423.6,795.29 1423.6,795.29C1423.6,795.29 1419.1,787.99 1420,780.19C1420.9,772.39 1422.1,773.09 1422.1,773.09C1422.1,773.09 1421.9,772.39 1420.5,769.19C1419.1,765.99 1420.7,762.39 1423.2,756.99C1425.8,751.49 1427.3,747.59 1427.3,747.59ZM1454.2,803.09C1453.5,803.49 1453.3,804.29 1453.7,804.99C1454.1,805.69 1454.9,805.89 1455.6,805.49C1456.3,805.09 1456.5,804.29 1456.1,803.59C1455.7,802.89 1454.8,802.69 1454.2,803.09ZM1439.4,803.09C1440.4,802.49 1440.8,801.19 1440.2,800.19C1439.6,799.19 1438.3,798.79 1437.3,799.39C1436.3,799.99 1435.9,801.29 1436.5,802.29C1437.1,803.29 1438.4,803.69 1439.4,803.09ZM1460.7,801.49C1461.4,801.09 1461.6,800.29 1461.2,799.59C1460.8,798.89 1460,798.69 1459.3,799.09C1458.6,799.49 1458.4,800.29 1458.8,800.99C1459.2,801.59 1460.1,801.79 1460.7,801.49ZM1445.5,799.59C1446.4,799.09 1446.7,797.99 1446.2,797.09C1445.7,796.19 1444.6,795.89 1443.7,796.39C1442.8,796.89 1442.5,797.99 1443,798.89C1443.5,799.79 1444.6,800.09 1445.5,799.59ZM1464.1,796.39C1464.1,796.89 1464.5,797.29 1465,797.29C1465.5,797.29 1465.9,796.89 1465.9,796.39C1465.9,795.89 1465.5,795.49 1465,795.49C1464.5,795.49 1464.1,795.89 1464.1,796.39ZM1451.8,796.79C1452.7,796.29 1453,795.19 1452.5,794.29C1452,793.39 1450.9,793.09 1450,793.59C1449.1,794.09 1448.8,795.19 1449.3,796.09C1449.9,796.99 1451,797.29 1451.8,796.79ZM1469.1,794.49C1469.5,794.49 1469.8,794.19 1469.8,793.79C1469.8,793.39 1469.5,793.09 1469.1,793.09C1468.7,793.09 1468.4,793.39 1468.4,793.79C1468.4,794.19 1468.7,794.49 1469.1,794.49ZM1456.4,791.49C1455.7,791.89 1455.5,792.69 1455.9,793.39C1456.3,794.09 1457.1,794.29 1457.8,793.89C1458.5,793.49 1458.7,792.69 1458.3,791.99C1458,791.39 1457.1,791.09 1456.4,791.49ZM1462.1,791.49C1462.8,791.09 1463,790.29 1462.6,789.59C1462.2,788.89 1461.4,788.69 1460.7,789.09C1460,789.49 1459.8,790.29 1460.2,790.99C1460.6,791.59 1461.5,791.79 1462.1,791.49ZM1433.4,791.29C1434.8,791.19 1435.8,789.99 1435.7,788.59C1435.6,787.19 1434.4,786.19 1433,786.29C1431.6,786.39 1430.6,787.59 1430.7,788.99C1430.8,790.29 1432,791.39 1433.4,791.29ZM1443.4,786.19C1443.3,784.39 1441.7,782.99 1439.9,783.09C1438.1,783.19 1436.7,784.79 1436.8,786.59C1436.9,788.39 1438.5,789.79 1440.3,789.69C1442.1,789.59 1443.5,787.99 1443.4,786.19ZM1466.4,786.79C1466.4,787.29 1466.8,787.69 1467.3,787.69C1467.8,787.69 1468.2,787.29 1468.2,786.79C1468.2,786.29 1467.8,785.89 1467.3,785.89C1466.8,785.89 1466.4,786.29 1466.4,786.79ZM1449.7,784.39C1449.6,782.99 1448.4,781.99 1447,782.09C1445.6,782.19 1444.6,783.39 1444.7,784.79C1444.8,786.19 1446,787.19 1447.4,787.09C1448.8,786.99 1449.8,785.79 1449.7,784.39ZM1471.9,784.59C1471.9,784.19 1471.6,783.89 1471.2,783.89C1470.8,783.89 1470.5,784.19 1470.5,784.59C1470.5,784.99 1470.8,785.29 1471.2,785.29C1471.6,785.29 1471.9,784.99 1471.9,784.59ZM1453.3,779.69C1451.9,779.79 1450.9,780.99 1451,782.39C1451.1,783.79 1452.3,784.79 1453.7,784.69C1455.1,784.59 1456.1,783.39 1456,781.99C1455.9,780.69 1454.7,779.59 1453.3,779.69ZM1460.9,780.39C1460.8,779.39 1459.9,778.59 1458.9,778.59C1457.9,778.69 1457.1,779.59 1457.2,780.59C1457.3,781.59 1458.2,782.39 1459.2,782.39C1460.2,782.29 1461,781.39 1460.9,780.39ZM1474.3,780.39C1474.3,779.89 1473.9,779.49 1473.4,779.49C1472.9,779.49 1472.5,779.89 1472.5,780.39C1472.5,780.89 1472.9,781.29 1473.4,781.29C1473.9,781.29 1474.3,780.89 1474.3,780.39ZM1463.7,776.69C1462.8,776.79 1462.1,777.49 1462.2,778.39C1462.3,779.29 1463,779.89 1463.9,779.89C1464.8,779.79 1465.5,779.09 1465.4,778.19C1465.4,777.39 1464.6,776.69 1463.7,776.69ZM1467.4,776.49C1466.6,776.49 1466.1,777.19 1466.1,777.99C1466.1,778.79 1466.8,779.29 1467.6,779.29C1468.4,779.19 1468.9,778.59 1468.9,777.79C1468.8,776.99 1468.2,776.49 1467.4,776.49ZM1429.8,777.49C1430.8,777.49 1431.7,776.69 1431.7,775.59C1431.7,774.49 1430.9,773.69 1429.8,773.69C1428.7,773.69 1427.9,774.49 1427.9,775.59C1427.9,776.69 1428.8,777.49 1429.8,777.49ZM1437.4,774.19C1437.4,772.79 1436.3,771.79 1435,771.79C1433.6,771.79 1432.6,772.89 1432.6,774.19C1432.6,775.59 1433.7,776.59 1435,776.59C1436.3,776.69 1437.4,775.59 1437.4,774.19ZM1442.2,773.19C1442.2,772.19 1441.4,771.29 1440.3,771.29C1439.3,771.29 1438.4,772.09 1438.4,773.19C1438.4,774.19 1439.2,775.09 1440.3,775.09C1441.4,775.09 1442.2,774.29 1442.2,773.19ZM1445.1,773.59C1446.1,773.59 1447,772.79 1447,771.69C1447,770.69 1446.2,769.79 1445.1,769.79C1444.1,769.79 1443.2,770.59 1443.2,771.69C1443.2,772.79 1444.1,773.59 1445.1,773.59ZM1450.7,770.69C1450.7,769.89 1450.1,769.29 1449.3,769.29C1448.5,769.29 1447.9,769.89 1447.9,770.69C1447.9,771.49 1448.5,772.09 1449.3,772.09C1450.1,772.09 1450.7,771.49 1450.7,770.69ZM1429.7,763.79C1429.7,762.69 1428.8,761.79 1427.7,761.79C1426.6,761.79 1425.7,762.69 1425.7,763.79C1425.7,764.89 1426.6,765.79 1427.7,765.79C1428.7,765.79 1429.7,764.89 1429.7,763.79ZM1437.5,759.49C1437.5,758.49 1436.7,757.69 1435.7,757.69C1434.7,757.69 1433.9,758.49 1433.9,759.49C1433.9,760.49 1434.7,761.29 1435.7,761.29C1436.6,761.39 1437.5,760.49 1437.5,759.49ZM1410.1,760.99C1410.1,760.99 1406.3,755.59 1406.5,753.29C1406.7,750.99 1407.5,748.59 1407.5,748.59C1407.5,748.59 1404.7,751.09 1404.9,745.19L1405.1,739.29C1405.1,739.29 1402.5,737.79 1402.9,734.89C1402.9,734.59 1403,734.29 1403.1,733.99C1403.7,734.99 1404.7,735.89 1406.2,737.19C1410.1,740.39 1408,743.79 1411.6,747.79C1415.2,751.69 1418.4,747.79 1418.4,747.79L1431.6,737.39C1423.2,740.59 1420.4,741.89 1418.8,740.79C1417.2,739.69 1414.7,740.29 1413.2,738.69C1411.8,737.09 1414.6,734.99 1414.6,734.99C1414.6,734.99 1410.5,734.19 1408.9,730.59C1407.3,726.99 1410.5,726.99 1410.5,726.99C1410.5,726.99 1404.1,723.99 1402.9,728.29C1402.5,729.79 1402.3,730.99 1402.4,731.99C1401.4,733.79 1400.6,736.49 1400.6,740.09C1400.6,748.79 1401.8,755.49 1410.1,760.99ZM1402.9,705.49C1405.9,703.39 1408,703.09 1408,703.09C1408,703.09 1406.1,713.79 1412.2,714.49C1413.8,714.69 1415.5,714.59 1417.2,714.29C1421.9,713.59 1426.1,711.79 1426.1,711.79C1426.1,711.79 1430.5,716.49 1437.4,717.69C1444.2,718.89 1446.4,716.99 1446.4,716.99C1447.8,718.19 1447.9,722.59 1447.8,725.39C1450.5,723.09 1453.2,720.49 1455.5,717.89C1456.2,715.49 1456.3,712.59 1455,709.49C1451.8,701.99 1438.2,701.69 1430.3,705.19C1422.4,708.69 1417,711.49 1413.8,709.09C1412.6,706.19 1412.2,703.29 1412.2,700.59C1412.2,690.09 1421.1,686.99 1421.1,686.99C1421.2,685.79 1421.4,684.49 1421.8,683.29C1409.7,689.89 1402.9,705.49 1402.9,705.49ZM1440.7,706.89L1436.7,707.112L1436.69,707.113C1435.62,707.464 1434.67,707.974 1433.9,708.59L1433.9,709.29C1435.5,708.578 1437.35,708.182 1439.28,708.105L1438.94,708.201C1438.85,708.232 1438.76,708.266 1438.67,708.304C1438.6,708.336 1438.53,708.369 1438.46,708.406L1438.17,708.578L1438.01,708.7C1437.93,708.768 1437.86,708.842 1437.79,708.922C1437.71,709.002 1437.65,709.088 1437.6,709.18L1437.48,709.438L1437.41,709.702L1437.4,709.89C1437.4,710.89 1438.7,711.79 1440.3,711.79C1441.9,711.79 1443.2,710.99 1443.2,709.89L1443.17,709.612L1443.14,709.471C1442.96,708.908 1442.44,708.434 1441.73,708.181L1442.16,708.233C1442.57,708.288 1442.98,708.358 1443.38,708.444C1443.75,708.524 1444.12,708.618 1444.48,708.726C1444.78,708.815 1445.08,708.913 1445.37,709.022L1445.79,709.187C1445.8,709.188 1445.8,709.193 1445.8,709.19C1445.8,708.89 1445.8,708.59 1445.8,708.29C1445.8,708.288 1445.8,708.288 1445.8,708.287L1445.54,708.105L1440.7,706.89C1446.2,707.59 1446.8,708.89 1447.8,710.29C1448.8,711.59 1446.1,717.29 1441.7,716.89C1437.2,716.39 1432,715.79 1432.5,709.59C1432.5,709.59 1433.89,707.845 1436.69,707.113L1436.7,707.112L1436.7,707.112L1436.72,707.106C1438.03,706.782 1439.36,706.734 1440.7,706.89ZM1373.2,713.49C1373.2,713.49 1376.7,709.99 1378.6,706.79C1380.5,703.59 1377.5,699.19 1366.8,693.99C1356.1,688.79 1363.3,686.89 1358.5,677.79C1353.7,668.69 1358.2,663.59 1359,653.09C1359.8,642.59 1363.6,637.79 1373.5,632.69C1383.4,627.59 1390.2,629.69 1387.7,628.39C1385.2,627.09 1375.9,624.39 1362.2,634.79C1348.5,645.29 1350.1,679.89 1356,689.29C1361.9,698.69 1374,704.29 1373.2,713.49ZM1389.7,706.79C1390.05,706.59 1390.42,706.365 1390.81,706.103C1391.2,705.84 1391.6,705.54 1392,705.19C1389.4,706.79 1388.1,707.59 1389.7,706.79ZM1392,705.19C1396.5,702.39 1404.6,696.99 1407.4,692.79C1411.8,686.19 1420.2,680.29 1420.2,680.29C1420.2,680.29 1419.7,668.99 1432.4,661.99C1445.1,654.99 1454,652.99 1454,652.99C1454,652.99 1464.6,650.99 1474.1,648.89C1478.6,647.89 1482.2,647.59 1484.7,647.59C1487.2,647.59 1490.8,647.89 1495.3,648.89C1504.8,650.99 1515.4,652.99 1515.4,652.99C1515.4,652.99 1524.4,654.99 1537,661.99C1549.7,668.99 1549.2,680.29 1549.2,680.29C1549.2,680.29 1557.6,686.19 1562,692.79C1564.8,696.99 1573,702.39 1577.4,705.19C1573.1,701.39 1568.1,693.39 1564.1,687.79C1559.4,681.19 1550.2,678.09 1550.2,678.09C1550.2,678.09 1551.8,669.49 1542.1,659.99C1532.4,650.49 1514.3,650.69 1514.3,650.69C1514.3,650.69 1511.4,648.59 1502.8,647.59C1497.2,646.99 1489.3,647.29 1484.5,647.59C1479.7,647.29 1471.8,646.99 1466.2,647.59C1457.6,648.59 1454.7,650.69 1454.7,650.69C1454.7,650.69 1436.6,650.49 1426.9,659.99C1417.2,669.49 1418.8,678.09 1418.8,678.09C1418.8,678.09 1409.7,681.09 1404.9,687.79C1401.3,693.39 1396.3,701.39 1392,705.19ZM1387.19,693.136C1387.48,692.82 1387.79,692.504 1388.1,692.19L1390.95,690.321L1391.18,690.136C1392.13,689.393 1393.13,688.736 1394.2,688.19L1390.95,690.321C1389.19,691.747 1388.09,693.05 1387.19,693.136C1385.24,695.233 1383.76,697.326 1382.8,698.89C1382.2,699.79 1381.8,700.59 1381.5,701.19C1381.2,701.69 1381.1,702.09 1381.1,702.09C1381.1,702.09 1382.1,701.09 1383.6,699.59C1385.1,697.89 1387.2,695.79 1389.5,693.49C1391.8,691.19 1393.9,689.09 1395.5,687.59C1395.63,687.459 1395.76,687.333 1395.88,687.212C1398.86,685.137 1400.09,682.229 1400,681.29C1399.9,680.19 1401.6,671.89 1401.6,671.89C1402,669.19 1396,661.49 1387.5,654.29C1379.2,646.99 1383.9,658.59 1381.3,661.49C1378.6,664.39 1375.2,663.49 1374.4,666.19C1373.6,668.89 1377.4,673.99 1380.1,678.69C1382.8,683.39 1377,685.59 1379.2,688.49C1381.4,691.39 1385.4,692.59 1386.8,693.09C1386.93,693.135 1387.06,693.149 1387.19,693.136ZM1417.16,698.402C1417.12,698.394 1417.1,698.39 1417.1,698.39C1417.1,698.39 1417.12,698.396 1417.16,698.402C1417.63,698.506 1421.01,699.255 1422.4,700.09C1424.4,701.29 1425,696.29 1425,696.29C1425,696.29 1427.8,698.29 1427.7,695.19C1427.5,690.79 1427.8,692.09 1427.8,692.09C1427.8,692.09 1432.2,698.49 1441.7,699.59C1442.5,699.69 1436,698.49 1432.4,691.89C1428.8,685.29 1425.5,686.99 1425.5,686.99C1425.5,686.99 1422.4,688.09 1423.1,691.29C1423.8,694.49 1423.9,695.49 1423.9,695.49C1423.9,695.49 1424.1,696.59 1421.1,697.59C1418.5,698.543 1417.4,698.446 1417.16,698.402ZM1465.52,699.691C1465.61,699.703 1465.71,699.803 1465.8,699.99L1465.5,699.69L1465.52,699.691ZM1459.4,685.79C1457.4,688.59 1459.5,694.39 1465.4,699.69C1464.7,698.99 1462.8,696.89 1462.6,693.69C1462.4,689.49 1461.4,682.89 1459.4,685.79ZM1435,678.79C1433.3,687.89 1440.4,693.79 1448.8,699.59C1448.8,699.59 1438.6,689.99 1439.1,681.29C1439.6,672.49 1447.8,665.09 1447.8,665.09C1447.8,665.09 1436.7,669.69 1435,678.79ZM1443.3,681.59C1441.7,689.39 1449.5,693.99 1449.5,693.99C1449.5,693.99 1445.9,690.79 1444.9,684.19C1444,677.59 1448,670.79 1448,670.79C1448,670.79 1444.9,673.89 1443.3,681.59ZM1466.4,692.09C1468.3,695.29 1469.9,688.29 1470.5,683.99C1471,680.59 1473.1,678.49 1473.9,677.79C1467.2,682.99 1464.5,688.89 1466.4,692.09ZM1395.88,687.212C1397.18,685.94 1398.1,685.19 1398.1,685.19L1394.2,688.19C1394.81,687.898 1395.38,687.567 1395.88,687.212ZM1462.6,681.29C1462.6,682.29 1463.4,683.09 1464.4,683.09C1465.4,683.09 1466.2,682.29 1466.2,681.29C1466.2,680.29 1465.4,679.49 1464.4,679.49C1463.4,679.49 1462.6,680.29 1462.6,681.29ZM1474,677.79C1474.05,677.74 1474.1,677.69 1474.16,677.64C1474.23,677.59 1474.3,677.54 1474.4,677.49C1474.3,677.59 1474.2,677.69 1474,677.79ZM1415.1,658.09C1414.2,659.29 1413.1,660.39 1412.1,661.49C1410,663.69 1408,665.69 1406.7,667.89C1405.4,669.99 1404.9,671.99 1404.7,673.29C1404.6,673.99 1404.5,674.49 1404.5,674.79C1404.5,675.09 1404.4,675.29 1404.4,675.29C1404.4,675.29 1404.5,675.09 1404.6,674.79C1404.7,674.49 1405,673.99 1405.3,673.39C1405.9,672.19 1406.8,670.59 1408.3,669.09C1409.8,667.49 1412,665.99 1414.4,663.99C1415.6,662.99 1416.9,661.99 1418.2,660.49C1419.4,659.09 1420.4,657.29 1421,655.39C1421.4,654.19 1421.6,653.09 1421.6,651.99L1421.7,649.89L1419.7,649.79C1417,649.59 1414.4,648.49 1412.2,647.19C1410,645.89 1408.2,644.29 1406.7,642.99C1405.2,641.59 1404.1,640.49 1403.3,639.69C1402.5,638.89 1402,638.49 1402,638.49C1402,638.49 1402.3,639.09 1402.8,640.09C1403.3,641.09 1404.1,642.49 1405.3,644.29C1406.5,645.99 1408,648.09 1410.3,649.89C1412.1,651.39 1414.4,652.79 1417.1,653.49C1417,653.69 1417,653.99 1416.9,654.19C1416.6,655.59 1415.9,656.89 1415.1,658.09ZM1484.8,674.29C1484.8,674.39 1484.9,674.39 1484.9,674.49L1484.9,674.19C1486.4,672.09 1488.2,670.19 1489.7,670.29C1492.9,670.49 1496.4,674.59 1496.4,674.59C1496.4,674.59 1495.4,670.79 1492.7,668.19C1490.9,666.49 1487.3,665.69 1484.9,665.39L1484.7,665.39C1482.3,665.69 1478.6,666.39 1476.9,668.19C1474.2,670.89 1473.2,674.59 1473.2,674.59C1473.2,674.59 1476.7,670.49 1479.9,670.29C1481.4,670.19 1483.2,672.09 1484.7,674.19L1484.7,674.49C1484.7,674.39 1484.8,674.29 1484.8,674.29ZM1467.5,672.79C1467.5,672.79 1469.5,667.29 1475.1,665.09C1478.4,663.79 1480.7,663.29 1483.1,662.99C1483.7,662.89 1484.3,663.09 1484.7,663.39L1484.7,663.59L1484.8,663.49L1484.9,663.59L1484.9,663.39C1485.4,663.09 1485.9,662.89 1486.5,662.99C1488.8,663.29 1491.2,663.79 1494.5,665.09C1500.1,667.29 1502.1,672.79 1502.1,672.79C1502.1,672.79 1501.5,667.49 1499,665.09C1496.5,662.69 1502.1,662.09 1502.1,662.09C1502.1,662.09 1489.5,658.89 1484.9,656.09L1484.9,655.99C1484.9,655.99 1484.8,655.99 1484.8,656.09C1484.8,656.09 1484.7,656.09 1484.7,655.99L1484.7,656.09C1480.1,658.89 1467.5,662.09 1467.5,662.09C1467.5,662.09 1473.1,662.59 1470.6,665.09C1468.1,667.49 1467.5,672.79 1467.5,672.79ZM1463.8,654.79C1463.8,654.79 1467.2,655.19 1466.1,656.79L1465,658.39C1465,658.39 1466.8,661.29 1471.8,658.39C1475.6,656.19 1481.9,653.69 1484.8,653.59C1487.7,653.69 1493.9,656.19 1497.8,658.39C1502.8,661.29 1504.6,658.39 1504.6,658.39L1503.5,656.79C1502.4,655.19 1505.8,654.79 1505.8,654.79L1497.9,651.49C1497.9,651.49 1500.4,654.49 1497.7,654.59C1494,654.69 1492.8,650.79 1486.2,648.39C1485.7,648.19 1491.3,651.69 1485.1,650.39C1485,650.39 1484.9,650.29 1484.9,650.29L1484.9,650.19L1484.7,650.19L1484.7,650.29C1484.6,650.29 1484.5,650.39 1484.5,650.39C1478.3,651.59 1483.9,648.19 1483.4,648.39C1476.8,650.79 1475.6,654.69 1471.9,654.59C1469.2,654.49 1471.7,651.49 1471.7,651.49L1463.8,654.79ZM1475.4,640.89C1472.6,641.09 1469.3,641.79 1465.8,642.59C1464,642.99 1462.2,643.39 1460.3,643.59C1459.3,643.69 1458.4,643.79 1457.4,643.89C1456.9,643.89 1456.4,643.89 1455.8,643.99C1455.2,643.99 1454.5,644.19 1453.9,644.49C1453.3,644.79 1452.8,644.99 1452.4,645.29C1452,645.49 1451.6,645.69 1451.1,645.89C1450.2,646.29 1449.3,646.49 1448.4,646.69C1446.6,647.09 1444.7,647.29 1442.9,647.39C1441.1,647.49 1439.3,647.59 1437.7,647.69C1436.1,647.79 1434.5,647.99 1433.1,648.19C1430.3,648.69 1428.2,649.59 1426.8,650.49C1426.1,650.89 1425.7,651.29 1425.4,651.59C1425.1,651.89 1425,651.99 1425,651.99C1425,651.99 1425.2,651.89 1425.5,651.59C1425.8,651.39 1426.4,651.09 1427,650.79C1428.4,650.19 1430.5,649.59 1433.2,649.39C1434.6,649.29 1436,649.29 1437.6,649.29C1439.2,649.29 1440.9,649.39 1442.8,649.39C1444.7,649.39 1446.6,649.29 1448.7,648.89C1449.7,648.69 1450.8,648.39 1451.8,647.99C1452.3,647.79 1452.8,647.59 1453.3,647.29C1453.8,646.99 1454.2,646.79 1454.6,646.59C1455,646.39 1455.3,646.39 1455.8,646.29C1456.2,646.29 1456.8,646.29 1457.3,646.19C1458.4,646.09 1459.4,645.99 1460.4,645.79C1462.4,645.49 1464.3,644.99 1466.1,644.49C1469.6,643.49 1472.7,642.49 1475.4,641.99C1478.1,641.49 1480.3,641.39 1481.8,641.39C1482.6,641.39 1483.2,641.49 1483.6,641.59C1484,641.69 1484.2,641.69 1484.2,641.69C1484.2,641.69 1484,641.59 1483.6,641.49C1483.2,641.39 1482.6,641.19 1481.9,641.09C1480.5,640.89 1478.3,640.69 1475.4,640.89ZM1392.9,630.19C1393.9,630.69 1395.2,631.49 1396.8,632.59C1398.4,633.69 1400.3,635.09 1402.4,636.69C1403.5,637.49 1404.6,638.29 1405.9,638.99C1407.1,639.69 1408.4,640.49 1409.7,641.19C1412.4,642.69 1415.1,643.89 1417.7,644.69C1420.3,645.49 1422.8,645.79 1424.8,645.89C1426.9,645.89 1428.5,645.69 1429.6,645.39C1430.1,645.29 1430.4,645.19 1430.7,645.09C1434.4,644.89 1444.9,644.09 1457.1,642.29C1460.9,641.79 1464.6,641.09 1467.8,640.59C1471.1,640.09 1474,639.49 1476.5,639.09C1481.5,638.49 1484.6,637.99 1484.6,637.99C1484.6,637.99 1481.5,637.89 1476.4,637.99C1473.9,638.09 1470.9,638.39 1467.5,638.69C1464.2,638.99 1460.5,639.49 1456.7,640.09C1444.3,641.89 1434,644.09 1430.5,644.89L1429.5,644.89C1428.4,644.79 1426.8,644.59 1424.9,644.19C1423,643.69 1420.9,642.99 1418.6,641.99C1416.3,640.99 1413.8,639.69 1411.2,638.19C1409.9,637.49 1408.6,636.79 1407.3,636.09C1406.1,635.49 1404.9,634.79 1403.7,634.19C1401.4,632.99 1399.3,631.89 1397.4,631.09C1395.5,630.29 1393.9,629.89 1392.8,629.69C1392.2,629.59 1391.8,629.49 1391.5,629.49L1391.1,629.49C1391.1,629.49 1391.2,629.59 1391.5,629.69C1392.1,629.69 1392.4,629.89 1392.9,630.19Z" style="fill:rgb(152,105,76);fill-rule:nonzero;"/>
        </g>
    </g>
</svg>
