<?xml version="1.0" encoding="UTF-8"?>
<svg fill="#6B4631" width="100pt" height="100pt" version="1.1" viewBox="0 0 100 100" xmlns="http://www.w3.org/2000/svg">
 <g>
  <path d="m37.5 15.625h25c1.7266 0 3.125-1.3984 3.125-3.125s-1.3984-3.125-3.125-3.125h-25c-1.7266 0-3.125 1.3984-3.125 3.125s1.3984 3.125 3.125 3.125z" fill-rule="evenodd"/>
  <path d="m28.125 21.875c0.82812 0 1.625-0.32812 2.2109-0.91406 0.58594-0.58594 0.91406-1.3828 0.91406-2.2109v-12.5c0-1.7266-1.3984-3.125-3.125-3.125s-3.125 1.3984-3.125 3.125v12.5c0 0.82812 0.32812 1.625 0.91406 2.2109 0.58594 0.58594 1.3828 0.91406 2.2109 0.91406z" fill-rule="evenodd"/>
  <path d="m71.875 21.875c0.82812 0 1.625-0.32812 2.2109-0.91406 0.58594-0.58594 0.91406-1.3828 0.91406-2.2109v-12.5c0-1.7266-1.3984-3.125-3.125-3.125s-3.125 1.3984-3.125 3.125v12.5c0 0.82812 0.32812 1.625 0.91406 2.2109 0.58594 0.58594 1.3828 0.91406 2.2109 0.91406z" fill-rule="evenodd"/>
  <path d="m94.129 12.121c-1.7578-1.7578-4.1445-2.7461-6.6289-2.7461h-6.25c-1.7266 0-3.125 1.3984-3.125 3.125s1.3984 3.125 3.125 3.125h6.25c0.82812 0 1.625 0.32812 2.2109 0.91406 0.58594 0.58594 0.91406 1.3828 0.91406 2.2109v9.375h-12.5c-1.7266 0-3.125 1.3984-3.125 3.125s1.3984 3.125 3.125 3.125h12.5v53.125c0 0.82812-0.32812 1.625-0.91406 2.2109-0.58594 0.58594-1.3828 0.91406-2.2109 0.91406h-75c-1.7266 0-3.125-1.3984-3.125-3.125v-53.125h56.25c1.7266 0 3.125-1.3984 3.125-3.125s-1.3984-3.125-3.125-3.125h-56.25v-9.375c0-1.7266 1.3984-3.125 3.125-3.125h6.25c1.7266 0 3.125-1.3984 3.125-3.125s-1.3984-3.125-3.125-3.125h-6.25c-5.1758 0-9.375 4.1992-9.375 9.375v68.75c0 5.1758 4.1992 9.375 9.375 9.375h75c5.1758 0 9.375-4.1992 9.375-9.375v-68.75c0-2.4844-0.98828-4.8711-2.7461-6.6289z" fill-rule="evenodd"/>
  <path d="m31.586 46.512c0 5.5781-8.3711 5.5781-8.3711 0s8.3711-5.5781 8.3711 0"/>
  <path d="m31.586 61.16c0 5.5781-8.3711 5.5781-8.3711 0s8.3711-5.5781 8.3711 0"/>
  <path d="m31.586 75.809c0 5.5781-8.3711 5.5781-8.3711 0s8.3711-5.5781 8.3711 0"/>
  <path d="m46.648 46.512c0 5.5781-8.3672 5.5781-8.3672 0s8.3672-5.5781 8.3672 0"/>
  <path d="m46.648 61.16c0 5.5781-8.3672 5.5781-8.3672 0s8.3672-5.5781 8.3672 0"/>
  <path d="m46.648 75.809c0 5.5781-8.3672 5.5781-8.3672 0s8.3672-5.5781 8.3672 0"/>
  <path d="m61.719 46.512c0 5.5781-8.3672 5.5781-8.3672 0s8.3672-5.5781 8.3672 0"/>
  <path d="m61.719 61.16c0 5.5781-8.3672 5.5781-8.3672 0s8.3672-5.5781 8.3672 0"/>
  <path d="m61.719 75.809c0 5.5781-8.3672 5.5781-8.3672 0s8.3672-5.5781 8.3672 0"/>
  <path d="m76.785 46.512c0 5.5781-8.3711 5.5781-8.3711 0s8.3711-5.5781 8.3711 0"/>
  <path d="m76.785 61.16c0 5.5781-8.3711 5.5781-8.3711 0s8.3711-5.5781 8.3711 0"/>
  <path d="m76.785 75.809c0 5.5781-8.3711 5.5781-8.3711 0s8.3711-5.5781 8.3711 0"/>
 </g>
</svg>
