<?xml version="1.0" encoding="UTF-8"?>
<svg fill="#6B4631" width="100pt" height="100pt" version="1.1" viewBox="0 0 100 100" xmlns="http://www.w3.org/2000/svg">
 <path d="m50 6.9922c-15.27 0-28 11.586-28 28 0 6.2344 2.4102 13.578 5 18.406l20.344 38c0.51953 0.98828 1.543 1.6055 2.6562 1.6055s2.1367-0.61719 2.6562-1.6055l20.344-38c2.5898-4.8281 5-12.172 5-18.406 0-16.414-12.73-28-28-28zm0 6c12.348 0 22 8.5898 22 22 0 4.5117-2.2383 11.75-4.2812 15.562l-17.719 33.035-17.719-33.031c-2.043-3.8164-4.2812-11.051-4.2812-15.562 0-13.41 9.6523-22 22-22zm0 8c-7.6953 0-14 6.3047-14 14 0 7.6953 6.3047 14 14 14s14-6.3047 14-14c0-7.6953-6.3047-14-14-14zm0 6c4.4531 0 8 3.5469 8 8 0 4.4531-3.5469 8-8 8s-8-3.5469-8-8c0-4.4531 3.5469-8 8-8z"/>
</svg>
