<svg width="31" height="30" viewBox="0 0 31 30" fill="none" xmlns="http://www.w3.org/2000/svg">
<path d="M25.3699 0.659718H12.1102C11.9297 0.659718 11.7504 0.749952 11.6297 0.869484L2.62969 10.7389C2.51015 10.8584 2.44922 11.0084 2.44922 11.1889V26.6986C2.44922 28.2291 3.73946 29.4583 5.29922 29.4583H25.3686C26.9284 29.4583 28.2186 28.2279 28.2186 26.6986L28.2198 3.41918C28.2198 1.88987 26.96 0.659424 25.3698 0.659424L25.3699 0.659718ZM26.9003 26.7303C26.9003 27.5108 26.2101 28.1401 25.3699 28.1401H5.30047C4.46023 28.1401 3.76999 27.5096 3.76999 26.7303V11.4597L12.3809 2.00972H25.3712C26.2114 2.00972 26.9017 2.6402 26.9017 3.41948L26.9003 26.7303ZM9.65035 12.2097H5.78095C5.42119 12.2097 5.12119 11.9097 5.12119 11.55C5.12119 11.1902 5.42119 10.8902 5.78095 10.8902H9.65035C10.9699 10.8902 12.0199 9.87068 12.0199 8.58044V3.93044C12.0199 3.57068 12.3199 3.27068 12.6796 3.27068C13.0394 3.27068 13.3394 3.57068 13.3394 3.93044V8.54984C13.3699 10.5596 11.6906 12.2095 9.65029 12.2095L9.65035 12.2097ZM21.0197 18.4194C19.2807 16.8597 17.4806 14.7303 16.4003 12.99C16.7003 11.9095 16.8808 11.19 16.8808 11.1595C16.8808 11.0998 16.9113 11.0693 16.9113 11.0095C16.9113 8.9693 15.7113 8.84978 15.4711 8.84978C15.0211 8.84978 14.6015 9.09001 14.3308 9.48026C13.8211 10.2607 14.0308 11.4607 14.9613 13.14C14.4211 14.9997 13.3711 18.1206 12.0515 20.0706C11.3918 20.3108 10.7613 20.5803 10.1918 20.8803C8.87225 21.5108 7.64177 22.2303 7.49177 23.1608C7.43201 23.551 7.58201 23.9108 7.88201 24.2108C8.15155 24.451 8.45153 24.5706 8.81249 24.5706C9.95273 24.5706 11.2125 23.251 12.3819 21.8401L12.5319 21.6596C12.6514 21.5096 12.7721 21.3596 12.8917 21.2096C14.9612 20.4901 17.332 19.9498 19.4917 19.7401C19.6417 19.7096 20.0319 19.7096 20.5112 19.7401C22.4612 21.4206 23.2417 21.4206 23.4807 21.4206C23.9002 21.4206 24.1709 21.2401 24.3209 21.0608C24.8307 20.4913 24.7405 19.9803 24.6209 19.7108C24.5002 19.4096 24.1698 18.5999 21.0197 18.4194L21.0197 18.4194ZM8.90035 23.2194C9.01988 23.0694 9.31987 22.8292 9.95035 22.4999C9.41011 23.0097 9.11011 23.1901 8.90035 23.2194ZM15.41 10.2303C15.4698 10.3206 15.5296 10.5608 15.5296 10.9206C15.5296 10.9803 15.4991 11.0401 15.4698 11.1608C15.3503 10.6803 15.3503 10.3803 15.41 10.2303V10.2303ZM13.9698 19.4694C14.7503 17.9694 15.3796 16.2291 15.8893 14.6694C16.7893 15.9292 17.9296 17.2792 19.099 18.45C17.4502 18.6 15.6502 18.9598 13.9696 19.4695L13.9698 19.4694ZM23.4807 20.7303V20.0706V20.7303Z" fill="#AD8F6B"/>
</svg>
